<svg xmlns="http://www.w3.org/2000/svg" width="58" height="14" fill="none" viewBox="0 0 58 14">
  <path fill="#627BBB" d="M40.624 8.586v5.202H37.75V9.767c0-.925-.342-1.76-1.026-1.883-1.209-.211-2.11.59-2.11 2.217v3.687h-2.873V5.69h2.622v.835l-.433.88.262.123.172-.379c.341-.546.684-.924 1.117-1.17.604-.334 1.174-.5 2.11-.5.512 0 1.242.211 1.755.59.718.557 1.231 1.515 1.277 2.517ZM18.72 6.08c-.513-.379-1.242-.59-1.755-.59-.935 0-1.505.167-2.11.5-.433.257-.775.625-1.117 1.17l-.171.38-.262-.123.433-.88V5.7h-2.622v8.087h2.873V10.1c0-1.637.9-2.428 2.11-2.217.683.123 1.025.97 1.025 1.883v4.021h2.873V8.586c-.022-1.002-.535-1.96-1.277-2.506ZM9.714 9.767c0 2.35-1.642 4.233-4.857 4.233C1.642 14 0 12.117 0 9.767 0 7.46 1.722 5.534 4.857 5.534c3.09 0 4.812 1.927 4.857 4.233ZM6.75 9.8c0-1.258-.684-2.26-1.893-2.26-1.208 0-1.893 1.002-1.893 2.26 0 1.259.639 2.261 1.893 2.261 1.197.012 1.847-1.036 1.893-2.26Zm43.76.758c-1.21 0-5.724 0-5.724-.045.09 1.593 2.28 2.183 4.936 1.214v1.716s-.775.456-3.226.5c-2.714.045-4.607-1.681-4.607-4.187 0-2.685 1.939-4.233 4.299-4.233 2.11 0 3.443.924 3.99 2.55.251.691.331 1.527.331 2.485Zm-4.128-3.22c-1.676 0-1.676 1.716-1.676 1.716h3.18s.126-1.715-1.504-1.715Zm-24.593 6.45h2.873V2.137h-2.873v11.651Zm4.902 0h2.873V5.69h-2.873v8.098Zm31.07-8.254c-.73 0-1.505.167-2.11.501-.387.257-.73.59-1.072 1.092l-.045.089-.171.334-.262-.122.387-.836v-.88h-2.622V13.8h2.873v-3.687c0-1.637.855-2.261 2.11-2.261.41 0 .775 0 1.151.056V5.545c-.023-.01-.194-.01-.24-.01Z"/>
  <path fill="#CE4B43" d="m28.152 0-1.46 3.23 1.46 1.17L32.405 0h-4.253Z"/>
</svg>
