<svg style="display: none;" aria-hidden="true" xmlns="http://www.w3.org/2000/svg" xmlns:xlink="http://www.w3.org/1999/xlink"><symbol fill="none" viewBox="0 0 53 330" id="svg-arr-decor" xmlns="http://www.w3.org/2000/svg">
  <path stroke="#FDD069" stroke-width="1" d="M52 0v329L1 232.915"/>
</symbol><symbol fill="none" viewBox="0 0 53 330" id="svg-arr-decor-new" xmlns="http://www.w3.org/2000/svg">
  <path stroke="#FDD069" stroke-width="1" d="M52 0v329L1 232.915"/>
</symbol><symbol fill="none" viewBox="0 0 37 171" id="svg-arr-decor-title" xmlns="http://www.w3.org/2000/svg">
  <path stroke="#FDD069" d="M36-.001v169.999l-35-66"/>
</symbol><symbol fill="none" viewBox="0 0 8 17" id="svg-arr-down" xmlns="http://www.w3.org/2000/svg">
  <path fill="#4A4849" d="M3.646 16.354a.5.5 0 0 0 .708 0l3.182-3.182a.5.5 0 1 0-.708-.708L4 15.293l-2.828-2.829a.5.5 0 1 0-.708.708l3.182 3.182ZM3.5 0v8h1V0h-1Zm0 8v8h1V8h-1Z"/>
</symbol><symbol fill="currentColor" viewBox="0 0 32 60" id="svg-arr-next" xmlns="http://www.w3.org/2000/svg">
  <g clip-path="url(#aea)">
    <path fill-rule="evenodd" d="M1.707.293 31.414 30 1.707 59.707.293 58.293 28.586 30 .293 1.707 1.707.293Z" clip-rule="evenodd"/>
  </g>
  <defs>
    <clipPath id="aea">
      <path d="M0 0h32v60H0z"/>
    </clipPath>
  </defs>
</symbol><symbol fill="currentColor" viewBox="0 0 32 60" id="svg-arr-prev" xmlns="http://www.w3.org/2000/svg">
  <g clip-path="url(#afa)">
    <path fill-rule="evenodd" d="m30.293.293 1.414 1.414L3.414 30l28.293 28.293-1.414 1.414L.586 30 30.293.293Z" clip-rule="evenodd"/>
  </g>
  <defs>
    <clipPath id="afa">
      <path d="M0 0h32v60H0z"/>
    </clipPath>
  </defs>
</symbol><symbol fill="currentColor" viewBox="0 0 17 8" id="svg-arr-right" xmlns="http://www.w3.org/2000/svg">
  <path d="M16.354 4.354a.5.5 0 0 0 0-.708L13.172.464a.5.5 0 1 0-.708.708L15.293 4l-2.829 2.828a.5.5 0 1 0 .708.708l3.182-3.182ZM0 4.5h16v-1H0v1Z"/>
</symbol><symbol fill="currentColor" viewBox="0 0 36 8" id="svg-arr-right-long" xmlns="http://www.w3.org/2000/svg">
  <path d="M35.354 4.354a.5.5 0 0 0 0-.708L32.172.464a.5.5 0 1 0-.707.708L34.293 4l-2.828 2.828a.5.5 0 1 0 .707.708l3.182-3.182ZM0 4.5h17.5v-1H0v1Zm17.5 0H35v-1H17.5v1Z"/>
</symbol><symbol fill="currentColor" viewBox="0 0 8 17" id="svg-arr-top" xmlns="http://www.w3.org/2000/svg">
  <path d="M4.354.646a.5.5 0 0 0-.708 0L.464 3.828a.5.5 0 1 0 .708.708L4 1.707l2.828 2.829a.5.5 0 1 0 .708-.708L4.354.646ZM4.5 17V1h-1v16h1Z"/>
</symbol><symbol fill="currentColor" viewBox="0 0 16 14" id="svg-c-tg" xmlns="http://www.w3.org/2000/svg">
  <path d="M15.172.34a.991.991 0 0 0-1.005-.176L1.187 5.262a.984.984 0 0 0 .17 1.884l3.41.682v4.233a.985.985 0 0 0 1.68.696l1.92-1.92 2.868 2.525a.964.964 0 0 0 .95.197.971.971 0 0 0 .653-.718l2.65-11.538a.985.985 0 0 0-.316-.963ZM1.412 6.19a.127.127 0 0 1 .085-.14L12.36 1.78 5.09 7.033l-3.565-.717a.127.127 0 0 1-.113-.126Zm4.437 5.97a.134.134 0 0 1-.155.027.141.141 0 0 1-.084-.126V8.41l2.116 1.87-1.876 1.88Zm6.174.491a.14.14 0 0 1-.232.078L5.862 7.512l8.79-6.343-2.63 11.482Z"/>
</symbol><symbol fill="currentColor" viewBox="0 0 15 15" id="svg-c-viber" xmlns="http://www.w3.org/2000/svg">
  <g clip-path="url(#aka)">
    <path d="M13.306 1.46c-.392-.34-1.98-1.435-5.517-1.45 0 0-4.174-.236-6.206 1.533C.452 2.615.056 4.185.01 6.133c-.045 1.948-.096 5.598 3.615 6.59h.003l-.003 1.512s-.025.613.4.736c.512.152.816-.314 1.306-.815.27-.276.64-.68.921-.988a15.13 15.13 0 0 0 4.81-.348l-.099.02c.513-.158 3.414-.51 3.883-4.16.49-3.767-.233-6.144-1.54-7.22Zm.43 6.946c-.4 3.046-2.75 3.24-3.183 3.37a13.58 13.58 0 0 1-3.142.358c-.32 0-.638-.01-.953-.032l.042.003s-1.606 1.836-2.106 2.314c-.164.155-.344.142-.34-.167l.012-2.51c-3.141-.827-2.96-3.936-2.922-5.56.037-1.624.358-2.959 1.316-3.855 1.72-1.48 5.264-1.26 5.264-1.26 2.994.012 4.427.868 4.76 1.154 1.104.897 1.666 3.042 1.251 6.184ZM9.444 6.039v.008a.185.185 0 0 1-.059.13.207.207 0 0 1-.276.006.186.186 0 0 1-.065-.126.862.862 0 0 0-.049-.387.9.9 0 0 0-.215-.33.96.96 0 0 0-.34-.216 1.003 1.003 0 0 0-.406-.06h.003a.205.205 0 0 1-.133-.062.184.184 0 0 1 .007-.262.206.206 0 0 1 .136-.055h.012-.001l.045-.001c.184 0 .366.036.535.105.169.07.32.171.447.299.125.127.222.278.284.442.061.164.087.339.074.513V6.04Zm.627.332c.03-1.243-.788-2.215-2.342-2.324a.21.21 0 0 1-.142-.062.188.188 0 0 1-.051-.141.183.183 0 0 1 .071-.133.204.204 0 0 1 .15-.042h.011c.369 0 .734.071 1.072.21.339.138.644.34.897.595.253.255.448.556.574.884.126.329.18.678.158 1.028v-.007a.186.186 0 0 1-.063.126.207.207 0 0 1-.276-.003.186.186 0 0 1-.06-.128v-.005.002Zm1.45.393a.186.186 0 0 1-.063.128.206.206 0 0 1-.275.002.186.186 0 0 1-.063-.127c-.016-2.389-1.695-3.689-3.73-3.703a.21.21 0 0 1-.142-.055.19.19 0 0 1-.059-.134.18.18 0 0 1 .059-.134.201.201 0 0 1 .141-.055c2.28.015 4.112 1.506 4.13 4.077h.001Zm-.347 2.873v.005c-.333.557-.957 1.172-1.6.976l-.006-.009a12.089 12.089 0 0 1-3.183-1.674l.027.019a7.945 7.945 0 0 1-1.298-1.227l-.012-.016a9.403 9.403 0 0 1-.924-1.316l-.026-.049a8.346 8.346 0 0 1-.787-1.57l-.02-.061c-.206-.61.439-1.201 1.03-1.518h.005a.586.586 0 0 1 .738.114s.384.434.548.648c.154.2.362.519.47.697a.584.584 0 0 1-.115.778v.001l-.37.281a.488.488 0 0 0-.163.412v-.002a3.64 3.64 0 0 0 .962 1.537 3.94 3.94 0 0 0 1.613.926l.028.007a.57.57 0 0 0 .432-.155l.297-.35a.672.672 0 0 1 .824-.107l-.002-.002c.535.29.998.607 1.42.968l-.006-.006a.5.5 0 0 1 .116.694l.001-.003.001.002Z"/>
  </g>
  <defs>
    <clipPath id="aka">
      <path d="M0 0h15v15H0z"/>
    </clipPath>
  </defs>
</symbol><symbol fill="currentColor" viewBox="0 0 17 17" id="svg-c-wa" xmlns="http://www.w3.org/2000/svg">
  <path d="M8.498 1a7.499 7.499 0 0 0-6.543 11.162l-.647 2.257a1.022 1.022 0 0 0 1.272 1.272l2.257-.647A7.499 7.499 0 1 0 8.498 1Zm0 14.118a6.616 6.616 0 0 1-3.374-.927.498.498 0 0 0-.346-.044l-2.441.699a.147.147 0 0 1-.184-.184l.699-2.441a.441.441 0 0 0-.045-.346 6.618 6.618 0 1 1 5.691 3.243Zm3.787-5.383-1.507-.86a1.03 1.03 0 0 0-1.037.015l-.941.566a3.044 3.044 0 0 1-1.258-1.257l.567-.942a1.03 1.03 0 0 0 .014-1.036l-.86-1.508a.956.956 0 0 0-.823-.478 2.5 2.5 0 0 0-2.5 2.493 6.324 6.324 0 0 0 6.323 6.33h.007a2.5 2.5 0 0 0 2.493-2.5.955.955 0 0 0-.478-.823Zm-2.015 2.442h-.007a5.448 5.448 0 0 1-5.44-5.45 1.618 1.618 0 0 1 1.617-1.61.088.088 0 0 1 .058.03l.86 1.507a.147.147 0 0 1-.007.147l-.683 1.155a.42.42 0 0 0-.03.404 4.015 4.015 0 0 0 2 2 .419.419 0 0 0 .404-.03l1.155-.683a.147.147 0 0 1 .147-.007l1.507.86a.088.088 0 0 1 .03.059 1.618 1.618 0 0 1-1.61 1.618Z"/>
</symbol><symbol fill="currentColor" viewBox="0 0 16 16" id="svg-close" xmlns="http://www.w3.org/2000/svg">
  <path d="M15.59 2.39A1.4 1.4 0 1 0 13.61.41L8 6.02 2.39.41A1.4 1.4 0 1 0 .41 2.39L6.02 8 .41 13.61a1.4 1.4 0 0 0 1.98 1.98L8 9.98l5.61 5.61a1.4 1.4 0 1 0 1.98-1.98L9.98 8l5.61-5.61Z"/>
</symbol><symbol fill="none" viewBox="0 0 223 84" id="svg-dking" xmlns="http://www.w3.org/2000/svg">
  <path fill="#FDFDFD" d="M1.138 5.815v2.89c6.375.51 7.225 1.02 7.225 8.415v33.66c0 7.31-.85 7.82-8.075 8.5V62h21.93c10.88 0 19.89-2.21 26.35-7.14 6.715-5.1 10.965-12.665 10.965-23.12 0-8.245-3.315-14.45-7.65-18.445-5.61-5.185-13.94-7.48-24.99-7.48H1.138Zm17.085 9.435c0-2.975.255-4.25 1.02-4.93.68-.595 2.72-1.19 6.205-1.19 6.035 0 10.965 1.53 14.705 4.675 5.27 3.91 8.16 10.965 8.16 19.465 0 14.62-7.905 25.16-21.76 25.16-6.29 0-8.33-1.87-8.33-8.33V15.25ZM109.042 62v-2.55c-3.145-.425-5.015-1.445-7.905-4.59-2.805-3.145-11.05-13.43-13.09-16.66 2.975-3.655 4.335-5.27 6.63-7.48 2.89-2.805 5.525-3.825 11.135-4.76v-2.465l-18.445.765v2.55c3.655.51 3.995 1.36 2.635 3.655-1.275 1.955-3.655 5.44-5.525 7.48-1.36 1.275-2.89 2.635-5.1 3.145V.885c-5.015 1.53-10.71 2.635-14.79 3.06V6.24c4.93.51 5.525 1.02 5.525 6.205V52.82c0 5.525-.51 5.95-6.035 6.63V62h21.25v-2.55c-5.27-.68-5.95-1.02-5.95-6.63v-9.35h1.02c.595.085 1.19.51 2.04 1.615 4.25 5.95 9.435 13.345 12.75 17.085l13.855-.17Zm11.251-45.39c3.145 0 5.525-2.465 5.525-5.355 0-3.06-2.38-5.44-5.44-5.44-2.89 0-5.44 2.38-5.44 5.44 0 2.89 2.55 5.355 5.355 5.355ZM131.513 62v-2.55c-5.44-.68-5.865-1.19-5.865-7.14V22.9c-4.42 1.445-9.52 2.635-14.365 3.23v2.38c4.505.68 5.015 1.02 5.015 6.545V52.31c0 6.12-.595 6.545-5.865 7.14V62h21.08Zm48.027 0v-2.55c-4.76-.68-5.27-.935-5.27-6.545V36.67c0-8.67-4.42-13.685-11.305-13.685-2.465 0-4.335.85-6.97 2.55-2.04 1.275-3.91 2.72-5.61 3.825v-6.63c-4.675 1.53-9.775 2.805-14.195 3.485v2.21c4.335.85 4.845 1.19 4.845 6.545v17.68c0 5.78-.425 6.035-6.035 6.8V62h20.145v-2.55c-4.25-.595-4.76-.935-4.76-6.545v-20.4c2.465-1.955 5.015-3.485 7.735-3.485 4.165 0 6.885 2.805 6.885 8.84v14.365c0 6.205-.51 6.63-4.76 7.225V62h19.295Zm42.88-37.91c-3.23.425-7.82 1.02-12.325 1.19-2.89-1.53-5.61-2.295-8.84-2.295h-.085c-7.31 0-16.235 4.505-16.235 14.365 0 5.525 3.315 9.69 8.075 11.475-1.53 1.615-4.335 3.91-8.33 5.525-.085.935.255 2.805 1.105 4.165 1.19 1.955 3.06 3.655 6.545 4.76-2.125 1.445-4.845 3.23-6.8 5.015-1.53 1.275-2.55 2.89-2.55 4.845.085 4.845 5.185 10.54 15.81 10.54 11.475 0 22.61-8.16 22.61-17.51 0-9.01-7.735-10.455-13.005-10.455-2.89 0-5.61.17-8.585.17-3.995 0-5.525-1.785-5.525-3.4 0-1.02.935-2.125 1.785-2.805 1.275.17 2.805.425 4.335.425 8.16 0 16.065-4.505 16.065-13.6 0-3.06-.935-5.355-2.38-7.14l5.015.34c1.445-.85 3.145-3.485 3.74-4.845l-.425-.765Zm-21.93 1.87c4.59 0 7.055 5.1 7.055 11.05 0 6.63-2.55 10.03-6.12 10.03-4.42 0-6.97-4.845-6.97-11.22 0-6.46 2.975-9.86 5.95-9.86h.085Zm1.275 37.57c3.315 0 5.525.17 7.82.85 2.635.85 4.42 2.89 4.42 5.865 0 4.93-4.08 8.755-11.305 8.755-6.715 0-11.305-3.91-11.305-8.245 0-2.125 1.105-3.825 2.805-5.355 1.445-1.445 3.315-1.87 7.48-1.87h.085Z"/>
</symbol><symbol fill="none" viewBox="0 0 23 23" id="svg-dots-decor" xmlns="http://www.w3.org/2000/svg">
  <circle cx="1.5" cy="1.5" r="1.5" fill="#828282"/>
  <circle cx="11.5" cy="1.5" r="1.5" fill="#828282"/>
  <circle cx="21.5" cy="1.5" r="1.5" fill="#828282"/>
  <circle cx="1.5" cy="11.5" r="1.5" fill="#828282"/>
  <circle cx="11.5" cy="11.5" r="1.5" fill="#828282"/>
  <circle cx="21.5" cy="11.5" r="1.5" fill="#828282"/>
  <circle cx="1.5" cy="21.5" r="1.5" fill="#828282"/>
  <circle cx="11.5" cy="21.5" r="1.5" fill="#828282"/>
  <circle cx="21.5" cy="21.5" r="1.5" fill="#828282"/>
</symbol><symbol fill="currentColor" viewBox="0 0 20 20" id="svg-fb" xmlns="http://www.w3.org/2000/svg">
  <path d="m14.31 11.158.514-3.352h-3.217V5.63c0-.917.45-1.812 1.89-1.812h1.463V.964S13.633.738 12.364.738c-2.65 0-4.38 1.606-4.38 4.513v2.555H5.037v3.353h2.945v8.105h3.624V11.16h2.702l.001-.002Z"/>
</symbol><symbol fill="currentColor" viewBox="0 0 36 8" id="svg-form-arr" xmlns="http://www.w3.org/2000/svg">
  <path d="M35.354 4.354a.5.5 0 0 0 0-.708L32.172.464a.5.5 0 1 0-.707.708L34.293 4l-2.828 2.828a.5.5 0 1 0 .707.708l3.182-3.182ZM0 4.5h35v-1H0v1Z"/>
</symbol><symbol fill="currentColor" viewBox="0 0 20 20" id="svg-insta" xmlns="http://www.w3.org/2000/svg">
  <g clip-path="url(#ara)">
    <path d="M13.088 10.001a3.087 3.087 0 1 0-.905 2.183 2.967 2.967 0 0 0 .905-2.137L13.087 10v.001Zm1.667 0a4.737 4.737 0 1 1-1.387-3.365 4.572 4.572 0 0 1 1.388 3.286l-.001.084V10v.001Zm1.302-4.945v.002a1.111 1.111 0 1 1-.325-.786c.197.194.32.464.32.762v.023h.005Zm-6.052-2.655-.922-.007a64.004 64.004 0 0 0-1.273 0c-.29.005-.678.017-1.164.037-.452.015-.88.06-1.3.13l.057-.007a4.81 4.81 0 0 0-.898.234l.033-.01a3.178 3.178 0 0 0-1.753 1.74l-.008.02c-.1.271-.173.551-.22.836l-.003.03a8.81 8.81 0 0 0-.123 1.225v.016c-.02.487-.033.875-.037 1.165-.004.29-.004.713 0 1.272l.006.923-.006.922c-.004.56-.004.984 0 1.273.004.29.016.678.036 1.164.016.452.06.88.132 1.3l-.008-.057c.054.328.13.62.234.898l-.011-.033a3.178 3.178 0 0 0 1.74 1.754l.02.007c.246.092.537.17.837.22l.028.003c.362.064.79.108 1.226.123h.016c.487.02.875.033 1.164.037.29.004.714.004 1.273 0l.917-.018.923.006c.559.004.983.004 1.273 0 .388-.007.776-.02 1.164-.037.45-.015.88-.06 1.299-.13l-.056.007c.328-.054.619-.13.897-.234l-.033.01a3.18 3.18 0 0 0 1.754-1.739l.008-.02c.099-.271.172-.551.219-.837l.004-.028c.063-.363.108-.79.123-1.226v-.016c.02-.487.032-.875.037-1.164.004-.29.004-.714 0-1.274l-.007-.922.007-.922c.004-.424.004-.848 0-1.273-.005-.29-.017-.678-.037-1.164a9.738 9.738 0 0 0-.13-1.3l.007.057a4.833 4.833 0 0 0-.234-.898l.01.033a3.181 3.181 0 0 0-1.74-1.754l-.02-.007a4.614 4.614 0 0 0-.836-.22l-.03-.003a9.076 9.076 0 0 0-1.225-.123h-.016c-.486-.02-.874-.033-1.164-.037a65.716 65.716 0 0 0-1.273 0l-.917.018Zm9.258 7.6c0 1.841-.02 3.116-.062 3.823a5.125 5.125 0 0 1-5.392 5.38h.013c-.708.041-1.982.062-3.824.062-1.841 0-3.115-.02-3.823-.062a5.124 5.124 0 0 1-5.38-5.392v.012c-.041-.707-.061-1.982-.061-3.823 0-1.84.02-3.116.06-3.823A5.126 5.126 0 0 1 6.188.798h-.012C6.883.758 8.157.736 9.998.736c1.842 0 3.116.02 3.824.062A5.126 5.126 0 0 1 19.2 6.19v-.012c.04.707.062 1.981.062 3.823Z"/>
  </g>
  <defs>
    <clipPath id="ara">
      <path d="M0 0h20v20H0z"/>
    </clipPath>
  </defs>
</symbol><symbol fill="currentColor" viewBox="0 0 390 108" id="svg-logo" xmlns="http://www.w3.org/2000/svg">
  <path fill-rule="evenodd" d="M160.49 76.045c-7.415 0-9.643-2.448-9.643-10.153V23.775c0-2.143.139-4.902 1.32-5.772 1.914-1.41 6.114-1.248 8.685-1.248 4.878 0 11.53 2.082 14.974 5.237 2.019 1.85 3.125 2.447 4.94 5.266 2.539 3.945 3.822 7.97 4.488 12.756.194 1.392.544 5.337.412 6.556-.535 4.942-.102 6.33-1.895 11.943-1.8 5.633-5.15 10.708-10.072 13.844-.766.489-1.38.795-2.199 1.223-2.777 1.452-6.882 2.465-11.01 2.465Zm-30.617 4.388V77.56c.085-.75.447-.505 1.756-.691 5.374-.764 7.646-.936 7.646-8.094V24.151c0-2.184-.199-5.238-1.925-6.522-2.319-1.725-6.392-.882-6.392-1.751v-3.385H158.2c9.28 0 18.381.657 26.238 5.056 3.318 1.857 6.11 4.322 8.427 7.407 3.995 5.322 5.957 12.162 5.957 19 0 6.145-1.593 13.237-3.88 17.148l-1.34 2.368c-.977 1.687-3.019 4.153-4.271 5.461-.285.299-.357.33-.652.576l-1.271 1.185c-.258.226-.3.284-.588.517-3.778 3.07-8.043 5.4-12.683 6.742-5.282 1.529-10.826 2.48-16.66 2.48h-27.604Zm236.622 21.56c-2.477 0-3.704-.074-6.098-.803-1.319-.402-2.716-1.166-3.812-1.928-2.117-1.474-4.193-4.036-4.193-7.548 0-3.036 1.68-4.802 3.163-6.362 2.768-2.912 7.234-2.412 11.422-2.412 3.87 0 8.928.68 11.021 3.832 1.867 2.813 1.596 6.71-.012 9.495-2.208 3.824-6.835 5.726-11.491 5.726Zm-10.487-53.65c0-3.948 1.153-9.655 4.779-11.576 3.487-1.848 7.226.566 8.844 3.803 2.42 4.844 2.745 13.805.023 18.33-3.193 5.308-11.118 5.025-13.175-5.781l-.471-4.775Zm-11.451.753c0 3.496.131 5.762 1.935 8.893 1.49 2.585 3.156 4.134 5.664 5.642.381.229 1.482.776 1.923.883-1.248 1.94-7.47 6.184-9.884 6.768 0 4.321 2.181 7.495 5.567 9.63.666.42 2.605 1.451 3.474 1.526-.231.36-2.754 2.06-3.304 2.456-3.095 2.227-7.786 5.546-7.786 9.703 0 4.148 2.953 8.086 6.197 10.102 11.542 7.175 29.881 1.97 36.909-9.023 1.673-2.618 3.061-5.638 3.061-9.728 0-6.352-3.012-10.033-8.242-11.86-4.462-1.56-9.024-.924-13.696-.925-2.666 0-6.545.362-8.585-.976-4.207-2.758-.219-6.447.147-6.545l6.027.501c5.05 0 10.015-2.1 12.805-4.483 3.834-3.277 5.637-7.298 5.637-12.815 0-3.63-1.016-5.797-2.772-8.524l5.691.46c.381 0 .419-.132.673-.358.248-.222.355-.275.599-.507.913-.872 3.403-4.487 3.403-5.235 0-.14-.394-.831-.482-1.003l-6.377.763c-.995.1-2.269.312-3.268.362-1.194.062-4.137.379-5.066.316-.316-.021-.865-.388-1.199-.565-1.739-.912-3.475-1.492-5.414-1.89-6.934-1.428-15.39.99-19.938 6.616-2.08 2.572-3.699 6.182-3.699 9.816ZM203.768 8.983c0 3.362-.205 2.653 1.049 2.794.344.039.963.144 1.363.212 2.964.511 4.097 1.509 4.097 5.517V70.78c0 4.24-.974 5.282-4.168 5.945-.787.163-2.155.43-2.944.448v3.26h25.314v-3.26c-1.342-.03-3.961-.608-5.107-1.207-1.58-.827-1.885-2.887-1.885-4.684V57.618c2.535 0 2.467.617 4.599 3.616 2.955 4.155 5.854 8.568 8.902 12.804l4.19 5.545c.197.229.265.257.458.528.613.858.736.571 3.066.571l10.487-.125c1.29.002 2.161-.126 3.496-.126v-3.259c-1.445-.033-3.741-.882-4.74-1.464-4.558-2.652-11.941-13.457-15.548-18.051-1.251-1.594-4.021-5.789-4.664-6.557 1.071-1.663 4.639-5.89 6.178-7.49.792-.823 1.493-1.566 2.288-2.384 2.923-3.008 7.092-4.135 10.931-4.928 2.119-.439 1.698.5 1.698-3.5-2.183 0-6.111.389-8.194.38-.462-.002-.997-.03-1.45-.004-.546.03-.659.13-1.321.13-.477.001-.982-.023-1.455-.008-.607.019-.667.126-1.317.135-.482.006-.974-.017-1.456-.01-.65.008-.71.115-1.317.134-1.457.045-4.403-.031-5.549.246v3.26c.689 0 1.912.304 2.428.483 3.172 1.097.742 3.837-.885 6.386l-3.682 5.196c-.425.496-1.217 1.578-1.649 1.921-1.578 1.256-2.782 2.78-5.494 3.437V4.971c-.627.015-1.523.364-2.127.546-.736.222-1.388.401-2.092.582-3.703.955-8.595 2.031-12.452 2.47-.549.062-1.048-.127-1.048.414Zm87.149 28.204v2.758c4.56 1.105 5.665.875 5.665 7.646v21.435c0 7.197-.846 7.308-6.409 8.127-.821.12-.582-.07-.582 3.28h23.505v-3.134c-1.663-.403-3.053-.317-4.295-1.3-.97-.769-1.25-2.842-1.25-4.591V45.084c0-.645 5.145-4.387 8.679-4.387 4.004 0 6.53 2.09 7.475 5.64.303 1.136.601 2.326.601 3.761v21.184c0 1.879-.271 3.67-1.231 4.612-.536.526-1.119.73-1.973.956a8.868 8.868 0 0 1-1.204.252c-1.255.183-1.016-.52-1.016 3.33h22.421c0-3.893.286-3.107-1.327-3.383-1.493-.256-3.223-.502-4.006-1.85-.891-1.536-.694-4.714-.694-7.176 0-5.025.319-18.976-.512-23.284-.781-4.047-2.598-7.508-5.928-9.63-2.493-1.59-4.403-1.808-7.423-1.808-2.751 0-5.792 1.88-7.522 3.084l-6.34 4.438v-7.898l-10.077 2.933-6.557 1.33Zm-30.136-.127v3.01c.97.022 3.553.602 4.361 1.23 1.054.82 1.424 2.413 1.424 4.285V71.03c0 5.01-1.755 5.556-5.492 6.072-1.522.21-1.258-.646-1.258 3.33h24.591c0-4.152.572-2.984-2.397-3.525-3.109-.565-4.263-1.749-4.358-5.12-.119-4.224.004-8.667.004-12.916V33.175l-8.066 2.266-6.466 1.299c-.669.111-1.734.307-2.343.32Zm9.768-12.783c3.753 0 6.63-2.849 6.63-6.142 0-2.206-.353-3.567-1.897-5.172-4.632-4.817-13.01.425-10.299 7.325.813 2.069 3.156 3.989 5.566 3.989ZM47.739 29.56c0-2.604 3.944-3.067 3.944.14 0 .937-.866 1.653-1.633 1.839.14.301.247 1.03.354 1.472.146.604.22.986.382 1.581.852 3.121 1.757 5.16 3.48 7.837 1.43-.397 5.24-4.36 6.257-5.94-.602-.935-.952-.275-.952-2.263 0-.78.859-1.697 2.04-1.697.766 0 1.768.898 1.768 1.697 0 1.524-.482 2.405-2.312 2.405-.58 2.59-.544 4.962-.544 7.637 0 .839 1.274.105 1.951-.234 1.968-.986 3.085-1.706 4.756-3.116.302-.255.64-.564.91-.752-.29-.448-.68-.786-.68-1.555 0-.888.795-1.98 1.631-1.98 1.21 0 2.312.351 2.312 1.98 0 1.907-1.837 2.407-3.128 1.697-.178.695-4.56 6.589-4.624 9.617-.796 0-.928-.124-1.628-.146-3.5-.109-8.927.004-12.516.004-2.527 0-4.642-.141-7.073-.141h-7.208l-.775-2.447c-1.308-3.458-1.58-3.622-3.17-6.746-.748.181-.468.283-1.495.283-2.135 0-2.547-3.89.164-4.069 1.071-.07 2.012.9 2.012 2.089 0 .847-.262.844-.408 1.414.298.208.416.361.756.628 1.621 1.268 4.73 3.737 6.588 3.898.135-1.689.544-1.229.544-5.092 0-1.26-.187-2.05-.272-3.11-.95 0-1.202.033-1.755-.438-1.36-1.158-.637-3.664 1.211-3.664 2.227 0 2.609 3.358.952 3.818.102.398.341.62.582.95l1.354 1.704c1.036 1.21 2.72 3.181 4.32 3.569l1.18-2.31c.44-.908.691-1.614 1.015-2.621.273-.85.581-1.98.763-2.883.191-.943.578-2.113.578-3.076-.846-.205-1.631-.922-1.631-1.98ZM49.17 0h.778c.942.085 1.908.485 2.784 1.311 2.293 2.162 1.235 6.697-1.322 7.317.104 1.3 7.445 13.326 8.27 14.593.455.698 1.694 2.59 2.202 2.944.642-.178 4.616-3.04 5.224-3.478l3.675-2.826c.418-.326.777-.639 1.166-.91-.49-.76-.689-1.01-.922-2.012-.377-1.625.089-2.99 1.157-4.107 4.272-4.472 10.522 2.118 6.6 6.157-.708.73-1.512 1.422-2.62 1.519.039 1.771 3.719 19.275 4.353 20.649 1.41-.342 6.2-2.788 7.537-3.618l2.39-1.333c-.983-1.527-1.31-3.046-.458-4.862.177-.377.188-.399.421-.692 3.044-3.824 8.198-1.213 8.198 2.725 0 2.31-2.002 4.526-4.216 4.526-1.994 0-1.211-.124-2.448-.424-.041.515-.313.952-.506 1.454-1.71 4.446-3.01 9.9-1.942 14.67l-78.339-.142v-2.122c0-4.942-4.1-12.131-4.488-13.86-1.491.361-.39.424-2.72.424-3.328 0-5.867-5.59-1.989-8.29 2.58-1.796 5.968-.519 6.841 2.255.776 2.462-.417 3.3-.5 4.338l8.393 4.567c.41.183.889.434 1.263.525.925-2.004 3.516-13.06 4.002-15.356l1.03-5.293c-1.127 0-2.284-.65-2.893-1.235-1.212-1.165-1.323-2.374-1.323-3.857 0-1.962 2.21-4.101 4.489-4.101 3.224 0 5.466 3.65 4.12 6.548-.217.47-.455.585-.584 1.09.69.98 8.328 6.83 9.792 7.637.485-.754 1.237-1.262 1.768-1.98 3.829-5.17 6.46-10.233 9.385-15.982-1.76-.489-2.72-2.469-2.72-4.668 0-2.014 1.916-3.9 4.152-4.101ZM6.803 57.138c0 3.38 2.214 1.82 2.315 3.816.418 8.274-.265 5.937-1.581 7.413-.622.698-.598 1.84-.598 2.773 28.526 0 56.656-.425 85.139-.425 0-1.94-.373-2.482-1.657-3.51-.62-.498-.566-.723-.668-1.71-.072-.692-.189-1.375-.116-2.268.217-2.69-.238-2.407 1.047-3.72 1.23-1.257 1.573-3.076.85-3.076H6.803v.707Zm28.013 23.054H96.29c2.128 0 2.944-5.124.08-6.165-1.152-.42-11.436-.2-13.137-.2-6.007 0-11.602-.14-17.544-.14h-17.68c-5.923 0-11.541-.142-17.545-.142H12.783c-2.954 0-5.654-.123-8.706-.143-1.667-.011-2.351.307-2.952 1.456-.508.973-.744 2.586-.221 3.685.989 2.08 4.548 1.508 7.39 1.508 2.947 0 5.895.007 8.841 0 1.481-.004 2.627.141 4.216.141h13.465Z" clip-rule="evenodd"/>
</symbol><symbol fill="currentColor" viewBox="0 0 16 16" id="svg-megaphone" xmlns="http://www.w3.org/2000/svg">
  <path fill-opacity=".8" d="M8.978.03v8.253a.64.64 0 0 1-.652.653h-.978c-.06 0-.089.059-.089.089v6.916c.237 0 .474.06.741.06 4.415 0 8-3.592 8-8.015C16 3.919 12.948.506 8.978.03ZM8.8 12.38a.987.987 0 0 1-.978-.98c0-.564.474-.98.978-.98.563 0 .978.476.978.98.06.535-.415.98-.978.98Zm2.34 0a.987.987 0 0 1-.977-.98c0-.564.474-.98.978-.98.563 0 .977.476.977.98 0 .505-.385.98-.977.98Zm2.371 0a.987.987 0 0 1-.978-.98c0-.564.474-.98.978-.98.563 0 .978.476.978.98 0 .505-.415.98-.978.98Z"/>
  <path fill-opacity=".8" d="M8 0C3.585 0 0 3.592 0 8.015c0 3.888 2.696 7.065 6.311 7.807V8.609c0-.327.296-.594.593-.654h.977c.06 0 .09-.059.09-.089L8 0ZM6.46 6.59a.987.987 0 0 1-.979-.98c0-.564.475-.98.978-.98.563 0 .978.476.978.98 0 .505-.444.98-.978.98Z"/>
</symbol><symbol fill="currentColor" viewBox="0 0 14 14" id="svg-phone" xmlns="http://www.w3.org/2000/svg">
  <path d="M4.294 1.474c-.663-.169-1.358-.097-1.903.207a1.83 1.83 0 0 0-.963 1.594c-.03 1.149.237 2.69 1.293 4.498C3.764 9.56 4.915 10.63 5.87 11.267c.603.402 1.27.413 1.839.15.56-.258 1.016-.773 1.253-1.412a1.17 1.17 0 0 0-.077-.98L8.277 7.94a1.594 1.594 0 0 0-1.96-.709l-.425.163c-.206.078-.395.042-.502-.064a2.752 2.752 0 0 1-.735-1.351c-.037-.163.038-.356.218-.492l.383-.289a1.593 1.593 0 0 0 .423-2.064l-.62-1.08a1.23 1.23 0 0 0-.765-.58ZM2.066 3.292c.013-.493.263-.846.636-1.055.384-.215.908-.28 1.435-.146.156.04.29.14.37.28l.619 1.08a.956.956 0 0 1-.254 1.238l-.383.29c-.331.249-.561.677-.456 1.14a3.38 3.38 0 0 0 .91 1.665c.332.327.807.346 1.177.204l.424-.162a.957.957 0 0 1 1.177.425l.608 1.086c.076.136.089.3.035.446-.185.5-.533.876-.922 1.055-.38.175-.81.17-1.218-.102-.875-.583-1.958-1.582-2.953-3.284-.995-1.708-1.231-3.132-1.204-4.16h-.001ZM8.253 1.44a.319.319 0 0 0-.31.557l.245.136a5.419 5.419 0 0 1 2.76 4.196l.02.2a.32.32 0 0 0 .473.262.32.32 0 0 0 .162-.325l-.02-.2a6.053 6.053 0 0 0-3.086-4.69l-.244-.136Z"/>
  <path d="M7.505 3.148a.32.32 0 0 1 .438-.11l.079.048a4.144 4.144 0 0 1 1.956 2.87l.028.17a.317.317 0 0 1-.5.318.32.32 0 0 1-.129-.212l-.028-.17a3.504 3.504 0 0 0-1.655-2.43l-.079-.047a.319.319 0 0 1-.11-.437Z"/>
</symbol><symbol fill="currentColor" viewBox="0 0 14 13" id="svg-phone2" xmlns="http://www.w3.org/2000/svg">
  <path fill-rule="evenodd" d="M1.491 2.28C1.195 2.668 1 3.212 1 4c0 .471.053.772.12.954.064.174.123.195.124.196.01.004.065.022.205-.025.14-.046.312-.14.51-.282.395-.282.805-.689 1.125-1.04a12.508 12.508 0 0 0 .487-.566l.026-.034.007-.008.001-.002A.5.5 0 0 1 4 3h6a.5.5 0 0 1 .395.193l.001.002.007.008.027.034.105.13c.092.11.223.264.381.436.32.351.73.758 1.125 1.04.198.142.37.236.51.282.14.047.195.029.205.025.001 0 .06-.022.124-.196.067-.182.12-.483.12-.954 0-.788-.195-1.332-.492-1.72-.298-.393-.735-.674-1.298-.87C10.057 1.005 8.526 1 7 1c-1.526 0-3.057.006-4.21.41-.563.196-1 .477-1.299.87ZM9.761 4l.005.005c.1.12.241.286.412.473.336.368.801.836 1.281 1.179.24.17.505.327.776.417.269.09.597.131.915-.005.328-.14.542-.425.669-.77C13.943 4.963 14 4.53 14 4c0-.962-.242-1.73-.696-2.326-.451-.593-1.077-.968-1.764-1.208C10.21 0 8.515 0 7.053 0h-.106C5.485 0 3.79 0 2.46.466c-.687.24-1.313.615-1.764 1.208C.242 2.269 0 3.038 0 4c0 .529.057.962.181 1.3.127.344.34.628.669.769.318.136.646.095.916.005s.535-.246.775-.417c.48-.343.945-.811 1.281-1.18A13.501 13.501 0 0 0 4.238 4h5.524Zm-5.615.646A.5.5 0 0 1 4.5 4.5h5a.5.5 0 0 1 .354.146L9.5 5l.354-.354.001.002.003.003.008.008a2.643 2.643 0 0 1 .116.126c.075.085.18.209.305.371.25.324.578.801.905 1.424C11.849 7.825 12.5 9.655 12.5 12a.5.5 0 0 1-.5.5H2a.5.5 0 0 1-.5-.5c0-2.345.652-4.175 1.308-5.42.327-.623.656-1.1.905-1.424a6.989 6.989 0 0 1 .421-.497l.008-.008.003-.003.001-.002L4.5 5l-.354-.354Zm.575.854c-.057.067-.13.155-.215.266-.22.285-.516.714-.814 1.28A10.505 10.505 0 0 0 2.511 11.5h8.978a10.506 10.506 0 0 0-1.182-4.455 8.931 8.931 0 0 0-.813-1.28 7.168 7.168 0 0 0-.215-.265H4.72Zm.133-.147Z" clip-rule="evenodd"/>
  <path fill-rule="evenodd" d="M7 7a1.5 1.5 0 1 0 0 3 1.5 1.5 0 0 0 0-3ZM4.5 8.5a2.5 2.5 0 1 1 5 0 2.5 2.5 0 0 1-5 0Z" clip-rule="evenodd"/>
</symbol><symbol fill="currentColor" viewBox="0 0 14 14" id="svg-pin" xmlns="http://www.w3.org/2000/svg">
  <path fill-rule="evenodd" d="M4.526 3.364a3.49 3.49 0 0 1 4.948 0A3.534 3.534 0 0 1 10.5 5.856c0 1.612-.894 3.07-1.825 4.148A12.08 12.08 0 0 1 7 11.594a12.079 12.079 0 0 1-1.675-1.59C4.393 8.926 3.5 7.468 3.5 5.856c0-.935.37-1.831 1.026-2.492Zm2.306 8.833L7 11.958l.168.239a.292.292 0 0 1-.336 0Zm0 0L7 11.958l.168.239.001-.001.003-.002.009-.007.034-.024.125-.095a12.661 12.661 0 0 0 1.776-1.683c.965-1.116 1.967-2.709 1.967-4.53a4.12 4.12 0 0 0-1.195-2.902 4.072 4.072 0 0 0-5.776 0 4.118 4.118 0 0 0-1.196 2.903c0 1.82 1.003 3.413 1.967 4.53.536.617 1.131 1.18 1.776 1.682l.16.12.01.006.002.002.001.001Zm-.999-6.364a1.167 1.167 0 1 1 2.333-.068 1.167 1.167 0 0 1-2.333.068ZM7 4.083a1.75 1.75 0 1 0 0 3.5 1.75 1.75 0 0 0 0-3.5Z" clip-rule="evenodd"/>
</symbol><symbol fill="currentColor" viewBox="0 0 52 51" id="svg-play" xmlns="http://www.w3.org/2000/svg">
  <path d="M12.015 44.51c-.42 0-.82-.166-1.117-.463a1.587 1.587 0 0 1-.463-1.12V8.07a1.588 1.588 0 0 1 .776-1.364 1.576 1.576 0 0 1 1.565-.024L44.368 24.11a1.582 1.582 0 0 1 .597 2.193 1.58 1.58 0 0 1-.597.582L12.776 44.314a1.577 1.577 0 0 1-.76.198v-.002Zm1.58-33.762v29.5l26.734-14.75-26.735-14.75h.001Z"/>
</symbol><symbol fill="none" viewBox="0 0 28 28" id="svg-r-01" xmlns="http://www.w3.org/2000/svg">
  <path fill="#4A4849" d="m18.375 2.652-.574.63c-1.285 1.414-2.345 2.047-3.227 2.46-.882.414-1.623.537-2.351 1.095-.776.595-1.904 1.736-2.38 3.773-1.018.222-1.763.612-2.351 1.12-.581.503-1.019 1.074-1.558 1.696-.004.007.003.02 0 .027-.773.89-1.45 1.847-2.762 2.352l-.547.22v9.35h16.68c.957-.051 1.62-.714 2.023-1.367s.626-1.36.739-1.941c.29-1.48.82-5.743.82-5.743l.027-.081v-.082c-.027-.592-.27-1.094-.574-1.56l.984-2.925 1.56-2.352.437-.629-.575-.519L19.004 3.2l-.629-.547Zm.055 2.407 4.566 3.965-1.203 1.776-.082.083-.028.137-.792 2.351c-.414-.17-.84-.29-1.313-.273h-.055L14 13.125h-.875v3.39c-.123.955-.653 1.324-1.313 1.587-.218.089-.245.04-.437.082v-5.085c-.143-3.244 1.011-4.177 1.915-4.868.249-.191.98-.413 2.023-.902.871-.41 1.954-1.145 3.117-2.27Zm-8.75 7.52c-.003.198-.066.338-.055.546v7h.875s.936-.01 1.942-.41c1.004-.4 2.218-1.336 2.433-2.98v-1.86l4.703-.027h.027a1.455 1.455 0 0 1 1.532 1.367c-.004.014-.044.338-.055.41H17.5v1.75h3.363c-.092.677-.177 1.101-.273 1.75H17.5v1.75h2.817c-.104.424-.27.83-.493 1.203-.239.39-.445.537-.628.547H4.375V17.09c1.418-.753 2.3-1.835 2.87-2.488.592-.677.998-1.19 1.396-1.531.26-.222.666-.35 1.04-.493Z"/>
</symbol><symbol fill="none" viewBox="0 0 25 25" id="svg-r-02" xmlns="http://www.w3.org/2000/svg">
  <path fill="#4A4849" d="M9.375 1.563A5.48 5.48 0 0 0 3.906 7.03a5.49 5.49 0 0 0 2.417 4.542c-2.786 1.195-4.76 3.96-4.76 7.177h1.562a6.24 6.24 0 0 1 6.25-6.25 6.18 6.18 0 0 1 2.954.757 6.256 6.256 0 0 0-1.392 3.93c0 3.443 2.808 6.25 6.25 6.25 3.443 0 6.25-2.807 6.25-6.25 0-3.442-2.807-6.25-6.25-6.25a6.221 6.221 0 0 0-3.662 1.197 7.923 7.923 0 0 0-1.098-.562 5.487 5.487 0 0 0 2.417-4.54 5.48 5.48 0 0 0-5.469-5.47Zm0 1.562a3.895 3.895 0 0 1 3.906 3.906 3.895 3.895 0 0 1-3.906 3.907A3.895 3.895 0 0 1 5.469 7.03a3.895 3.895 0 0 1 3.906-3.906Zm7.813 9.375a4.677 4.677 0 0 1 4.687 4.688 4.677 4.677 0 0 1-4.688 4.687 4.677 4.677 0 0 1-4.687-4.688 4.677 4.677 0 0 1 4.688-4.687Zm2.563 2.563-2.564 2.564-1.782-1.782-1.123 1.123 2.344 2.344.561.536.562-.536 3.125-3.125-1.123-1.124Z"/>
</symbol><symbol fill="none" viewBox="0 0 25 25" id="svg-r-03" xmlns="http://www.w3.org/2000/svg">
  <path fill="#4A4849" d="M15 20.139a.695.695 0 0 0-.695-.695H10.14a.695.695 0 0 0 0 1.39h4.166a.694.694 0 0 0 .695-.695Zm.653-3.473h-4.167a.695.695 0 0 0 0 1.39h4.167a.694.694 0 0 0 0-1.39Zm-.375 5.556H11.11a.694.694 0 1 0 0 1.39h4.167a.695.695 0 0 0 0-1.39Zm7.43 0h-4.86a.694.694 0 1 0 0 1.39h4.86a.694.694 0 0 0 0-1.39Zm.695-2.778h-4.861a.694.694 0 0 0 0 1.39h4.86a.694.694 0 1 0 0-1.39Z"/>
  <path fill="#4A4849" d="M23.43 18.055a19.444 19.444 0 0 0-1.958-7.027 14.055 14.055 0 0 0-4.389-4.98l1.667-3.673a.695.695 0 0 0-.049-.695.694.694 0 0 0-.555-.291H6.806a.694.694 0 0 0-.632.986l1.701 3.687a14.118 14.118 0 0 0-4.361 4.966c-1.493 2.777-1.958 6.173-2.083 8.527a2.5 2.5 0 0 0 .694 1.882 2.632 2.632 0 0 0 1.903.743h4.305v-1.347h-4.36a1.166 1.166 0 0 1-1.087-.755 1.125 1.125 0 0 1-.066-.46c.097-1.813.479-5.264 1.916-7.952a12.5 12.5 0 0 1 4.347-4.722h.695c-.47.651-.904 1.328-1.299 2.028-.401.745-.743 1.52-1.02 2.32l.95.638c.282-.829.628-1.635 1.036-2.41.5-.9 1.069-1.762 1.7-2.576h.695c.466 1.114.795 2.28.98 3.472.15.886.225 1.783.222 2.681l1.097-.77a16.78 16.78 0 0 0-.222-2.084 17.242 17.242 0 0 0-.89-3.299h.543l.631-1.389H9.174L7.889 2.778h9.174l-1.736 3.798c.297.16.583.34.854.542a12.938 12.938 0 0 1 4.07 4.562c.973 2 1.578 4.16 1.784 6.375h1.396Z"/>
</symbol><symbol fill="none" viewBox="0 0 25 25" id="svg-r-04" xmlns="http://www.w3.org/2000/svg">
  <g clip-path="url(#bba)">
    <path fill="#4A4849" d="M25 7.661c0-.1-.012-.206-.037-.315a2.64 2.64 0 0 0-.085-.302 1.153 1.153 0 0 0-.134-.265 1.778 1.778 0 0 0-.428-.44 1.405 1.405 0 0 0-.268-.152 2.023 2.023 0 0 0-.293-.1 1.268 1.268 0 0 0-.317-.039h-2.662c.75-.756 1.123-1.671 1.123-2.747a3.5 3.5 0 0 0-.268-1.386c-.18-.42-.5-.781-.965-1.083-.463-.303-1.037-.454-1.72-.454-.277 0-.558.03-.843.088a3.893 3.893 0 0 0-.818.265c-.26.117-.517.248-.769.39a5.907 5.907 0 0 0-.732.492c-.236.185-.464.374-.684.567-.22.193-.431.403-.635.63-.203.227-.394.445-.573.655-.18.21-.354.429-.525.655-.171.227-.322.433-.452.618s-.252.378-.366.58a17.132 17.132 0 0 0-1.111-1.55 16.675 16.675 0 0 0-1.453-1.563A7.466 7.466 0 0 0 8.105.882C7.422.546 6.746.378 6.08.378c-.683 0-1.257.151-1.721.454-.464.302-.785.663-.964 1.083-.18.42-.269.882-.269 1.386 0 1.076.382 2 1.147 2.772h-2.71c-.439 0-.81.156-1.11.467C.15 6.85 0 7.233 0 7.686V12.5h1.587v10.509c0 .437.15.815.452 1.134.3.32.671.479 1.11.479h18.726c.44 0 .81-.16 1.11-.479.302-.32.453-.697.453-1.134v-10.51H25V7.662Zm-6.055-5.67c.928 0 1.392.437 1.392 1.31 0 .572-.187 1.071-.562 1.5a3.316 3.316 0 0 1-1.403.945 5.27 5.27 0 0 1-1.795.302H13.94a15.45 15.45 0 0 1 2.173-2.634c.44-.428.908-.772 1.404-1.033.497-.26.973-.39 1.428-.39Zm-12.866 0c.879 0 1.77.411 2.673 1.235a14.963 14.963 0 0 1 2.405 2.822H8.521c-.993 0-1.88-.252-2.662-.756-.78-.504-1.171-1.176-1.171-2.016 0-.806.415-1.226 1.245-1.26a.448.448 0 0 1 .146-.025Zm17.358 8.896H13.281V7.661h10.156v3.226ZM1.563 7.661H11.72v3.226H1.563V7.661ZM3.15 12.5h8.57v10.509H3.15v-10.51Zm18.726 10.509h-8.594v-10.51h8.594v10.51Z"/>
  </g>
  <defs>
    <clipPath id="bba">
      <path fill="#fff" d="M0 0h25v25H0z"/>
    </clipPath>
  </defs>
</symbol><symbol fill="none" viewBox="0 0 25 25" id="svg-r-05" xmlns="http://www.w3.org/2000/svg">
  <path fill="#4A4849" d="M22.396 4.167h-2.257v1.388h2.083v15.278H2.778V5.555H4.86V4.167H2.604A1.236 1.236 0 0 0 1.39 5.423v15.542a1.236 1.236 0 0 0 1.215 1.257h19.792a1.237 1.237 0 0 0 1.215-1.257V5.423a1.237 1.237 0 0 0-1.215-1.256Z"/>
  <path fill="#4A4849" d="M5.556 9.722h1.389v1.39h-1.39v-1.39Zm4.166 0h1.39v1.39h-1.39v-1.39Zm4.167 0h1.389v1.39h-1.39v-1.39Zm4.167 0h1.389v1.39h-1.39v-1.39Zm-12.5 3.472h1.389v1.39h-1.39v-1.39Zm4.166 0h1.39v1.39h-1.39v-1.39Zm4.167 0h1.389v1.39h-1.39v-1.39Zm4.167 0h1.389v1.39h-1.39v-1.39Zm-12.5 3.472h1.389v1.39h-1.39v-1.39Zm4.166 0h1.39v1.39h-1.39v-1.39Zm4.167 0h1.389v1.39h-1.39v-1.39Zm4.167 0h1.389v1.39h-1.39v-1.39ZM6.944 6.944a.694.694 0 0 0 .695-.694V2.083a.694.694 0 0 0-1.389 0V6.25a.694.694 0 0 0 .694.694Zm11.112 0a.694.694 0 0 0 .694-.694V2.083a.694.694 0 1 0-1.389 0V6.25a.695.695 0 0 0 .695.694ZM9.028 4.167h6.944v1.388H9.028V4.167Z"/>
</symbol><symbol fill="none" viewBox="0 0 25 25" id="svg-r-06" xmlns="http://www.w3.org/2000/svg">
  <path stroke="#4A4849" stroke-linecap="round" stroke-linejoin="round" stroke-width="1.5" d="m6.25 22.917 5.567-14.844m6.933 14.844L13.184 8.073m-.684.261a2.083 2.083 0 1 0 0-4.167 2.083 2.083 0 0 0 0 4.167Zm7.068 8.854A12.962 12.962 0 0 1 12.5 19.27c-2.605 0-5.032-.766-7.067-2.084M12.5 4.167V2.084"/>
</symbol><symbol fill="none" viewBox="0 0 25 25" id="svg-r-07" xmlns="http://www.w3.org/2000/svg">
  <path fill="#4A4849" d="M21.528 6.944V2.778a1.389 1.389 0 0 0-1.39-1.39H4.168a1.389 1.389 0 0 0-1.39 1.39v4.166a1.389 1.389 0 0 0 1.39 1.39H20.14a1.389 1.389 0 0 0 1.389-1.39ZM4.167 2.778h15.972v4.166H4.167V2.778Z"/>
  <path fill="#4A4849" d="M22.917 4.167h-.695v4.368l-9.236 2.95a.695.695 0 0 0-.486.695v1.014h-1.389v9.722a1.39 1.39 0 0 0 1.39 1.39h1.388a1.389 1.389 0 0 0 1.389-1.39v-9.722h-1.389v-.507l9.236-2.965a.694.694 0 0 0 .486-.694V4.86a.694.694 0 0 0-.694-.694Zm-9.028 18.75H12.5v-8.334h1.39v8.333Z"/>
</symbol><symbol fill="none" viewBox="0 0 30 30" id="svg-r-08" xmlns="http://www.w3.org/2000/svg">
  <path fill="#4A4849" d="M15 4.5a9 9 0 1 1 0 18 9 9 0 0 1 0-18ZM15 21c.369 0 1.105-.337 1.84-1.808.368-.735.672-1.65.878-2.692h-5.436c.204 1.043.51 1.957.877 2.692C13.894 20.662 14.631 21 15 21Zm-2.933-6h5.865c.092-.998.092-2.002 0-3h-5.865a16.41 16.41 0 0 0 0 3Zm5.804 5.43a7.527 7.527 0 0 0 4.005-3.93h-2.633c-.273 1.55-.753 2.902-1.372 3.93ZM19.438 15h2.912c.2-.99.2-2.01 0-3h-2.912c.084.998.084 2.002 0 3Zm-1.567-8.43c.62 1.027 1.1 2.382 1.372 3.93h2.633a7.527 7.527 0 0 0-4.005-3.93Zm-1.03 1.237C16.104 6.338 15.368 6 15 6c-.37 0-1.106.338-1.84 1.808a10.69 10.69 0 0 0-.878 2.692h5.436a10.7 10.7 0 0 0-.878-2.692Zm-4.71-1.239a7.527 7.527 0 0 0-4.01 3.932h2.633c.273-1.548.753-2.902 1.372-3.93l.003-.002ZM7.5 13.5c0 .513.05 1.015.15 1.5h2.911a17.953 17.953 0 0 1 0-3H7.65c-.1.485-.15.987-.15 1.5Zm.624 3a7.527 7.527 0 0 0 4.005 3.93c-.62-1.027-1.1-2.38-1.373-3.93H8.124Zm-2.874 3h1.132a10.4 10.4 0 0 0 1.27 1.5H5.835L4.71 25.5h20.58L24.165 21h-1.817c.468-.459.894-.96 1.27-1.5h1.132a.75.75 0 0 1 .727.569l1.5 6a.749.749 0 0 1-.727.931H3.75a.75.75 0 0 1-.728-.931l1.5-6a.75.75 0 0 1 .728-.569Z"/>
</symbol><symbol fill="none" viewBox="0 0 145 25" id="svg-rating" xmlns="http://www.w3.org/2000/svg">
  <path fill="#F2C94C" d="M11.549 2.927c.3-.921 1.603-.921 1.902 0l1.63 5.02a1 1 0 0 0 .952.69h5.277c.97 0 1.372 1.24.588 1.81l-4.27 3.101a1 1 0 0 0-.363 1.118l1.631 5.02c.3.921-.755 1.687-1.539 1.118l-4.27-3.102a1 1 0 0 0-1.175 0l-4.27 3.102c-.783.57-1.838-.197-1.538-1.118l1.63-5.02a1 1 0 0 0-.363-1.118l-4.27-3.102c-.783-.57-.38-1.809.588-1.809h5.278a1 1 0 0 0 .951-.69l1.63-5.02Zm30 0c.3-.921 1.603-.921 1.902 0l1.63 5.02a1 1 0 0 0 .952.69h5.277c.97 0 1.372 1.24.588 1.81l-4.27 3.101a1 1 0 0 0-.363 1.118l1.631 5.02c.3.921-.755 1.687-1.539 1.118l-4.27-3.102a1 1 0 0 0-1.175 0l-4.27 3.102c-.783.57-1.838-.197-1.538-1.118l1.63-5.02a1 1 0 0 0-.363-1.118l-4.27-3.102c-.783-.57-.38-1.809.589-1.809h5.277a1 1 0 0 0 .951-.69l1.63-5.02Zm30 0c.3-.921 1.603-.921 1.902 0l1.63 5.02a1 1 0 0 0 .952.69h5.278c.968 0 1.371 1.24.587 1.81l-4.27 3.101a1 1 0 0 0-.363 1.118l1.631 5.02c.3.921-.755 1.687-1.539 1.118l-4.27-3.102a1 1 0 0 0-1.175 0l-4.27 3.102c-.783.57-1.838-.197-1.538-1.118l1.63-5.02a1 1 0 0 0-.363-1.118l-4.27-3.102c-.783-.57-.38-1.809.589-1.809h5.277a1 1 0 0 0 .951-.69l1.63-5.02Zm30 0c.299-.921 1.603-.921 1.902 0l1.631 5.02a1 1 0 0 0 .951.69h5.278c.968 0 1.371 1.24.587 1.81l-4.269 3.101a1 1 0 0 0-.364 1.118l1.631 5.02c.3.921-.755 1.687-1.539 1.118l-4.269-3.102a1 1 0 0 0-1.176 0l-4.27 3.102c-.783.57-1.838-.197-1.538-1.118l1.63-5.02a1 1 0 0 0-.363-1.118l-4.27-3.102c-.783-.57-.38-1.809.588-1.809h5.278a1 1 0 0 0 .951-.69l1.631-5.02Zm30 0c.299-.921 1.603-.921 1.902 0l1.631 5.02a1 1 0 0 0 .951.69h5.278c.968 0 1.371 1.24.587 1.81l-4.269 3.101a1 1 0 0 0-.364 1.118l1.631 5.02c.3.921-.755 1.687-1.539 1.118l-4.269-3.102a1 1 0 0 0-1.176 0l-4.269 3.102c-.784.57-1.839-.197-1.539-1.118l1.631-5.02a1 1 0 0 0-.364-1.118l-4.269-3.102c-.784-.57-.381-1.809.587-1.809h5.278a1 1 0 0 0 .951-.69l1.631-5.02Z"/>
</symbol><symbol fill="none" viewBox="0 0 22 18" id="svg-tg" xmlns="http://www.w3.org/2000/svg">
  <path stroke="#FDFDFD" stroke-linecap="round" stroke-linejoin="round" stroke-width="1.5" d="M21 1 1 7.857l6.923 2.286M21 1 7.923 10.143M21 1l-6.154 16-6.923-6.857"/>
</symbol><symbol fill="currentColor" viewBox="0 0 20 20" id="svg-vk" xmlns="http://www.w3.org/2000/svg">
  <path fill-rule="evenodd" d="M18.84 5.329c.128-.422 0-.732-.614-.732H16.2c-.516 0-.754.268-.883.564 0 0-1.03 2.467-2.49 4.07-.472.464-.687.61-.945.61-.13 0-.322-.146-.322-.57V5.33c0-.506-.143-.732-.572-.732H7.802c-.322 0-.516.235-.516.458 0 .48.73.59.805 1.94v2.932c0 .643-.118.76-.376.76-.687 0-2.358-2.48-3.35-5.316-.192-.552-.387-.774-.905-.774H1.433c-.58 0-.695.268-.695.564 0 .526.687 3.14 3.2 6.6 1.675 2.363 4.033 3.643 6.18 3.643 1.289 0 1.448-.284 1.448-.774v-1.786c0-.568.122-.682.53-.682.302 0 .817.148 2.02 1.287 1.373 1.35 1.6 1.955 2.373 1.955h2.026c.58 0 .87-.284.703-.846-.184-.56-.84-1.37-1.71-2.333-.473-.548-1.181-1.138-1.396-1.434-.3-.38-.215-.548 0-.885 0 0 2.47-3.417 2.727-4.577v-.001Z" clip-rule="evenodd"/>
</symbol></svg>