<svg xmlns="http://www.w3.org/2000/svg" width="328" height="988" fill="none" viewBox="0 0 328 988">
  <path stroke="url(#a)" stroke-width="2" d="m327 60.559-9.144-12.512a85.002 85.002 0 0 0-22.094-20.979l-1.553-1.016a81.816 81.816 0 0 0-82.157-4.318 81.812 81.812 0 0 0-16.524 11.224l-.769.673A90.122 90.122 0 0 0 164 101.44V495 111.318c0-31.739 12.16-61.405 32.451-79.168 4.419-3.869 9.15-7.104 14.108-9.65l3.057-1.569c25.932-13.313 55.019-11.61 79.919 4.68 10.047 6.573 19.142 15.35 26.882 25.94L327 60.56Z"/>
  <path stroke="url(#b)" stroke-width="2" d="m1 927.441 9.144 12.512a84.992 84.992 0 0 0 22.094 20.979l1.553 1.016a81.814 81.814 0 0 0 82.157 4.318 81.806 81.806 0 0 0 16.524-11.224l.769-.673A90.122 90.122 0 0 0 164 886.561V493v383.682c0 31.738-12.16 61.405-32.451 79.168-4.419 3.869-9.15 7.104-14.108 9.65l-3.057 1.569c-25.932 13.313-55.019 11.61-79.919-4.68-10.047-6.573-19.142-15.349-26.882-25.94L1 927.441Z"/>
  <defs>
    <linearGradient id="a" x1="209.193" x2="140.959" y1="76.356" y2="454.565" gradientUnits="userSpaceOnUse">
      <stop stop-color="#FDD069" stop-opacity=".2"/>
      <stop offset="1" stop-color="#FDD069"/>
    </linearGradient>
    <linearGradient id="b" x1="118.807" x2="187.041" y1="911.644" y2="533.435" gradientUnits="userSpaceOnUse">
      <stop stop-color="#FDD069" stop-opacity=".2"/>
      <stop offset="1" stop-color="#FDD069"/>
    </linearGradient>
  </defs>
</svg>
