<svg xmlns="http://www.w3.org/2000/svg" width="1105" height="328" fill="none" viewBox="0 0 1105 328">
  <path stroke="url(#a)" stroke-width="2" d="m1037.34 327 15.61-10.211a80.841 80.841 0 0 0 21.03-19.97l1.85-2.531c17.74-24.267 19.53-56.701 4.58-82.774a76.457 76.457 0 0 0-11.61-15.349l-2.11-2.156A99.765 99.765 0 0 0 995.362 164H551.941 989.36c35.46 0 59.43 11.709 79.28 32 4.32 4.42 8.38 9.601 11.22 14.559l1.75 3.057c14.88 25.932 12.98 55.019-5.23 79.919-7.34 10.047-17.14 19.142-28.98 26.882L1037.34 327Z"/>
  <path stroke="url(#b)" stroke-width="2" d="M67.662 1 52.05 11.211a80.929 80.929 0 0 0-21.036 19.97l-1.85 2.53c-17.737 24.268-19.53 56.702-4.573 82.775A76.12 76.12 0 0 0 36.2 131.835l2.11 2.156A99.77 99.77 0 0 0 109.638 164h443.421H115.64c-35.462 0-59.431-11.709-79.278-32-4.323-4.42-8.379-9.601-11.223-14.559l-1.753-3.057c-14.875-25.932-12.971-55.019 5.23-79.919 7.343-10.047 17.149-19.142 28.982-26.882L67.662 1Z"/>
  <defs>
    <linearGradient id="a" x1="1019.69" x2="600.401" y1="209.193" y2="124.676" gradientUnits="userSpaceOnUse">
      <stop stop-color="#FDD069" stop-opacity=".2"/>
      <stop offset="1" stop-color="#FDD069"/>
    </linearGradient>
    <linearGradient id="b" x1="85.312" x2="504.599" y1="118.807" y2="203.324" gradientUnits="userSpaceOnUse">
      <stop stop-color="#FDD069" stop-opacity=".2"/>
      <stop offset="1" stop-color="#FDD069"/>
    </linearGradient>
  </defs>
</svg>
