<svg xmlns="http://www.w3.org/2000/svg" width="1193" height="328" fill="none" viewBox="0 0 1193 328">
  <path stroke="url(#a)" stroke-width="2" d="M73.16 1 55.084 11.935a78.45 78.45 0 0 0-20.942 18.48l-2.563 3.242c-18.952 23.98-20.845 57.263-4.736 83.237a72.563 72.563 0 0 0 11.81 14.479l3.328 3.146A107.833 107.833 0 0 0 116.069 164H598 134.481c-38.343 0-74.182-12.16-95.64-32.451-4.675-4.419-8.584-9.15-11.659-14.108l-1.895-3.057C9.203 88.452 11.26 59.365 30.94 34.465c7.94-10.047 18.542-19.142 31.337-26.882L73.16 1Z"/>
  <path stroke="url(#b)" stroke-width="2" d="m1119.84 327 18.08-10.935a78.437 78.437 0 0 0 20.94-18.479l2.56-3.243c18.95-23.979 20.85-57.263 4.74-83.237a72.837 72.837 0 0 0-11.81-14.479l-3.33-3.146A107.828 107.828 0 0 0 1076.93 164H595h463.52c38.34 0 74.18 12.16 95.64 32.451 4.67 4.419 8.58 9.15 11.66 14.108l1.89 3.057c16.09 25.932 14.03 55.019-5.65 79.919-7.94 10.047-18.54 19.142-31.34 26.882L1119.84 327Z"/>
  <defs>
    <linearGradient id="a" x1="92.245" x2="542.628" y1="118.807" y2="216.969" gradientUnits="userSpaceOnUse">
      <stop stop-color="#FDD069" stop-opacity=".2"/>
      <stop offset="1" stop-color="#FDD069"/>
    </linearGradient>
    <linearGradient id="b" x1="1100.76" x2="650.372" y1="209.193" y2="111.031" gradientUnits="userSpaceOnUse">
      <stop stop-color="#FDD069" stop-opacity=".2"/>
      <stop offset="1" stop-color="#FDD069"/>
    </linearGradient>
  </defs>
</svg>
