<svg xmlns="http://www.w3.org/2000/svg" width="91" height="54" fill="none" viewBox="0 0 91 54">
  <path fill="#FDFDFD" d="M30.389 22.954h1.265c.493 0 .9-.085 1.222-.255.328-.17.571-.404.73-.703.158-.299.237-.641.237-1.028 0-.404-.074-.75-.22-1.037a1.483 1.483 0 0 0-.65-.677c-.288-.158-.654-.237-1.099-.237-.375 0-.715.076-1.02.228a1.732 1.732 0 0 0-.711.633c-.176.27-.264.592-.264.967h-2.127c0-.68.179-1.284.536-1.81a3.637 3.637 0 0 1 1.46-1.24c.62-.305 1.317-.457 2.09-.457.827 0 1.548.138 2.163.413.621.27 1.105.674 1.45 1.213.346.539.519 1.207.519 2.004 0 .363-.085.732-.255 1.107-.17.375-.422.718-.756 1.029a3.95 3.95 0 0 1-1.248.747c-.498.187-1.075.28-1.731.28h-1.591v-1.177Zm0 1.652v-1.16h1.59c.75 0 1.39.088 1.916.264.534.176.967.419 1.301.73.334.304.577.653.73 1.045.158.393.237.809.237 1.248 0 .598-.108 1.131-.325 1.6a3.249 3.249 0 0 1-.905 1.178 4.038 4.038 0 0 1-1.38.73 5.655 5.655 0 0 1-1.705.245 5.448 5.448 0 0 1-1.582-.228 4.316 4.316 0 0 1-1.354-.677 3.358 3.358 0 0 1-.95-1.134c-.228-.457-.342-.984-.342-1.582h2.118c0 .381.088.718.264 1.011.182.287.434.513.756.677.328.164.703.246 1.125.246.445 0 .829-.08 1.151-.238a1.65 1.65 0 0 0 .739-.703c.175-.31.263-.685.263-1.125 0-.498-.096-.902-.29-1.213a1.706 1.706 0 0 0-.826-.685c-.358-.152-.78-.229-1.266-.229H30.39Zm14.141-7.171h.264v1.731h-.15c-.755 0-1.409.117-1.96.352a3.623 3.623 0 0 0-1.344.966 4.1 4.1 0 0 0-.791 1.442 5.814 5.814 0 0 0-.255 1.74v2.013c0 .51.056.96.167 1.353.111.387.267.712.466.976.205.258.44.454.703.589.264.134.548.202.852.202a1.9 1.9 0 0 0 .862-.194 1.99 1.99 0 0 0 .659-.553c.182-.235.32-.513.413-.835.094-.322.14-.674.14-1.055a3.57 3.57 0 0 0-.14-1.02 2.55 2.55 0 0 0-.395-.843 1.817 1.817 0 0 0-.66-.572 1.843 1.843 0 0 0-.896-.21c-.422 0-.806.1-1.152.298-.34.2-.615.46-.826.783a2.014 2.014 0 0 0-.334 1.01l-.808-.263a4.535 4.535 0 0 1 .36-1.468c.2-.434.46-.803.782-1.107a3.287 3.287 0 0 1 1.116-.695 3.895 3.895 0 0 1 1.407-.246c.62 0 1.16.117 1.617.352a3.21 3.21 0 0 1 1.134.958c.304.398.53.855.676 1.37.153.51.229 1.044.229 1.6 0 .616-.094 1.19-.281 1.723a4.05 4.05 0 0 1-.826 1.389 3.708 3.708 0 0 1-1.31.931c-.51.223-1.09.334-1.74.334-.686 0-1.298-.131-1.837-.395A4.036 4.036 0 0 1 39.31 29a4.971 4.971 0 0 1-.844-1.6 6.244 6.244 0 0 1-.29-1.916v-.879c0-.972.123-1.89.369-2.75a6.728 6.728 0 0 1 1.134-2.295 5.309 5.309 0 0 1 1.977-1.555c.803-.381 1.761-.571 2.874-.571Zm12.173 5.405v2.092c0 1.002-.1 1.857-.299 2.566-.193.703-.474 1.274-.844 1.714a3.31 3.31 0 0 1-1.327.967 4.556 4.556 0 0 1-1.713.307c-.504 0-.973-.064-1.407-.193a3.435 3.435 0 0 1-1.16-.607 3.627 3.627 0 0 1-.888-1.063c-.24-.44-.427-.964-.562-1.573-.129-.61-.193-1.316-.193-2.118V22.84c0-1.008.1-1.858.298-2.549.2-.697.484-1.263.853-1.696.37-.44.809-.76 1.318-.958.516-.2 1.09-.3 1.723-.3.51 0 .978.065 1.406.194.434.123.82.32 1.16.59.346.269.639.62.88 1.054.245.427.433.946.562 1.555.129.604.193 1.307.193 2.11Zm-2.118 2.39v-2.707c0-.51-.03-.958-.088-1.344a3.985 3.985 0 0 0-.264-.993 1.98 1.98 0 0 0-.421-.668 1.485 1.485 0 0 0-.58-.378 2.049 2.049 0 0 0-.73-.123 1.94 1.94 0 0 0-.879.193 1.58 1.58 0 0 0-.65.598c-.176.275-.31.638-.405 1.09a8.623 8.623 0 0 0-.131 1.625v2.707c0 .516.029.97.087 1.363.059.392.147.73.264 1.01.117.276.258.504.422.686.17.176.363.305.58.387.223.082.466.123.73.123.333 0 .63-.065.887-.194.258-.128.475-.334.65-.615.176-.287.308-.659.396-1.116a8.835 8.835 0 0 0 .132-1.643Zm4.175-5.545c0-.428.105-.82.316-1.178a2.4 2.4 0 0 1 .844-.853 2.197 2.197 0 0 1 1.16-.325c.422 0 .806.108 1.151.325.346.211.621.495.827.853.21.357.316.75.316 1.178 0 .427-.105.82-.316 1.177a2.3 2.3 0 0 1-.827.835 2.21 2.21 0 0 1-1.15.308c-.417 0-.804-.103-1.161-.308a2.351 2.351 0 0 1-.844-.835 2.274 2.274 0 0 1-.316-1.177Zm1.186 0c0 .316.112.583.334.8.223.21.49.316.8.316a1.084 1.084 0 0 0 1.099-1.116c0-.329-.106-.601-.317-.818a1.048 1.048 0 0 0-.782-.325c-.31 0-.577.108-.8.325-.222.217-.334.49-.334.818Z"/>
  <path fill="#FDD069" d="m51.841 38.251.118.72-.118-.72ZM30.713 8.021c-.473.33-.48.795-.013 1.04l7.595 3.992c.466.245 1.227.176 1.7-.154.474-.33.48-.796.014-1.04l-6.752-3.55 6.855-4.78c.473-.33.479-.795.013-1.04-.466-.245-1.228-.176-1.7.154L30.712 8.02ZM12.623 23.4c-1.018-.295-1.018-.295-1.019-.294l-.001.001a21.255 21.255 0 0 0-2.74 3.836c-1.222 2.209-2.24 5.142-1.149 7.798 1.114 2.711 4.376 5.017 11.297 6.002 6.85.974 17.304.661 32.948-1.773l-.236-1.44c-15.487 2.41-25.503 2.66-31.843 1.76-6.27-.892-8.92-2.904-9.829-5.116-.93-2.267-.08-4.862 1.075-6.951a19.784 19.784 0 0 1 2.46-3.47l.042-.045.01-.01.001-.002-1.017-.295Zm39.336 15.57c15.648-2.434 25.3-5.817 30.053-9.623 2.403-1.925 3.531-3.942 3.532-5.938.002-1.982-1.106-3.894-3.031-5.652C78.67 14.252 71.46 11.25 62.51 9.373c-8.969-1.88-19.786-2.655-30.944-1.645L31.548 9.2c10.758-.974 21.217-.227 29.889 1.591 8.69 1.823 15.486 4.7 19.02 7.926 1.762 1.608 2.683 3.276 2.682 4.92 0 1.632-.908 3.29-2.945 4.92-4.13 3.308-12.987 6.565-28.471 8.974l.236 1.44Z"/>
</svg>
