<svg xmlns="http://www.w3.org/2000/svg" width="32" height="32" fill="none" viewBox="0 0 32 32">
  <path fill="#4A4849" d="M14.825 3.006c-4.081.363-7.812 2.475-10.15 5.757-.475.656-.475.737.031 1.437 2.644 3.681 7.088 5.881 11.538 5.719 1.362-.05 2.256-.325 3.306-1.025 3.275-2.175 3.919-6.9 1.331-9.725-.181-.194-.3-.356-.262-.356.137 0 1.343.568 1.931.912 1.269.744 2.587 1.875 3.494 2.994.606.75.6.694.168 1.262-.5.663-1.618 1.775-2.318 2.3-.319.238-3.275 1.969-4.933 2.57-.088.218-2.248.895-1.992 1.014 2.133 0 3.912-.927 6.993-2.421 2.382-1.397 3.726-3.388 3.726-3.994 0-.125-.12-.35-.363-.687-2.106-2.95-5.394-5-8.981-5.607a13.697 13.697 0 0 0-3.519-.15ZM17.238 4.1c.98.2 1.868.681 2.575 1.394 1.524 1.525 2.062 3.694 1.412 5.619-.65 1.906-2.219 3.337-4.094 3.737-.231.05-.775.088-1.237.088-3.375.006-6.638-1.363-9.05-3.782a12.942 12.942 0 0 1-1.057-1.175c-.43-.568-.437-.512.17-1.268.9-1.113 2.205-2.225 3.524-3.007.556-.325 1.763-.893 1.9-.893.038 0-.062.15-.225.325-1.219 1.356-1.793 3.175-1.6 5.05.229 2.21 1.667 4.203 2.092 4.203 2.602.421 1.407 1.148-.257-1.711-.268-.46-.553-1.205-.76-2.18-.643-3 1.213-5.719 4.375-6.406.55-.119 1.644-.113 2.232.006Z"/>
  <path fill="#4A4849" d="M15.594 6.812c-1.363.219-2.238 1.256-2.231 2.663.006.587.13 1.025.437 1.5.862 1.33 2.931 1.537 4.075.393 1.175-1.175.962-3.287-.425-4.168-.494-.32-1.269-.482-1.856-.388Zm1.137 1.163c.575.28.919.837.913 1.493-.006.457-.119.744-.438 1.094-.662.744-1.75.744-2.412 0-.319-.35-.431-.637-.438-1.094-.006-.587.338-1.212.794-1.45.581-.3 1.031-.318 1.581-.043Zm-7.887 7.969c-.069.037-1.413 1.356-2.981 2.925L3 21.719V20.7c0-1 0-1.019-.156-1.169a.46.46 0 0 0-.688 0l-.156.15v3.45l.156.15.15.157h3.5l.125-.163a.603.603 0 0 0 .131-.313c0-.45-.2-.524-1.387-.524h-.956l2.925-2.925c2.662-2.663 2.918-2.938 2.918-3.126a.489.489 0 0 0-.718-.443Zm13.875.006c-.194.106-.282.244-.282.45 0 .169.35.544 2.92 3.113l2.924 2.924h-.956c-1.206 0-1.387.075-1.387.557 0 .1.062.231.143.306.144.137.188.137 1.881.137h1.732l.15-.156.156-.15v-3.45l-.156-.15a.46.46 0 0 0-.688 0C29 19.681 29 19.7 29 20.7v1.019l-2.856-2.85c-1.575-1.575-2.925-2.888-3-2.925-.169-.088-.263-.088-.425.006Zm-6.944 1.562a.484.484 0 0 0-.206.213c-.05.112-.069 1.544-.069 4.881v4.731l-.738-.73c-.75-.738-.868-.807-1.168-.695-.156.063-.3.388-.25.582.043.187 2.15 2.337 2.431 2.487a.515.515 0 0 0 .344.05c.187-.044 2.337-2.15 2.487-2.431a.495.495 0 0 0-.431-.725c-.163 0-.306.106-.938.731l-.737.731V17.8l-.181-.18c-.194-.188-.325-.22-.544-.107Z"/>
</svg>
