<svg xmlns="http://www.w3.org/2000/svg" width="32" height="32" fill="none" viewBox="0 0 32 32">
  <path fill="#4A4849" d="M3.063.144c-.75.225-1.226.512-1.82 1.106-.43.431-.587.631-.793 1.062C-.038 3.306 0 2.17 0 15.97c0 12.318 0 12.38.131 12.843.213.77.513 1.275 1.15 1.907.457.462.663.618 1.094.83.994.488-.225.45 14.9.45h13.563l.262-.13c.306-.144.688-.538.813-.844.075-.175.087-1.919.087-11.288V8.657l-.15-.32a1.707 1.707 0 0 0-.388-.512c-.4-.331-.668-.388-1.893-.388h-1.094l1.631-1.643c1.181-1.182 1.675-1.713 1.763-1.92.156-.35.175-1.024.037-1.362-.131-.306-2.037-2.225-2.381-2.387-.35-.169-1.019-.169-1.4.006-.212.094-1.131.975-3.875 3.713l-3.594 3.593H6.937V4.3c0-3.038-.006-3.144-.13-3.4-.145-.306-.538-.688-.845-.813-.156-.062-.5-.087-1.318-.08-.963 0-1.175.018-1.582.137Zm2.606 1.118.144.132v21.738l-.157.15c-.143.15-.181.155-.962.155a8.99 8.99 0 0 0-1.3.094c-.607.113-1.488.538-1.938.938l-.331.293V14.27c0-11.494-.025-10.732.356-11.488.213-.406.813-1.031 1.219-1.25.606-.331.938-.4 1.919-.4.844-.006.912 0 1.05.131Zm24.281.782c1.144 1.143 1.137 1.125.488 1.793l-.432.444-1.143-1.144-1.144-1.143.444-.432c.668-.65.65-.656 1.787.482Zm-1.137 3.425-.375.375L27.3 4.706l-1.144-1.144.375-.375.375-.375 1.138 1.138 1.143 1.144-.375.375ZM24.75 9.53l-2.875 2.875-1.137-1.144-1.144-1.137 2.875-2.875 2.875-2.875 1.137 1.137 1.144 1.144L24.75 9.53Zm-5.925-.262c-.919.937-.962 1.037-1.137 2.568-.075.65-.12 1.25-.094 1.332l.031.143H8.306l-.15.157c-.194.187-.212.575-.037.787.112.144.156.15 1.062.169l.944.019v7.293c.006 5.638.019 7.32.081 7.394.244.313.719.3.919-.025.119-.194.125-.344.125-3.969v-3.762h5.812v4.181l-2 .019c-1.974.019-2 .019-2.137.162-.213.207-.194.607.031.8l.175.15h5.563c4.556 0 5.6-.012 5.762-.087.238-.1.525-.413.594-.65.025-.094.044-2.056.044-4.369v-4.194l-.15-.162a.595.595 0 0 0-.8-.025C24 17.33 24 17.35 24 18.794v1.456H11.25v-5.813h3.931c3.575 0 4.031-.012 5.044-.13.856-.1 1.2-.163 1.462-.282.294-.131.744-.55 3-2.806l2.657-2.657h3.225l.15.157.156.15v21.718l-.137.144-.132.144H17.22c-14.682 0-13.613.025-14.375-.363-.425-.212-1.1-.88-1.331-1.312-.838-1.581-.282-3.413 1.287-4.25.538-.288 1.044-.388 1.987-.388 1.194 0 1.644-.2 1.988-.887l.162-.325V8.562h12.588l-.7.707Zm1.113 2.825c.53.53.95.975.937.987-.063.05-1.875.225-1.969.194-.194-.075-.212-.238-.106-1.2.056-.525.119-.95.137-.95.02 0 .47.437 1 .969ZM24 23.469v2.093h-5.813v-4.187H24v2.094Z"/>
</svg>
