<svg xmlns="http://www.w3.org/2000/svg" width="32" height="32" fill="none" viewBox="0 0 32 32">
  <path fill="#4A4849" d="M5.1 5.088c-.294.112-.519.268-.675.481-.2.269-4.369 9.769-4.406 10.038-.057.425.087.818.418 1.143.238.232.488.369 1.375.75.9.388 1.138.463 1.4.456.6-.006 1.057-.33 1.325-.937.082-.181.163-.331.175-.331.113 0 1.15.518 1.232.612.05.069.131.288.175.488.043.206.118.543.168.756l.094.381-.331.638c-.331.631-.331.637-.331 1.206 0 .631.093.888.475 1.319.256.3.875.6 1.225.6h.268v.362c0 .2.044.5.1.663.138.4.625.925 1.038 1.1.412.181 1.087.206 1.463.05l.25-.1.218.287c.25.344.713.669 1.075.769.257.069.882.05 1.144-.037.106-.032.162.006.294.237.362.613.931.938 1.668.944.563.006 1.026-.181 1.394-.556l.232-.238.443.238c.838.437 1.631.356 2.275-.226.35-.325.556-.706.625-1.18l.044-.282h.444c.55-.006.919-.156 1.294-.531.312-.313.5-.7.543-1.144l.031-.325.375-.013c.913-.024 1.682-.774 1.782-1.724a1.864 1.864 0 0 0-.025-.544l-.056-.213.343-.169c.675-.325 1.081-.943 1.094-1.662l.006-.387.75-.32c.431-.18.757-.287.769-.25.012.038.113.244.219.457.256.494.625.744 1.156.781.319.019.469-.018 1.356-.362.55-.213 1.1-.444 1.232-.506.468-.238.793-.844.718-1.363-.025-.219-3.6-9.55-3.844-10.038-.2-.412-.6-.687-1.093-.756-.194-.031-.388.006-.732.125-1.024.35-2.024.788-2.2.956-.443.413-.537 1.032-.268 1.744.087.225.156.444.156.488 0 .106-1.125.668-1.419.706-.343.044-.756-.063-1.7-.431-1.031-.407-1.55-.544-2.2-.594-.831-.056-1.518.094-2.412.525l-.444.219-.406-.194c-.944-.45-1.925-.488-3.669-.131-1.381.281-1.675.256-2.656-.207-.507-.237-.744-.38-.732-.443.007-.05.088-.25.17-.444.312-.694.262-1.194-.157-1.675-.206-.231-.4-.344-1.338-.75-1.187-.525-1.53-.606-1.937-.456Zm1.556 1.375c.819.368 1.006.475 1.056.606.05.137-.25.862-2.068 4.969-1.825 4.137-2.144 4.819-2.288 4.887-.156.075-.244.05-1.144-.35C1.156 16.107 1 16.006 1 15.813c0-.207 4.175-9.582 4.319-9.707.075-.056.181-.106.237-.1.056 0 .55.207 1.1.457Zm20.463.268c.093.075.737 1.663 2.006 4.944C30.156 14.338 31 16.563 31 16.62c0 .063-.063.169-.137.238-.163.137-1.95.837-2.15.83a.34.34 0 0 1-.226-.112c-.118-.137-3.8-9.637-3.8-9.806a.85.85 0 0 1 .038-.231c.031-.075 1.006-.494 2.025-.869.163-.056.231-.044.369.062ZM8.812 9.825l.844.394h.781c.644-.006.957-.044 1.75-.212.85-.182 1.05-.2 1.626-.176.537.02.874.088 1.056.213.043.025-1.306 1.287-1.863 1.737-.569.463-1.4 1.038-2.05 1.432-.456.275-.581.425-.581.712 0 .306.125.5.65 1 .813.769 1.563 1.056 2.631.994.763-.044 1.194-.162 2.744-.756 1.388-.538 1.731-.625 2.325-.594l.438.025 2.58 1.469c1.42.806 2.663 1.544 2.757 1.631.569.519.244 1.456-.531 1.544-.306.031-.319.025-2.675-1.313-.794-.45-1.369-.737-1.475-.737-.375 0-.613.55-.344.812.112.113.856.544 2.681 1.563.913.506 1.125.675 1.225.981.219.669-.456 1.35-1.112 1.125-.131-.044-1.169-.606-2.3-1.244-2.782-1.562-2.563-1.469-2.869-1.231-.2.156-.231.538-.05.7.056.05.938.569 1.95 1.138 1.012.575 1.894 1.087 1.962 1.15.438.375.35 1.13-.162 1.443-.4.244-.581.194-2.019-.606-.718-.4-1.431-.837-1.581-.975a3.13 3.13 0 0 0-.613-.4c-.3-.137-.412-.156-.874-.137l-.525.024-.07-.206c-.106-.319-.63-.85-1.005-1.018-.27-.12-.438-.144-.87-.144l-.543.006-.125-.262c-.319-.663-.887-1.032-1.662-1.082l-.45-.025-.075-.262c-.094-.363-.42-.825-.726-1.032-.712-.493-1.6-.493-2.275-.006l-.256.188-.075-.269c-.1-.381-.344-.825-.519-.969a6.507 6.507 0 0 0-.78-.393c-.345-.15-.632-.294-.632-.32 0-.024.587-1.374 1.306-3 1.556-3.524 1.456-3.3 1.5-3.3.019 0 .419.176.881.388Zm11 .094c.394.144 1 .362 1.344.494.563.212.688.237 1.225.237l.6.006.713-.356c.393-.194.719-.35.719-.344.018.032 2.456 6.338 2.474 6.407.013.05-.262.2-.762.412l-.781.338-.188-.181c-.25-.238-5.281-3.107-5.718-3.263-.288-.1-.457-.113-1-.088-.744.032-1.163.15-2.638.738-1.263.506-1.819.637-2.45.606-.375-.019-.6-.069-.869-.194-.344-.156-.918-.575-.918-.662 0-.025.306-.244.68-.488a19.652 19.652 0 0 0 2.632-2.118c.813-.763 1.156-1.031 1.756-1.363 1.006-.55 1.963-.606 3.181-.181ZM9.056 18.294c.244.188.4.5.4.8 0 .219-.1.444-.619 1.337-.668 1.17-.756 1.257-1.225 1.257a.92.92 0 0 1-.925-.931c0-.232.094-.444.507-1.22.543-1.018.675-1.193.962-1.324.244-.113.688-.075.9.081Zm2.257 1.662a.948.948 0 0 1 .443.776c.006.312-1.219 2.706-1.531 2.993-.288.269-.625.325-1 .156-.363-.156-.538-.43-.538-.837 0-.275.075-.444.763-1.65.563-.994.806-1.375.95-1.462a.886.886 0 0 1 .912.024Zm2.412 1.288a.89.89 0 0 1 .525.806c0 .194-.119.482-.506 1.244-.582 1.119-.738 1.356-.994 1.488-.438.224-1.031.018-1.25-.438-.069-.144-.125-.306-.125-.356 0-.144 1.225-2.513 1.369-2.638.256-.231.619-.269.981-.106Zm2.688 1.45c.23.219.337.45.337.75 0 .206-.106.456-.506 1.206-.275.519-.544.994-.6 1.05-.156.175-.613.319-.857.275-.393-.075-.787-.525-.787-.912 0-.069.256-.619.575-1.225.669-1.282.744-1.357 1.313-1.319.275.013.4.056.525.175Zm1.856 1.188c.356.212.456.306.556.537a.896.896 0 0 1-.837 1.269c-.182 0-.732-.232-.882-.375-.031-.025.088-.319.263-.644.169-.331.331-.7.356-.819.019-.125.056-.225.075-.225.019 0 .231.113.469.256Z"/>
  <path fill="#4A4849" d="M5.838 7.119c-.2.087-.4.375-.4.575 0 .106.068.256.18.381.15.169.226.206.438.206.725 0 .819-1.062.1-1.187a.86.86 0 0 0-.318.025Zm20.106.737c-.419.388-.188 1.019.369 1.019.206 0 .3-.037.45-.188.168-.175.187-.224.156-.456-.069-.518-.6-.718-.975-.375Z"/>
</svg>
