<svg xmlns="http://www.w3.org/2000/svg" width="32" height="32" fill="none" viewBox="0 0 32 32">
  <path fill="#4A4849" d="M11.51 1.071c-1.109.27-2.012 1.144-2.294 2.234a3.257 3.257 0 0 0 .053 1.76c.3.885.78 1.407 1.724 1.87l.599.288-4.651.03-4.65.029-.253.135a2.009 2.009 0 0 0-.874.88L1 8.63v5.982l.158.299c.235.445.41.627.816.844.328.17.434.2.944.223l.575.03.011 6.28.018 6.282.129.352c.276.715.827 1.354 1.49 1.7.78.405.093.387 11.002.37l9.84-.018.376-.135a3.268 3.268 0 0 0 1.959-1.93l.129-.34.018-6.28.011-6.282.575-.029c.51-.023.616-.053.944-.223.405-.217.58-.399.815-.844l.159-.3V8.632l-.165-.335a2.008 2.008 0 0 0-.873-.88l-.253-.134-4.644-.03-4.645-.029.598-.293c1.22-.592 1.86-1.566 1.86-2.845 0-2.334-2.488-3.817-4.57-2.727a2.925 2.925 0 0 0-1.172 1.126c-.264.446-.745 1.625-.95 2.323-.077.246-.147.451-.17.451-.018 0-.13-.316-.259-.703-.305-.945-.686-1.807-.997-2.282-.668-.997-2.005-1.495-3.22-1.202Zm1.378 1.29c.146.047.399.2.551.335.31.27.575.774.938 1.782.223.61.728 2.317.728 2.452 0 .064-.112.047-.54-.065-.897-.24-2.422-.762-2.938-1.008-.604-.282-.874-.517-1.08-.939-.222-.445-.234-1.12-.029-1.566.423-.915 1.379-1.32 2.37-.99Zm7.213-.088a1.948 1.948 0 0 1 1.35 1.08c.205.445.193 1.12-.03 1.565-.205.422-.475.657-1.08.939-.521.246-2.046.768-2.931 1.002-.429.118-.546.13-.546.065 0-.147.528-1.9.768-2.563.335-.909.587-1.39.862-1.636.3-.27.44-.346.804-.434.381-.094.434-.094.803-.018Zm9.32 6.305c.34.17.346.234.346 3.05 0 2.838 0 2.861-.382 3.037-.17.083-1.519.094-13.4.094-11.883 0-13.231-.011-13.402-.094-.38-.175-.38-.199-.38-3.032 0-1.741.023-2.604.064-2.733a.745.745 0 0 1 .252-.305c.176-.105.51-.111 13.454-.111 11.934 0 13.29.012 13.447.094ZM15.338 22.882v6.897l-4.557-.018c-4.275-.017-4.58-.023-4.844-.129-.387-.146-.874-.61-1.044-.985l-.14-.31-.018-6.177-.012-6.17H15.34v6.892Zm11.894-.722-.018 6.176-.14.31c-.17.376-.657.84-1.044.986-.264.106-.57.112-4.839.13l-4.563.017V15.99h10.616l-.012 6.17Z"/>
</svg>
