<svg xmlns="http://www.w3.org/2000/svg" width="32" height="32" fill="none" viewBox="0 0 32 32">
  <path fill="#4A4849" d="M7.263 2.162a1.783 1.783 0 0 0-.844.894c-.106.238-.138.456-.156 1.238l-.025.956h-.575c-1.282.006-1.95.231-2.563.869-.425.45-.644.918-.725 1.53-.081.595-.075 19.426 0 20.026A2.698 2.698 0 0 0 4.219 29.9c.294.094 1.287.1 11.906.087l11.594-.018.418-.213a2.742 2.742 0 0 0 1.488-2.081c.081-.613.081-19.431 0-20.038a2.582 2.582 0 0 0-.806-1.6c-.619-.587-1.232-.78-2.456-.787h-.538l-.025-.988c-.019-.925-.031-1-.188-1.3-.343-.656-.974-1-1.73-.95-.476.038-.75.157-1.088.482-.457.43-.506.6-.532 1.737l-.024 1.019h-4.413L17.8 4.23c-.019-.987-.025-1.019-.206-1.35a1.838 1.838 0 0 0-.925-.8 2.566 2.566 0 0 0-.638-.075c-.562-.006-.968.175-1.331.588-.369.418-.45.743-.45 1.793v.863H9.894l-.031-.956C9.825 3.23 9.75 2.969 9.38 2.55 9.056 2.18 8.625 2 8.063 2c-.388 0-.538.031-.8.162Zm1.23 1.063c.25.212.32.481.32 1.319v.706h-1.5V4.5c0-.5.03-.825.087-.963.194-.468.725-.625 1.094-.312Zm7.932-.063c.269.188.325.4.325 1.275v.813h-1.437v-.775c0-.419.03-.863.068-.969.131-.381.719-.575 1.044-.344Zm7.956 0c.294.15.369.413.369 1.307v.78h-1.437v-.812c0-.875.056-1.087.325-1.275.18-.125.506-.125.743 0ZM6.263 6.987c.043.844.18 1.207.625 1.607.5.443 1.268.593 1.812.343.325-.15.381-.606.106-.88-.118-.12-.181-.126-.518-.095-.7.075-.975-.25-.975-1.15v-.5h6.925l.024.732c.025.668.044.768.207 1.068.2.37.412.57.806.782.344.18 1.175.193 1.431.025.332-.22.375-.594.094-.85-.106-.107-.206-.125-.588-.113-.443.013-.468.006-.662-.194-.2-.2-.206-.218-.225-.825l-.025-.625h6.95v.644c0 .419.031.744.1.931.194.57.762 1.038 1.387 1.144.4.069.882-.019 1.057-.194a.54.54 0 0 0-.019-.756c-.144-.144-.188-.156-.5-.119-.25.032-.4.013-.55-.056-.325-.156-.413-.375-.413-1.031v-.569l1.988.019c1.856.019 2 .025 2.262.15.42.194.663.425.857.825.175.35.175.375.2 1.731l.018 1.375-12.63.025-12.632.019V9.306c0-1.356.063-1.794.3-2.175.356-.581.894-.806 1.925-.812l.631-.007.032.675Zm22.35 12.557-.02 8.112-.174.356c-.194.4-.438.632-.857.825l-.28.132H4.718l-.281-.132c-.42-.193-.663-.425-.857-.825l-.175-.356-.018-8.075-.02-8.081 8.863-.019c4.875-.006 10.557-.019 12.632-.031l3.768-.013-.018 8.107Z"/>
  <path fill="#4A4849" d="M6.444 13.869c-.181.181-.2.4-.181 2.018.018 1.47.018 1.482.168 1.638l.15.163h3.675l.15-.157.156-.15v-1.65c0-1.575-.006-1.662-.13-1.819l-.126-.162H8.431c-1.768 0-1.875.006-1.987.119Zm3.056 1.85v.906H7.313v-1.812H9.5v.906Zm4.006-1.807c-.125.157-.131.244-.131 1.82v1.65l.156.15.15.155h3.675l.15-.162c.15-.156.15-.175.169-1.637.025-1.613.006-1.832-.181-2.02-.113-.112-.219-.118-1.988-.118h-1.875l-.125.162Zm3.119 1.807v.906h-2.188v-1.812h2.188v.906Zm4.006-1.85c-.181.181-.2.4-.181 2.018.019 1.47.019 1.482.169 1.638l.15.163h3.675l.15-.157.156-.15v-1.65c0-1.575-.006-1.662-.131-1.819l-.125-.162h-1.875c-1.769 0-1.875.006-1.988.119Zm3.056 1.85v.906H21.5v-1.812h2.187v.906ZM6.456 20.962l-.175.15v1.694c0 1.675 0 1.694.144 1.831.138.144.15.144 1.987.144h1.85l.15-.175.15-.175v-1.619c0-.887-.018-1.662-.037-1.718-.1-.25-.313-.282-2.144-.282h-1.75l-.175.15Zm3.044 1.85v.938H7.312v-1.875H9.5v.938Zm4.144-1.937c-.25.1-.269.238-.269 1.956v1.657l.194.162.193.163h1.707c.981 0 1.781-.025 1.875-.063.319-.119.356-.35.331-2.075l-.019-1.563-.175-.15-.175-.15-1.762.007c-.969 0-1.825.025-1.9.056Zm2.981 1.938v.937h-2.188v-1.875h2.188v.938Zm4.025-1.851-.181.15v1.694c0 1.675 0 1.694.143 1.831.138.144.15.144 1.988.144h1.85l.15-.175.15-.175v-1.643c0-1.532-.006-1.657-.119-1.794l-.119-.15-1.843-.019-1.844-.019-.175.156Zm3.038 1.85v.938H21.5v-1.875h2.187v.938Z"/>
</svg>
