<svg xmlns="http://www.w3.org/2000/svg" width="32" height="32" fill="none" viewBox="0 0 32 32">
  <path fill="#4A4849" d="M14.781.038C12.525.269 10.825.744 8.97 1.65a16.247 16.247 0 0 0-6.356 5.588A16.083 16.083 0 0 0 .15 13.719c-.156 1.05-.156 3.519-.006 4.531.806 5.288 3.944 9.631 8.7 12.038 3.45 1.737 7.312 2.162 11.094 1.212 1.6-.4 3.506-1.244 4.843-2.137a16.193 16.193 0 0 0 5.413-6.019c1.125-2.163 1.694-4.325 1.787-6.781A15.902 15.902 0 0 0 28.606 6.13c-.606-.78-1.8-2-2.544-2.593A16.292 16.292 0 0 0 18.282.15c-.595-.087-2.97-.169-3.5-.112Zm.913 1.131c-.113.219-.982 1-1.35 1.219-.694.418-1.288.612-2.344.768-.988.144-1.5.45-1.95 1.15-.669 1.057-.531 2.325.362 3.257.42.437.825.662 1.413.787.55.119.963.075 1.613-.15.43-.156.543-.169 1.406-.162.806.006 1.025.025 1.55.168 2.062.55 3.825 2.038 4.925 4.17.256.493.794 1.05 1.212 1.25.225.112.45.162.794.174.906.044 1.569-.293 2.55-1.3.663-.668.775-.75 1.063-.75.487 0 .712.3 1.056 1.419.231.75.462 1.088.937 1.375.419.25.769.306 1.413.219.275-.031.512-.05.531-.031.087.08.019 2.656-.087 3.362-.738 4.912-3.782 9.112-8.194 11.281a14.922 14.922 0 0 1-4.5 1.413c-1.044.156-3.144.156-4.188 0a14.912 14.912 0 0 1-4.5-1.413c-.925-.456-2.2-1.256-2.262-1.419-.056-.137.219-2.606.331-3.018a5.36 5.36 0 0 1 .406-.875c.163-.294.363-.7.432-.906.168-.482.243-1.263.18-1.788a2.909 2.909 0 0 0-2.055-2.462c-.832-.25-.875-.282-1.694-1.07-.856-.83-1.144-1.037-1.669-1.218-.606-.206-1.406-.212-1.931-.012-.063.024-.081-.125-.081-.675 0-1.05-.057-.976.768-1.007 1.013-.043 1.625-.3 2.182-.906.118-.131.356-.387.525-.575.243-.269.462-.413 1.112-.738.994-.5 1.431-.887 1.763-1.556.318-.637.393-1.2.256-1.931-.219-1.2-.725-1.794-2.113-2.5l-.887-.45.587-.613c2.675-2.775 6.469-4.48 10.2-4.587.269-.006.294.006.238.1Zm2.475.081c4.331.638 8.119 3.106 10.487 6.85.9 1.419 1.669 3.375 2 5.1.088.475.125.444-.569.519-.637.075-.837-.094-1.08-.906-.182-.594-.5-1.288-.713-1.532a1.953 1.953 0 0 0-.494-.375c-.294-.168-.387-.187-.863-.187-.706 0-.906.113-1.774.994-.85.862-1.207 1.069-1.788 1.025-.519-.038-.744-.238-1.225-1.063-.619-1.069-1.019-1.606-1.712-2.3-1.65-1.662-3.707-2.5-5.925-2.425-.675.025-.87.056-1.294.206-.825.3-1.413.232-1.931-.218-.67-.588-.782-1.469-.27-2.132.32-.418.463-.493 1.144-.593.72-.107 1.538-.325 2.057-.557.894-.393 2.062-1.387 2.587-2.206.25-.381.2-.375 1.363-.2ZM6.15 8.381c.706.782.675 2.126-.056 2.8-.144.132-.631.432-1.075.657-.838.425-1.081.619-1.669 1.312-.419.5-.812.675-1.562.713l-.55.031.043-.338c.138-1.006.688-2.768 1.219-3.9.3-.643.913-1.693 1.294-2.23l.219-.3.925.468c.756.387.98.531 1.212.787Zm-3.244 9.332c.25.112.569.368 1.144.931.844.825 1.15 1.025 1.831 1.2.725.188 1.119.5 1.407 1.125.118.25.15.419.15.856 0 .657-.138 1.138-.5 1.738-.413.681-.557 1.194-.7 2.431-.07.606-.144 1.113-.157 1.131-.05.05-1.343-1.325-1.787-1.887A15.004 15.004 0 0 1 1.65 20.05c-.275-.956-.5-2.225-.406-2.319.119-.118.662-.23.994-.206.175.019.48.1.668.188Z"/>
  <path fill="#4A4849" d="M11.656 10.838a2.38 2.38 0 0 0-.569.419c-.35.368-2.25 3.05-2.4 3.38-.1.22-.124.413-.124.995 0 .68.012.743.193 1.106.175.35.281.456 1.288 1.256.706.563 1.2.913 1.381.969.362.125.862.125 1.344 0 .444-.113.725-.075.9.119.069.075.256.387.425.693.269.5.35.77.844 2.732.85 3.387 1.3 4.38 2.137 4.743.681.3 1.531.138 2.025-.387.106-.113.5-.713.869-1.331.5-.844.787-1.25 1.137-1.613.694-.731.731-.825.769-2.3l.031-1.219.569-.718c.75-.938.862-1.157.862-1.713.007-.506-.156-.931-.48-1.269-.113-.118-.5-.393-.87-.612-.368-.225-.712-.463-.762-.538-.05-.068-.35-.725-.663-1.456-.312-.725-.65-1.425-.756-1.55-.1-.119-.356-.306-.569-.412-.468-.238-.818-.25-1.737-.063-.356.075-.731.119-.837.1-.107-.019-.688-.325-1.288-.681-.6-.363-1.188-.688-1.306-.725-.125-.044-.6-.075-1.157-.075-.862 0-.968.012-1.256.15Zm3.131 1.544c.582.35 1.188.687 1.357.75.381.15.756.15 1.512-.007.725-.15.919-.156 1.157-.03.2.1.293.293.975 1.9.518 1.237.668 1.418 1.618 1.993.556.337.713.462.806.656.17.356.076.569-.618 1.444-.344.437-.632.862-.688 1.031-.069.206-.093.55-.093 1.325 0 .575-.025 1.125-.063 1.213-.031.087-.269.38-.519.643-.337.357-.637.788-1.156 1.644-.381.638-.738 1.194-.787 1.238-.282.23-.813.187-1.026-.088-.3-.381-.762-1.769-1.287-3.875-.5-1.987-.556-2.175-.906-2.881-.3-.606-.444-.819-.7-1.05-.5-.45-1.025-.563-1.775-.381-.738.175-.731.18-1.8-.675-.532-.42-1.013-.838-1.069-.932-.069-.112-.1-.318-.1-.693v-.532l1.094-1.53c.594-.845 1.162-1.588 1.256-1.663.15-.12.25-.132.963-.132h.793l1.056.632Zm9.994 7.987c-.1.062-.556.494-1 .95l-.812.837-.294 1.47c-.213 1.093-.269 1.505-.225 1.624.069.194 1.075 1.225 1.319 1.35.144.075.219.081.387.025.194-.062.306-.219 1.094-1.531.481-.8.875-1.525.875-1.606 0-.2-.494-2.67-.575-2.882-.063-.168-.331-.356-.5-.356a.737.737 0 0 0-.269.119Zm.032 1.894c.037.18.1.512.137.737l.069.406-.55.907c-.3.5-.556.918-.569.93-.019.02-.112-.05-.212-.155l-.182-.182.232-1.137.23-1.138.345-.35c.187-.187.356-.343.38-.343.026 0 .076.15.12.325Z"/>
</svg>
