<svg xmlns="http://www.w3.org/2000/svg" width="32" height="32" fill="none" viewBox="0 0 32 32">
  <path fill="#4A4849" stroke="#4A4849" stroke-width=".3" d="M6.083 1.093c-.91.24-1.614.897-1.942 1.836-.13.346-.135.475-.141 1.666 0 1.05.018 1.379.106 1.76.129.546.475 1.32.786 1.748.117.17 1.35 1.444 2.734 2.84l2.517 2.529-.106.287c-.07.176-.112.434-.112.692 0 .734.4 1.35 1.086 1.684.387.188 1.091.182 1.514-.006.932-.416 1.349-1.578.891-2.505-.281-.569-.627-.757-.933-.504-.193.152-.176.404.053.727.669.95-.522 2.083-1.39 1.32-.235-.205-.37-.475-.37-.733s.053-.264.3-.041c.299.27.486.31.686.164.111-.082.164-.182.176-.34.017-.217 0-.24-1.461-1.702-1.45-1.46-1.473-1.484-1.338-1.56.112-.065.828-.088 3.62-.1 3.778-.018 3.913-.006 4.394.305.124.076 2.47 2.394 5.222 5.151 4.412 4.424 5.004 5.034 5.057 5.245.035.135.053.282.041.323l-.064.258c-.053.24-7.516 7.732-7.862 7.897-.287.135-.563.14-.815.023-.1-.047-2.447-2.352-5.21-5.116-4.125-4.13-5.051-5.086-5.163-5.327-.135-.293-.135-.317-.164-3.409-.03-2.962.27-4.775.164-4.892-.152-.17-.569-.737-.733-.561-.13.135-.311 2.356-.311 5.377 0 3.315.006 3.385.358 4.043.14.264 1.19 1.343 5.32 5.467 5.721 5.709 5.316 5.357 6.143 5.357.816 0 .558.217 4.917-4.13 3.455-3.444 3.942-3.949 4.1-4.271.218-.44.241-.922.083-1.426-.106-.311-.323-.534-5.274-5.497-4.213-4.219-5.234-5.21-5.51-5.357-.61-.322-.868-.352-3.69-.352H11.21l-.563-.575C9.62 8.338 9.603 8.274 9.603 5.551c0-1.296-.024-2.147-.065-2.346a2.804 2.804 0 0 0-3.455-2.112Zm1.478.938c.381.165.78.552.968.945l.164.328.036 2.347c.023 1.66.052 2.417.105 2.582a4.09 4.09 0 0 0 .804 1.372l.329.358H9.76c-.328 0-.804.106-1.132.258l-.305.141-1.402-1.414c-1.25-1.267-1.426-1.466-1.62-1.86-.328-.668-.399-1.014-.434-2.147-.035-1.144.03-1.666.264-2.094.235-.429.71-.792 1.215-.927.293-.076.92-.024 1.214.111Z"/>
  <path fill="#4A4849" stroke="#4A4849" stroke-width=".3" d="M17.945 15.725c-.07.035-.158.158-.193.275-.041.141-.053 1.79-.041 4.97.017 4.587.023 4.77.129 4.887.076.082.182.123.334.123.428 0 .405.322.405-5.169v-4.916l-.152-.118c-.17-.134-.282-.146-.482-.052Zm-3.725 3.361a2.028 2.028 0 0 0-.892.704c-.516.728-.399 1.801.264 2.4.393.352.716.475 1.262.475.393 0 .522-.023.803-.164a1.98 1.98 0 0 0 .892-.916c.188-.416.176-1.167-.035-1.566-.2-.381-.669-.804-1.027-.927-.334-.111-.962-.117-1.267-.006Zm1.132.921c.305.212.429.417.452.763.03.417-.147.727-.51.915-.68.352-1.408-.111-1.408-.886 0-.704.886-1.185 1.466-.792Zm5.498-.921c-.529.194-.98.675-1.156 1.226-.112.352-.047 1.004.135 1.361.176.353.54.693.915.863.422.194 1.103.182 1.543-.035.381-.188.71-.528.892-.916.187-.416.176-1.167-.035-1.566-.2-.381-.67-.804-1.027-.927-.329-.111-.962-.117-1.268-.006Zm1.132.921c.305.212.428.417.452.763.029.417-.147.727-.51.915-.681.352-1.409-.111-1.409-.886 0-.704.886-1.185 1.467-.792Z"/>
</svg>
