<svg xmlns="http://www.w3.org/2000/svg" width="32" height="32" fill="none" viewBox="0 0 32 32">
  <path fill="#4A4849" d="M15.569 1.581c-.35.113-.582.4-1.313 1.669-.387.669-.737 1.256-.781 1.3-.044.044-.731.206-1.531.356-.8.15-1.544.306-1.657.344-.4.131-.787.694-.787 1.137.006.394.219.694 1.306 1.813 1.025 1.056 1.075 1.119 1.038 1.312-.131.794-.344 2.806-.313 2.988.106.587.738 1.05 1.338.981.175-.019.85-.287 1.706-.675L16 12.169l1.431.643c.857.382 1.544.65 1.713.669.606.069 1.256-.431 1.337-1.025.025-.194-.187-2.125-.331-2.944-.031-.2.013-.256 1.088-1.35 1.212-1.237 1.3-1.375 1.25-1.918a1.223 1.223 0 0 0-.6-.913c-.15-.087-.75-.231-1.744-.412-.838-.157-1.544-.3-1.575-.32-.025-.018-.394-.624-.813-1.343-.419-.719-.843-1.381-.95-1.469-.319-.268-.794-.35-1.237-.206Zm.631 1.025c.05.063.381.619.738 1.238.8 1.393.868 1.487 1.2 1.643.15.075.887.244 1.674.388 1.544.275 1.688.319 1.688.481 0 .063-.256.369-.569.675-1.075 1.063-1.669 1.75-1.744 2.025-.05.2-.03.531.125 1.763.194 1.543.194 1.68-.037 1.68-.05 0-.725-.287-1.512-.637-1.876-.844-1.663-.844-3.538 0-.787.35-1.463.638-1.506.638-.238 0-.238-.15-.044-1.694.25-1.975.325-1.762-1.094-3.237-.593-.62-1.081-1.163-1.081-1.22 0-.143.15-.2 1-.35 1.806-.318 2.269-.43 2.525-.605.188-.138.406-.457.969-1.438.4-.687.768-1.3.812-1.356.113-.131.275-.125.394.006ZM5.094 6.087c-.275.125-.4.288-.925 1.225l-.481.844-.794.144c-1.113.206-1.4.294-1.594.494-.463.487-.388 1.05.231 1.643.163.157.463.47.663.7l.375.42-.119 1.005c-.163 1.275-.094 1.544.425 1.813.406.206.625.162 1.675-.313l.963-.43.974.437c.863.393 1.013.443 1.27.418a.977.977 0 0 0 .818-.593c.119-.263.119-.282-.012-1.213-.07-.525-.126-1-.126-1.056 0-.056.32-.444.713-.863.769-.806.906-1.05.825-1.475-.05-.268-.338-.618-.581-.712-.1-.038-.607-.15-1.132-.25-.525-.1-.962-.194-.975-.206-.006-.013-.224-.394-.474-.838-.25-.45-.513-.881-.588-.962-.262-.3-.75-.4-1.131-.232Zm.869 1.738c.712 1.275.625 1.212 2.006 1.456.519.094.95.181.962.194.013.012-.287.35-.662.756-.381.406-.719.8-.763.875-.094.181-.087.594.025 1.394.05.362.094.731.094.825v.162l-.888-.412c-1.206-.556-1.268-.556-2.48.006-.5.231-.907.413-.913.4-.006-.006.044-.481.112-1.05.113-.906.119-1.062.044-1.25-.05-.119-.394-.525-.763-.912-.368-.388-.675-.725-.675-.75 0-.025.432-.132.957-.232.518-.1 1.006-.206 1.075-.243.256-.125.431-.35.887-1.157.256-.45.488-.825.513-.825.025 0 .237.344.469.763Zm20.131-1.738c-.275.125-.4.288-.925 1.225l-.482.844-.793.144c-1.113.206-1.4.294-1.594.494-.463.487-.387 1.05.231 1.643.163.157.463.47.663.7l.375.42-.119 1.005c-.162 1.275-.094 1.544.425 1.813.406.206.625.162 1.675-.313l.962-.43.976.437c.868.393 1.012.443 1.274.418a.98.98 0 0 0 .832-.63c.093-.257.093-.326-.032-1.282l-.137-1.013.756-.812c.794-.863.875-1.013.794-1.469-.05-.262-.338-.612-.581-.706-.1-.038-.606-.15-1.131-.25-.526-.1-.963-.194-.976-.206-.006-.013-.224-.394-.474-.838-.25-.45-.513-.881-.588-.962-.263-.3-.75-.4-1.131-.232Zm.9 1.782c.25.443.506.862.575.937.206.225.431.3 1.4.475.518.094.95.175.962.188.013.012-.268.337-.625.712-.356.381-.7.781-.756.894-.137.244-.137.556-.019 1.425.05.362.094.731.094.825v.162l-.887-.412c-1.238-.569-1.232-.569-2.425-.019-.525.244-.963.438-.97.425-.006-.006.044-.481.113-1.05.113-.912.119-1.062.044-1.25-.05-.119-.394-.531-.762-.919-.37-.393-.675-.73-.675-.756 0-.025.43-.125.956-.219.519-.1 1.006-.206 1.075-.237.262-.131.431-.356.887-1.163.256-.45.494-.825.513-.825.025 0 .25.363.5.807Zm-11.281 6.743c-.075.057-.882 1.182-1.8 2.494l-1.67 2.394h-1.93c-1.057 0-1.976.019-2.032.037C8 19.65 8 19.625 8 25c0 5.487-.006 5.387.331 5.469.075.018 3.207.025 6.957.018l6.812-.018.475-.238c.719-.35 1.188-.937 1.363-1.681.08-.356.08-6.744 0-7.1-.175-.744-.644-1.331-1.363-1.681l-.475-.238-2.138-.019-2.143-.018.369-.744c.437-.894.55-1.394.437-2.006-.188-1.044-.869-1.813-1.881-2.125-.475-.15-.857-.15-1.031-.007Zm1.075 1.094c.274.144.68.613.78.894.044.131.082.406.082.6-.006.325-.063.481-.581 1.531-.313.65-.569 1.238-.569 1.319 0 .081.069.212.156.294l.15.156h2.45c1.738 0 2.525.025 2.706.075.163.05.375.194.57.394.2.193.343.406.393.568.106.37.106 6.557 0 6.925-.1.344-.619.863-.963.963-.193.056-1.375.075-4.612.075H13v-9.344l1.625-2.325c1.6-2.281 1.631-2.319 1.8-2.269.1.025.262.088.363.144ZM12 25v4.5H9v-9h3V25Z"/>
</svg>
