<svg xmlns="http://www.w3.org/2000/svg" width="32" height="32" fill="none" viewBox="0 0 32 32">
  <path fill="#4A4849" stroke="#fff" stroke-width=".4" d="M26.581.25c-.487.125-.712.231-1.143.519-.275.181-14.52 14.35-14.757 14.681-.131.181-2.056 7.012-2.056 7.3 0 .35.406.75.762.75.275 0 7.113-1.931 7.288-2.056.094-.069 3.394-3.35 7.337-7.3 5.232-5.238 7.232-7.282 7.42-7.575a3.735 3.735 0 0 0 .512-2.544 4.646 4.646 0 0 0-.331-.963c-.226-.474-.344-.618-1.138-1.412-.794-.794-.938-.906-1.413-1.137-.843-.407-1.625-.488-2.48-.263Zm1.813 1.7c.344.169 1.612 1.444 1.8 1.8.125.237.15.375.15.875 0 .756-.113 1-.825 1.744l-.513.537-1.893-1.893-1.894-1.894.55-.525c.306-.288.675-.581.825-.656a2.133 2.133 0 0 1 1.8.012ZM26 6.156 27.844 8l-5.832 5.825-5.825 5.831-1.843-1.843C13.33 16.8 12.5 15.942 12.5 15.905c0-.081 11.512-11.594 11.594-11.594.037 0 .893.832 1.906 1.844ZM14.613 20.431a297.94 297.94 0 0 1-4.032 1.113 56.26 56.26 0 0 1 .425-1.575l.569-2.056.131-.488 1.488 1.488c.825.825 1.456 1.506 1.418 1.518Z"/>
  <path fill="#4A4849" stroke="#fff" stroke-width=".4" d="M3 3.35C1.694 3.7.687 4.637.225 5.937l-.194.532v11.093c0 10.582.006 11.113.113 11.463.231.75.481 1.169 1.043 1.731.394.394.65.594.982.756.912.457.018.432 13.206.413l11.844-.019.418-.162c1.232-.482 2.1-1.363 2.507-2.556.137-.4.137-.463.156-4.438.019-3.619.012-4.05-.081-4.225-.132-.25-.4-.4-.713-.4-.206 0-.306.044-.494.212l-.23.213-.032 3.962c-.031 3.944-.031 3.957-.175 4.313A2.439 2.439 0 0 1 27.2 30.2l-.356.144-11.463.018c-7.569.007-11.581-.006-11.812-.05a2.41 2.41 0 0 1-1.732-1.33l-.18-.388v-22l.18-.394c.232-.5.763-1.006 1.27-1.213l.362-.143 3.937-.032c4.4-.037 4.15-.006 4.375-.48.144-.3.082-.595-.194-.863l-.218-.219-4.013.006c-3.331 0-4.068.019-4.356.094Z"/>
</svg>
