<svg xmlns="http://www.w3.org/2000/svg" width="32" height="32" fill="none" viewBox="0 0 32 32">
  <path fill="#4A4849" d="M2.596 1.08c-.21.095-.453.35-.532.56C2.024 1.747 2 2.982 2 5.365c0 3.386.006 3.579.108 3.777.057.113.159.255.22.311.295.267.142.26 7.265.267h6.716l.317.668c.181.368.323.69.323.707 0 .023-.25.04-.55.04-.792.006-1.12.17-1.296.663-.114.317-.114 7.077 0 7.394.175.493.504.657 1.296.663h.55v1.41l-3.494.017c-3.907.017-3.697-.006-4.02.424l-.159.204-.017 3.573c-.011 1.965 0 3.658.017 3.76.04.226.334.572.578.668.277.119 20.26.119 20.53 0a1.11 1.11 0 0 0 .544-.56c.046-.114.063-4.321.063-13.862 0-11.505-.012-13.73-.08-13.883a1.114 1.114 0 0 0-.56-.544C30.239 1.017 26.037 1 16.48 1c-11.33.005-13.743.017-13.884.08Zm8.476 1.913c.029.917.051 1.081.17 1.415.3.81.85 1.399 2.055 2.209.408.266.923.65 1.15.843.402.34 1.144 1.155 1.144 1.252 0 .022-2.837.04-6.297.034l-6.302-.017-.017-3.386-.011-3.38h8.08l.028 1.03ZM30.03 15.495v13.533h-8.997l-.374-.47a12.098 12.098 0 0 1-2.321-4.598c-.334-1.274-.397-1.84-.397-3.652 0-1.688.029-1.982.323-3.228.204-.894.278-1.387.312-2.151.13-2.956-1.246-6.223-3.41-8.12-.265-.232-.86-.68-1.324-.99-.866-.59-1.382-1.065-1.58-1.462-.164-.317-.238-.826-.238-1.676v-.719H30.03v13.533Zm-12.66-3.018c.158.674.209 1.047.243 1.744.034.793-.034 1.444-.272 2.52-.09.419-.21 1.075-.266 1.46l-.096.697-.482-.017-.48-.017-.018-3.312c-.005-1.824 0-3.347.017-3.386.017-.046.198-.068.646-.068h.617l.09.379Zm-.216 10.492c.357 2.095 1.195 4.133 2.356 5.702.119.164.215.311.215.328 0 .017-2.14.029-4.756.029H10.21V25.67c0-1.852.018-3.38.04-3.397.017-.023 1.557-.034 3.409-.029l3.375.017.118.708Z"/>
  <path fill="#4A4849" d="M13.28 2.982c-.186.08-.294.374-.243.657.08.436.345.702 1.365 1.387.39.26.923.657 1.194.878 1.433 1.194 2.65 3 3.307 4.92.085.255.215.51.294.578a.455.455 0 0 0 .765-.329c0-.47-.85-2.35-1.529-3.392-.906-1.387-1.96-2.44-3.403-3.391-.787-.521-.996-.708-1.07-.963-.04-.119-.102-.249-.142-.283-.113-.09-.39-.124-.537-.062Zm6.427 11.261c-.119.148-.136.233-.17.861-.04.77-.068.946-.35 2.288-.244 1.15-.312 1.783-.312 2.87 0 1.586.192 2.91.594 4.15.368 1.122 1.302 2.86 1.863 3.449.22.238.447.266.68.085.254-.198.209-.47-.17-.997-1.45-2.021-2.078-4.275-1.988-7.145.029-.917.063-1.178.238-2.016.311-1.455.368-1.857.408-2.667l.034-.747-.148-.148c-.21-.209-.492-.203-.679.017Zm-17.111-3c-.26.119-.447.306-.532.532-.085.22-.085 7.22 0 7.44.085.227.271.413.532.532.215.102.487.108 5.21.108 4.716 0 4.993-.006 5.208-.108.272-.124.391-.249.51-.532.13-.311.13-7.129 0-7.44-.119-.283-.238-.408-.51-.532-.215-.102-.492-.108-5.209-.108-4.722 0-4.994.006-5.21.108Zm10.05 4.252v3.397H2.964v-6.794h9.682v3.397Zm-9.982 5.86a.93.93 0 0 0-.572.51c-.08.164-.09.646-.09 3.754 0 2.384.022 3.624.062 3.731.079.216.322.47.543.561.147.062.623.08 2.293.08 2.362 0 2.435-.012 2.713-.403l.135-.192.017-3.652c.006-2.01 0-3.71-.016-3.783-.057-.237-.408-.56-.68-.628-.385-.096-4.128-.08-4.405.022Zm4.15 4.275v3.398h-3.85V25.67c0-1.852.017-3.38.04-3.397.017-.023.883-.04 1.925-.04h1.885v3.397Z"/>
</svg>
