<svg xmlns="http://www.w3.org/2000/svg" width="32" height="32" fill="none" viewBox="0 0 32 32">
  <g clip-path="url(#a)">
    <path fill="#4A4849" stroke="#fff" stroke-width=".4" d="M5.956.119a2.64 2.64 0 0 0-1.668 1.88c-.088.357-.1 2.026-.1 13.988 0 15.15-.032 14.094.43 14.807A2.8 2.8 0 0 0 5.75 31.8l.344.169 9.781.018c8.887.013 9.806.007 10.094-.087a2.608 2.608 0 0 0 1.75-1.938c.131-.63.137-20.862.006-21.168-.05-.113-1.906-2.013-4.394-4.5L19.031 0h-6.375C6.6.006 6.263.012 5.956.119Zm12.107 4.28c0 2.92.006 3.107.125 3.495.212.687.73 1.262 1.437 1.6l.344.162 3.237.019 3.232.019v20.018l-.132.27c-.081.168-.244.35-.419.474l-.293.2H6.387l-.268-.194a1.617 1.617 0 0 1-.413-.468l-.143-.263V16.012c0-13.706 0-13.725.13-13.987a1.46 1.46 0 0 1 .695-.65c.08-.031 2.543-.056 5.912-.056l5.762-.007V4.4Zm4.925 3.963c-2.188.013-2.557 0-2.782-.087-.312-.113-.681-.513-.768-.831-.038-.132-.063-1.27-.063-2.725v-2.5l3.063 3.062L25.5 8.344l-2.512.018Z"/>
    <path fill="#4A4849" d="M10.481 16.219c-.312.319-.243.856.144 1.043.2.107.594.113 5.375.113s5.175-.006 5.375-.113c.387-.187.456-.724.144-1.043l-.163-.157H10.644l-.163.157Zm.031 2.812c-.33.275-.293.813.07 1.032.193.118.362.125 5.418.125s5.225-.007 5.419-.125c.362-.22.4-.757.069-1.032l-.188-.156H10.7l-.188.156Zm.019 2.794c-.312.275-.306.794.006 1.044.163.131.207.131 5.47.131h5.3l.162-.144c.312-.269.306-.787-.007-1.037-.162-.131-.206-.131-5.468-.131h-5.3l-.163.137Zm.05 2.794a.649.649 0 0 0-.069 1.037l.188.157h3.65c2.388 0 3.7-.025 3.781-.063a.721.721 0 0 0 .213-.25c.143-.281.118-.531-.088-.762l-.181-.207-3.65-.018c-3.525-.013-3.65-.013-3.844.106Z"/>
  </g>
  <defs>
    <clipPath id="a">
      <path fill="#fff" d="M0 0h32v32H0z"/>
    </clipPath>
  </defs>
</svg>
