<svg xmlns="http://www.w3.org/2000/svg" width="32" height="32" fill="none" viewBox="0 0 32 32">
  <path fill="#4A4849" d="M5.181 4.024c-1.66 1.66-3.064 3.112-3.112 3.233-.056.136-.08 3.256-.064 10.187.024 9.4.032 10.01.168 10.355.209.546.634.987 1.196 1.268l.489.248h11.767l.113.257c.224.538.585.923 1.098 1.18l.498.248h11.422l.497-.249c.33-.168.586-.369.77-.617.546-.706.53-.401.506-8.487l-.024-7.291-.217-.41a3.237 3.237 0 0 0-.593-.745c-.626-.546-.786-.57-4.019-.57h-2.823l-.025-4.957c-.024-4.853-.024-4.957-.192-5.318a2.53 2.53 0 0 0-1.187-1.163L21.039 1H8.214L5.181 4.024Zm15.81-1.7c.153.088.345.264.442.385.168.224.168.288.192 5.077l.016 4.845h-2.03c-2.454 0-2.662.04-3.304.666-.297.289-.473.545-.57.834l-.152.425h-4.38l-.192.2c-.112.105-.2.29-.2.402 0 .112.088.296.2.4l.192.201h4.34v3.209h-4.34l-.192.2c-.24.241-.257.514-.032.795l.16.208h4.404v3.209h-2.046c-2.197 0-2.534.048-2.647.393-.08.248.033.641.201.73.088.048 1.043.08 2.318.08h2.174v3.529H4.098l-.272-.184c-.153-.096-.353-.337-.45-.538l-.184-.353V8.067l2.102-.024c2.037-.024 2.125-.032 2.47-.217a2.51 2.51 0 0 0 1.107-1.09c.217-.402.217-.402.24-2.511l.025-2.11 5.791.024c5.623.024 5.8.032 6.064.185ZM7.885 5.869a1.211 1.211 0 0 1-.257.505c-.37.45-.522.482-2.086.482H4.114L6 4.97l1.885-1.885.024 1.259c.016.698 0 1.38-.024 1.524ZM28.7 13.987c.16.088.353.288.457.489l.185.353-.016 7.115c-.024 7.099-.024 7.123-.193 7.347a1.88 1.88 0 0 1-.441.386c-.265.152-.417.16-5.647.16-5.976 0-5.663.024-6.072-.538l-.185-.264-.024-7.091c-.016-6.963-.016-7.1.145-7.42.096-.208.272-.401.457-.513.305-.177.305-.177 5.679-.177 5.085 0 5.39.008 5.655.153Z"/>
  <path fill="#4A4849" d="M10.98 6.262c-.224.28-.208.554.033.794l.192.2h3.899c4.468 0 4.364.017 4.372-.657 0-.561.136-.545-4.34-.545H11.14l-.16.208ZM8.526 9.518c-.088.048-.369.289-.617.53l-.466.449-.304-.297c-.385-.377-.706-.45-1.003-.217-.16.129-.217.241-.217.466 0 .248.073.36.626.914.874.874.914.874 1.99-.192.761-.746.834-.843.834-1.115 0-.474-.442-.762-.843-.538Zm2.454.836c-.208.264-.216.52-.015.762l.152.192 3.963.024c3.922.024 3.97.016 4.179-.144.168-.137.216-.24.216-.474 0-.593.193-.569-4.315-.569h-4.019l-.16.209Zm-2.975 4.082-.513.513-.345-.313c-.273-.256-.401-.32-.65-.32-.377 0-.578.192-.578.553 0 .224.105.369.618.898.537.562.65.634.898.634.265 0 .377-.08 1.115-.826.73-.738.819-.85.819-1.107 0-.361-.201-.554-.57-.554-.233 0-.353.08-.794.522Zm-.008 4.427-.554.538-.345-.337c-.256-.257-.409-.337-.601-.337-.337 0-.578.24-.578.586 0 .216.097.353.626.866.337.337.682.634.762.666.265.088.65-.169 1.364-.89.641-.674.698-.747.698-1.051 0-.25-.04-.361-.177-.45-.353-.248-.602-.168-1.195.41Zm0 4.405-.554.537-.36-.337c-.257-.233-.426-.329-.602-.329-.329 0-.562.249-.562.602 0 .233.089.369.522.834.553.586.882.778 1.187.706.096-.032.53-.41.962-.842.698-.714.779-.826.779-1.091 0-.361-.233-.61-.57-.61-.2 0-.36.113-.802.53Zm10.468-7.998c-.554.249-.594.433-.594 2.495 0 1.917.024 2.07.45 2.398.208.168.272.168 4.732.168h4.524l.305-.272.297-.273.024-1.909c.024-2.086 0-2.246-.417-2.543l-.249-.176-4.372-.016c-4.123-.024-4.387-.016-4.7.128Zm8.55 2.455v1.403h-7.94v-2.807h7.94v1.404Zm-8.807 3.865c-.433.21-.537.506-.537 1.469 0 1.291.224 1.54 1.436 1.588.906.04 1.29-.08 1.548-.457.16-.24.184-.37.184-1.123 0-.955-.072-1.155-.473-1.428-.24-.16-.37-.185-1.083-.185-.586 0-.882.04-1.075.137Zm3.866-.055c-.088.032-.264.176-.377.32-.208.241-.216.297-.216 1.155 0 .81.016.939.184 1.18.233.345.57.465 1.34.465.778.008 1.147-.096 1.396-.401.2-.233.208-.297.208-1.171 0-1.428-.2-1.629-1.58-1.62-.433 0-.858.031-.955.072Zm3.682.08c-.497.305-.505.337-.505 3.465 0 2.663.008 2.848.16 3.089.241.4.53.505 1.404.505.97 0 1.251-.113 1.484-.602.16-.337.169-.441.144-3.144-.024-2.583-.032-2.808-.176-3.016-.257-.377-.513-.457-1.428-.457-.682 0-.874.032-1.083.16Zm1.5 3.45v2.406h-.802v-4.813h.802v2.406Zm-9.04.56c-.417.25-.53.506-.57 1.236-.04.802.065 1.227.386 1.532.24.232.28.24 1.115.265 1.427.048 1.692-.2 1.692-1.589 0-1.347-.265-1.604-1.62-1.604-.602 0-.794.032-1.003.16Zm3.858-.047c-.505.224-.593.441-.593 1.492 0 1.035.072 1.235.561 1.484.321.168 1.685.168 2.006 0 .489-.249.561-.45.561-1.484 0-1.059-.088-1.276-.61-1.492-.344-.145-1.588-.145-1.925 0Z"/>
</svg>
