<svg xmlns="http://www.w3.org/2000/svg" width="661" height="558" fill="none" viewBox="0 0 661 558">
  <path stroke="url(#a)" stroke-width=".5" d="m191.141 174.793 84.202 57.254"/>
  <path stroke="url(#b)" stroke-width=".5" d="m395.172 286.271 101.331 10.003"/>
  <path stroke="url(#c)" stroke-width=".5" d="m331.25 332.997 1.326 101.814"/>
  <path stroke="url(#d)" stroke-width=".5" d="m263.742 310.686-87.839 51.501"/>
  <path stroke="url(#e)" stroke-width=".5" d="m402.327 112.681-44.702 91.486"/>
  <g filter="url(#f)">
    <rect width="75" height="75" x="108.5" y="112" fill="#FDFDFD" rx="37.5" shape-rendering="crispEdges"/>
    <path fill="#4A4849" d="M141.676 137.371c-3.249.752-6.117 1.449-6.371 1.547-2.025.787-3.515 2.651-3.86 4.816-.042.289-.07 3.354-.07 8.452v8.002h-.387c-.323 0-.422.028-.562.175-.169.162-.176.197-.176 1.231 0 1.033.007 1.069.176 1.23l.169.176h9.435l.169-.176c.169-.161.176-.197.176-1.23 0-1.034-.007-1.069-.176-1.231-.126-.133-.246-.175-.471-.175l-.302-.008.211-.175c.119-.092.422-.275.682-.394.45-.211.619-.387.619-.675.007-.084 1.687-1.076 5.667-3.347l5.66-3.227.52-.035c.471-.029.527-.022.527.091 0 .548.612 1.336 1.168 1.498.197.056.914.084 2.222.084 2.271 0 2.411-.028 2.889-.562.282-.31.471-.725.471-1.013 0-.063.05-.113.113-.113.57 0 1.336-.625 1.498-1.216.14-.499.056-1.111-.239-1.708-.296-.605-.718-1.013-1.357-1.315l-.472-.225h-7.664l-5.653 2.165c-4.739 1.814-5.667 2.145-5.716 2.06-.035-.063-.281-.239-.556-.4-.808-.471-.766-.211-.766-4.486 0-2.637.021-3.692.084-3.903.057-.182.218-.414.443-.639.31-.31.436-.38 1.055-.577 6.04-1.898 8.184-2.588 8.332-2.658.26-.14.612-.527.731-.822.359-.858-.147-1.983-1.068-2.398-.704-.31-.711-.31-7.151 1.181Zm6.672-.148c.472.197.697.795.408 1.083-.07.071-1.954.703-4.444 1.484-2.376.752-4.464 1.434-4.64 1.519a2.72 2.72 0 0 0-1.238 1.272c-.232.464-.267.591-.295 1.224l-.035.703-.366.169c-.45.203-.815.562-1.068 1.047-.169.317-.197.45-.197.964 0 .513.028.646.197.963.253.485.618.844 1.082 1.054l.373.169v1.188h-5.632l.021-3.149c.028-3.488.035-3.495.52-4.486a4.965 4.965 0 0 1 2.328-2.286c.499-.246 1.033-.386 3.902-1.047 1.828-.422 4.479-1.034 5.892-1.357 1.414-.331 2.658-.598 2.764-.605.105-.007.295.035.428.091Zm-10.223 9.465c0 .527-.028.914-.063.914-.042 0-.155-.113-.26-.247-.24-.323-.296-.773-.134-1.096.141-.275.309-.486.401-.486.028 0 .056.408.056.915Zm21.333 2.334c.387.112.97.696 1.083 1.083.133.45.105.717-.092.907l-.169.176h-3.937c-3.614 0-3.966.007-4.345.126-.239.077-2.525 1.343-5.576 3.087-2.841 1.624-5.238 2.988-5.323 3.037l-.161.085v-4.261l4.239-1.61c2.328-.893 4.88-1.864 5.675-2.166l1.441-.541 3.438-.007c2.496 0 3.516.021 3.727.084Zm-21.122 2.482c.169.394.612.879.963 1.062.556.281.513 0 .513 3.185v2.854l-.365.176c-.464.225-.942.696-1.118 1.09l-.141.317H132.5v-9h5.702l.134.316Zm20.602.914c0 .063-.078.19-.176.281l-.169.176h-3.811l-.169-.176c-.098-.091-.175-.218-.175-.281 0-.091.267-.106 2.25-.106 1.982 0 2.25.015 2.25.106Zm-19.688 9.176v.281h-7.875v-.563h7.875v.282Z"/>
    <path fill="#4A4849" d="m154.051 154.808-.176.169v5.428l.176.169a.516.516 0 0 0 .773 0l.176-.169v-5.428l-.176-.169a.548.548 0 0 0-.386-.175.548.548 0 0 0-.387.175Zm5.062 0-.175.169v5.428l.175.169a.517.517 0 0 0 .774 0l.175-.169v-5.428l-.175-.169a.55.55 0 0 0-.387-.175.55.55 0 0 0-.387.175Zm-3.375 1.125-.176.169v6.553l.176.169a.517.517 0 0 0 .774 0l.176-.169v-6.553l-.176-.169a.55.55 0 0 0-.387-.175.55.55 0 0 0-.387.175Zm1.688 0-.176.169v6.553l.176.169a.516.516 0 0 0 .773 0l.176-.169v-6.553l-.176-.169a.548.548 0 0 0-.387-.175.548.548 0 0 0-.386.175Z"/>
  </g>
  <path fill="#4A4849" d="M115.881 213.896h.841c-.069.67-.253 1.249-.554 1.737a3.004 3.004 0 0 1-1.23 1.114c-.52.26-1.147.39-1.88.39a3.59 3.59 0 0 1-1.538-.322 3.402 3.402 0 0 1-1.176-.909 4.243 4.243 0 0 1-.759-1.422 5.96 5.96 0 0 1-.267-1.838v-1.245c0-.674.089-1.285.267-1.832a4.187 4.187 0 0 1 .766-1.422 3.41 3.41 0 0 1 1.196-.916 3.718 3.718 0 0 1 1.572-.321c.707 0 1.317.13 1.832.39.515.255.921.624 1.217 1.107.301.483.485 1.067.554 1.75h-.841c-.064-.538-.205-.993-.424-1.367a2.164 2.164 0 0 0-.909-.854c-.383-.201-.859-.301-1.429-.301-.465 0-.879.089-1.244.266a2.596 2.596 0 0 0-.93.766 3.555 3.555 0 0 0-.588 1.183c-.132.46-.198.973-.198 1.538v1.258c0 .546.064 1.05.192 1.51.127.461.314.859.56 1.197.251.337.556.599.916.786.36.187.77.28 1.231.28.588 0 1.077-.093 1.469-.28.397-.192.704-.474.923-.848.219-.374.362-.839.431-1.395Zm7.198 1.778v-3.815a1.8 1.8 0 0 0-.219-.909 1.44 1.44 0 0 0-.642-.588c-.283-.136-.631-.205-1.046-.205-.383 0-.725.069-1.026.205a1.77 1.77 0 0 0-.704.54 1.213 1.213 0 0 0-.253.745l-.82-.006c0-.278.069-.547.205-.807a2.27 2.27 0 0 1 .581-.697c.251-.205.549-.367.896-.486a3.471 3.471 0 0 1 1.155-.184c.529 0 .994.089 1.395.266.405.178.722.445.95.8.228.356.342.802.342 1.34v3.575c0 .255.018.52.054.793.041.274.098.499.171.677V217h-.868a3.318 3.318 0 0 1-.13-.615 6.67 6.67 0 0 1-.041-.711Zm.192-2.981.013.629h-1.606c-.42 0-.796.039-1.128.116a2.573 2.573 0 0 0-.834.329 1.578 1.578 0 0 0-.527.512 1.326 1.326 0 0 0-.177.684c0 .264.066.506.198.725a1.5 1.5 0 0 0 .574.526c.251.127.547.191.889.191.456 0 .857-.084 1.203-.253.351-.168.64-.389.868-.663.228-.273.381-.572.458-.895l.356.471c-.06.228-.169.463-.329.705a3.02 3.02 0 0 1-.608.669 3.208 3.208 0 0 1-.889.506c-.337.128-.72.192-1.148.192-.483 0-.905-.091-1.265-.274a2.103 2.103 0 0 1-.834-.745 2.021 2.021 0 0 1-.294-1.08c0-.364.078-.69.233-.977a2.07 2.07 0 0 1 .67-.739c.296-.205.651-.36 1.066-.465a5.6 5.6 0 0 1 1.408-.164h1.703Zm7.861.219v.697h-4.389v-.697h4.389Zm-4.177-3.308V217h-.813v-7.396h.813Zm4.806 0V217h-.821v-7.396h.821Zm4.812 0V217h-.813v-7.396h.813Zm2.694 0v.697h-6.105v-.697h6.105Zm3.664 7.533c-.483 0-.928-.089-1.333-.267a3.188 3.188 0 0 1-1.053-.752 3.479 3.479 0 0 1-.691-1.148 4.338 4.338 0 0 1-.239-1.463v-.294c0-.57.085-1.085.253-1.545.169-.46.401-.855.697-1.183a3.114 3.114 0 0 1 1.012-.752 2.836 2.836 0 0 1 1.203-.266c.47 0 .887.084 1.251.253.365.164.67.398.916.704.251.301.44.658.568 1.073.127.41.191.864.191 1.36v.499h-5.599v-.697h4.786v-.096a3.03 3.03 0 0 0-.253-1.162 2.104 2.104 0 0 0-.698-.888c-.31-.228-.697-.342-1.162-.342a2.11 2.11 0 0 0-.957.219 2.165 2.165 0 0 0-.745.629c-.205.268-.364.59-.478.963-.11.37-.164.78-.164 1.231v.294c0 .41.059.793.177 1.148.123.351.297.661.52.93.228.269.497.478.806.629.31.15.652.225 1.026.225.437 0 .825-.079 1.162-.239.337-.164.64-.421.909-.772l.513.396c-.16.237-.36.456-.602.656-.237.201-.522.36-.854.479-.333.118-.72.178-1.162.178Zm4.71-7.533 1.996 2.987 2.003-2.987h.97l-2.508 3.623 2.611 3.773h-.957l-2.112-3.124-2.106 3.124h-.957l2.611-3.773-2.508-3.623h.957Zm11.546 3.308v.697h-4.389v-.697h4.389Zm-4.177-3.308V217h-.814v-7.396h.814Zm4.805 0V217h-.82v-7.396h.82Zm3.063 6.07 3.999-6.07h.82V217h-.82v-6.07l-3.999 6.07h-.807v-7.396h.807v6.07Zm7.882-6.07V217h-.821v-7.396h.821Zm4.867 0-3.391 4.005h-1.763l-.089-.731h1.504l2.707-3.274h1.032Zm-.738 7.396-3.083-3.5.519-.629 3.644 4.129h-1.08Zm6.76-1.326v-3.815a1.81 1.81 0 0 0-.218-.909 1.443 1.443 0 0 0-.643-.588c-.282-.136-.631-.205-1.046-.205-.383 0-.724.069-1.025.205a1.764 1.764 0 0 0-.704.54 1.207 1.207 0 0 0-.253.745l-.821-.006c0-.278.069-.547.206-.807.136-.26.33-.492.581-.697.25-.205.549-.367.895-.486a3.471 3.471 0 0 1 1.155-.184c.529 0 .994.089 1.395.266.405.178.722.445.95.8.228.356.342.802.342 1.34v3.575c0 .255.018.52.055.793.041.274.098.499.17.677V217h-.868a3.402 3.402 0 0 1-.13-.615 6.67 6.67 0 0 1-.041-.711Zm.192-2.981.013.629h-1.606c-.419 0-.795.039-1.128.116a2.573 2.573 0 0 0-.834.329 1.575 1.575 0 0 0-.526.512 1.317 1.317 0 0 0-.178.684c0 .264.066.506.198.725a1.5 1.5 0 0 0 .574.526c.251.127.547.191.889.191.456 0 .857-.084 1.203-.253.351-.168.641-.389.868-.663.228-.273.381-.572.458-.895l.356.471a2.387 2.387 0 0 1-.328.705 3.05 3.05 0 0 1-.609.669c-.25.206-.546.374-.888.506-.338.128-.72.192-1.149.192-.483 0-.904-.091-1.264-.274a2.09 2.09 0 0 1-.834-.745 2.021 2.021 0 0 1-.294-1.08c0-.364.077-.69.232-.977a2.07 2.07 0 0 1 .67-.739c.296-.205.652-.36 1.066-.465.42-.109.889-.164 1.409-.164h1.702Z"/>
  <g filter="url(#g)">
    <circle cx="322" cy="270" r="45" fill="#FDFDFD"/>
  </g>
  <g clip-path="url(#h)">
    <path fill="#4A4849" d="M327.203 252.113c-.816.217-1.505.808-1.905 1.61-.225.464-.239.527-.239 1.265 0 .725.014.802.225 1.245a2.93 2.93 0 0 0 1.42 1.448c.513.253.548.26 1.308.26.745 0 .794-.014 1.265-.239 1.857-.914 2.285-3.255.872-4.753a2.96 2.96 0 0 0-2.946-.836Zm1.181 1.448c.464.112.95.612 1.062 1.083a1.447 1.447 0 0 1-.773 1.673c-.619.303-1.238.211-1.716-.274-.485-.478-.577-1.097-.274-1.716.197-.393.555-.689.956-.78.331-.077.38-.077.745.014Zm8.958-1.406c-.126.091-2.594 3.213-5.498 6.947-3.811 4.907-5.281 6.848-5.316 7.024-.112.562.492 1.026 1.062.808.141-.056 10.638-13.535 10.814-13.893.113-.225.12-.303.049-.514-.091-.288-.422-.527-.71-.527-.098 0-.281.07-.401.155Z"/>
    <path fill="#4A4849" d="M304.443 258.075c-.232.105-.443.422-.443.675 0 .218.19.541.373.647.105.063.618.105 1.631.126 1.371.035 1.498.05 1.793.204.422.218.823.605 1.019.992.113.218.704 2.854 1.962 8.754 2.039 9.506 1.927 9.091 2.735 9.907.239.232.626.527.865.653.879.465.373.443 9.872.443 9.492 0 9 .022 9.865-.436.794-.421 1.462-1.181 1.737-1.975.239-.682 1.694-7.32 1.652-7.517a.883.883 0 0 0-.26-.372.727.727 0 0 0-1.174.337c-.043.12-.408 1.73-.816 3.565-.485 2.18-.809 3.466-.921 3.705-.197.408-.584.774-1.076 1.02l-.323.162h-17.297l-.394-.183a2.182 2.182 0 0 1-1.083-1.076c-.098-.218-.647-2.637-1.399-6.159a820.937 820.937 0 0 0-1.28-5.928c-.035-.112.267-.119 5.703-.119 5.231 0 5.758-.007 5.941-.12.387-.225.471-.787.183-1.125l-.169-.197-5.998-.035-6.004-.035-.352-1.652c-.387-1.786-.485-2.117-.808-2.602a3.874 3.874 0 0 0-2.11-1.582c-.541-.176-3.094-.225-3.424-.077Zm31.76 3.038c-.816.217-1.505.808-1.905 1.61-.225.464-.239.527-.239 1.265 0 .725.014.802.225 1.245a2.93 2.93 0 0 0 1.42 1.448c.513.253.548.26 1.308.26.745 0 .794-.014 1.265-.239 1.857-.914 2.285-3.255.872-4.753a2.96 2.96 0 0 0-2.946-.836Zm1.181 1.448c.464.112.95.612 1.062 1.083a1.447 1.447 0 0 1-.773 1.673c-.619.303-1.238.211-1.716-.274-.485-.478-.577-1.097-.274-1.716.197-.393.555-.689.956-.78.331-.077.38-.077.745.014Zm-19.87 21.066a2.22 2.22 0 0 0-1.118.886c-.302.442-.394.815-.359 1.413.057.815.5 1.483 1.238 1.842.337.169.485.197.963.197.738-.007 1.174-.19 1.645-.71.802-.879.802-2.131 0-3.01-.597-.661-1.553-.907-2.369-.618Zm.998 1.448c.654.274.612 1.153-.056 1.378-.45.148-.956-.232-.956-.703 0-.253.211-.57.443-.668.281-.127.288-.127.569-.007Zm11.117-1.484c-.464.155-.696.303-.999.633-.365.394-.478.612-.583 1.118-.197.985.351 2.025 1.3 2.461.535.246 1.343.232 1.878-.035a2.408 2.408 0 0 0 1.054-1.048c.134-.253.162-.407.162-.97 0-.745-.105-1.034-.569-1.547-.514-.562-1.533-.844-2.243-.612Zm.914 1.484c.246.106.457.415.457.675 0 .471-.506.851-.956.703a.731.731 0 0 1-.071-1.378c.274-.119.281-.119.57 0Z"/>
  </g>
  <g filter="url(#i)">
    <rect width="75" height="75" x="382.5" fill="#FDFDFD" rx="37.5" shape-rendering="crispEdges"/>
    <path fill="#4A4849" d="M411.077 25.244c-.182.064-.457.253-.64.436-.611.612-.562-.38-.562 11.82 0 12.2-.049 11.208.562 11.812.598.605-.105.563 9.563.563 9.668 0 8.965.042 9.562-.563.612-.604.563.387.563-11.812 0-12.2.049-11.208-.563-11.813-.597-.604.113-.562-9.59-.555-7.615 0-8.62.014-8.895.112Zm17.684 1.245.239.239v2.897h-18v-2.897l.239-.24.239-.238h17.044l.239.239ZM429 39.51v8.76l-.239.24-.239.239h-17.044l-.239-.24-.239-.238V30.75h18v8.76Z"/>
    <path fill="#4A4849" d="M422.426 27.55a.546.546 0 0 0-.176.387c0 .134.063.282.176.387.161.169.218.176.949.176s.787-.007.949-.176a.546.546 0 0 0 .176-.387.546.546 0 0 0-.176-.386c-.162-.169-.218-.176-.949-.176s-.788.007-.949.176Zm3.375 0a.546.546 0 0 0-.176.387c0 .134.063.282.176.387.161.169.218.176.949.176s.787-.007.949-.176a.546.546 0 0 0 .176-.387.546.546 0 0 0-.176-.386c-.162-.169-.218-.176-.949-.176s-.788.007-.949.176Zm-6.806 5.527c-.9.134-2.047.584-2.855 1.132-.577.387-1.561 1.455-1.913 2.06-.724 1.259-.942 2.074-.935 3.48 0 1.126.092 1.61.457 2.525.324.801.802 1.519 1.47 2.194a6.682 6.682 0 0 0 3.311 1.87c.802.19 2.307.176 3.087-.035 1.322-.359 2.173-.851 3.129-1.807.956-.957 1.448-1.814 1.807-3.13.218-.829.225-2.439 0-3.24-.724-2.644-2.791-4.564-5.407-5.02a7.348 7.348 0 0 0-2.151-.029Zm2.341 1.21c.703.196 1.181.4 1.709.752 2.995 1.954 3.445 6.16.928 8.683-2.525 2.517-6.729 2.067-8.684-.928-.626-.956-.879-1.82-.879-3.044s.253-2.089.872-3.038a5.77 5.77 0 0 1 3.663-2.489c.563-.12 1.842-.084 2.391.063Z"/>
    <path fill="#4A4849" d="M419.016 35.355c-1.238.268-2.468 1.23-3.017 2.37-.661 1.364-.661 2.686 0 4.05.71 1.477 2.327 2.475 4.001 2.475 1.666 0 3.241-.977 3.994-2.46.668-1.337.675-2.736 0-4.08-.907-1.806-2.968-2.783-4.978-2.355Zm1.792 1.126a3.439 3.439 0 0 1 2.461 2.474c.457 1.751-.661 3.593-2.461 4.065-1.764.457-3.607-.661-4.078-2.461-.625-2.412 1.667-4.704 4.078-4.078Z"/>
  </g>
  <path fill="#4A4849" d="M371.93 95.047v.725h-5.161V105h-.841v-9.953h6.002Zm-5.455 4.313h2.754c.721 0 1.324.119 1.812.356.492.232.864.56 1.114.984.251.419.376.909.376 1.47 0 .415-.07.795-.212 1.142a2.482 2.482 0 0 1-.629.902 2.876 2.876 0 0 1-1.032.581c-.41.137-.886.205-1.429.205h-3.301v-9.953h.841v9.235h2.46c.584 0 1.056-.098 1.416-.294.36-.2.624-.462.793-.786.168-.323.252-.672.252-1.046a2.14 2.14 0 0 0-.252-1.025c-.169-.315-.433-.568-.793-.759-.36-.196-.832-.294-1.416-.294h-2.754v-.718Zm8.709.923h2.413c.583 0 1.075.103 1.476.308.401.2.704.478.909.834.21.355.315.756.315 1.203 0 .337-.059.652-.178.943a2.034 2.034 0 0 1-.519.752 2.361 2.361 0 0 1-.848.499 3.426 3.426 0 0 1-1.155.178h-2.933v-7.397h.814v6.693h2.119c.451 0 .815-.078 1.093-.233a1.44 1.44 0 0 0 .602-.615 1.73 1.73 0 0 0 .191-.8 1.72 1.72 0 0 0-.191-.793 1.44 1.44 0 0 0-.602-.622c-.278-.164-.642-.246-1.093-.246h-2.413v-.704Zm7.622-2.68V105h-.814v-7.397h.814Zm4.894 0V105h-.813v-7.397h.813Zm2.694 0v.698h-6.105v-.698h6.105Zm.615 3.815v-.226c0-.537.077-1.034.232-1.49.155-.456.376-.85.663-1.183.292-.332.641-.59 1.046-.772.406-.187.857-.28 1.354-.28.501 0 .954.093 1.36.28.406.182.754.44 1.046.772.292.333.515.727.67 1.183.155.456.232.953.232 1.49v.226a4.6 4.6 0 0 1-.232 1.49 3.473 3.473 0 0 1-.67 1.176 3.032 3.032 0 0 1-1.039.779 3.257 3.257 0 0 1-1.354.274c-.501 0-.954-.091-1.36-.274a3.096 3.096 0 0 1-1.046-.779 3.473 3.473 0 0 1-.67-1.176 4.6 4.6 0 0 1-.232-1.49Zm.813-.226v.226c0 .406.055.791.164 1.155.11.36.269.682.479.964.209.278.469.497.779.656.31.16.668.24 1.073.24.401 0 .755-.08 1.06-.24.31-.159.57-.378.779-.656a3.01 3.01 0 0 0 .472-.964c.109-.364.164-.749.164-1.155v-.226c0-.401-.055-.781-.164-1.141a2.928 2.928 0 0 0-.479-.964 2.29 2.29 0 0 0-.779-.67 2.243 2.243 0 0 0-1.066-.246c-.401 0-.757.082-1.067.246a2.388 2.388 0 0 0-.779.67 3.13 3.13 0 0 0-.479.964 4.09 4.09 0 0 0-.157 1.141Zm10.753.397h-2.597l-.014-.684h2.215c.446 0 .818-.048 1.114-.143.301-.101.526-.249.677-.445a1.13 1.13 0 0 0 .232-.724c0-.219-.045-.41-.137-.574a1.014 1.014 0 0 0-.396-.404 1.975 1.975 0 0 0-.656-.232 4.456 4.456 0 0 0-.909-.082h-1.894V105h-.814v-7.397h2.708c.451 0 .854.041 1.209.124.361.077.668.195.923.355.256.16.449.365.581.615.137.246.205.538.205.875 0 .228-.043.442-.129.643a1.66 1.66 0 0 1-.383.533 1.972 1.972 0 0 1-.609.383 2.8 2.8 0 0 1-.834.178l-.492.28Zm0 3.411h-2.85l.314-.697h2.536c.41 0 .759-.053 1.046-.157.287-.105.504-.26.65-.465.15-.205.225-.454.225-.745 0-.274-.075-.511-.225-.711-.146-.201-.363-.356-.65-.465-.287-.114-.636-.171-1.046-.171h-1.887l.014-.684h2.427l.349.26c.373.032.697.132.97.301.274.168.486.383.636.642.15.256.226.536.226.841 0 .337-.064.636-.192.896a1.73 1.73 0 0 1-.554.642 2.558 2.558 0 0 1-.861.383c-.337.087-.713.13-1.128.13Zm9.065-1.326v-3.815a1.8 1.8 0 0 0-.219-.909 1.44 1.44 0 0 0-.643-.588c-.282-.136-.631-.205-1.046-.205-.382 0-.724.069-1.025.205a1.767 1.767 0 0 0-.704.54 1.205 1.205 0 0 0-.253.745l-.82-.006c0-.278.068-.547.205-.807.136-.26.33-.492.581-.697.25-.205.549-.367.895-.486a3.47 3.47 0 0 1 1.156-.184c.528 0 .993.089 1.394.266.406.178.722.445.95.8.228.356.342.802.342 1.34v3.575c0 .255.018.52.055.793.041.274.098.499.171.677V105h-.868a3.318 3.318 0 0 1-.13-.615 6.417 6.417 0 0 1-.041-.711Zm.191-2.981.014.629h-1.607c-.419 0-.795.039-1.128.116a2.573 2.573 0 0 0-.834.329 1.584 1.584 0 0 0-.526.512 1.326 1.326 0 0 0-.178.684c0 .264.066.506.199.725.136.218.328.394.574.526.25.127.547.191.888.191.456 0 .857-.084 1.204-.253.35-.168.64-.389.868-.663.228-.273.38-.572.458-.895l.355.471a2.362 2.362 0 0 1-.328.705c-.155.237-.358.46-.608.669a3.208 3.208 0 0 1-.889.506c-.337.128-.72.192-1.148.192-.484 0-.905-.091-1.265-.274a2.09 2.09 0 0 1-.834-.745 2.021 2.021 0 0 1-.294-1.08c0-.364.077-.69.232-.977.155-.292.379-.538.67-.739.297-.205.652-.36 1.067-.465a5.594 5.594 0 0 1 1.408-.164h1.702Zm4.43.916h.902L415.112 105h-.902l2.051-3.391Zm.868-4.005h2.905V105h-.813v-6.7h-2.092c-.433 0-.786.074-1.06.22a1.387 1.387 0 0 0-.594.56 1.57 1.57 0 0 0-.185.745c0 .251.055.49.164.718.114.228.289.415.526.561.237.141.545.211.923.211h2.612v.705h-2.612c-.387 0-.731-.055-1.032-.165a2.209 2.209 0 0 1-.766-.458 2.046 2.046 0 0 1-.471-.704 2.435 2.435 0 0 1-.157-.882c0-.319.057-.61.17-.875a2.07 2.07 0 0 1 .513-.704c.228-.2.506-.355.834-.464a3.61 3.61 0 0 1 1.135-.165Zm11.149 0V105h-.813v-7.397h.813Zm2.694 0v.697h-6.105v-.698h6.105Zm3.664 7.533c-.483 0-.928-.089-1.333-.267a3.188 3.188 0 0 1-1.053-.752 3.46 3.46 0 0 1-.69-1.148 4.313 4.313 0 0 1-.24-1.463v-.294c0-.57.085-1.085.253-1.545.169-.46.401-.855.698-1.183a3.085 3.085 0 0 1 1.011-.752 2.826 2.826 0 0 1 1.203-.266c.47 0 .887.084 1.251.253.365.164.67.398.916.704.251.3.44.658.568 1.073.127.41.191.864.191 1.36v.499h-5.599v-.697h4.786v-.096a3.01 3.01 0 0 0-.253-1.162 2.102 2.102 0 0 0-.698-.888c-.309-.228-.697-.342-1.162-.342a2.11 2.11 0 0 0-.957.219 2.18 2.18 0 0 0-.745.629 3.03 3.03 0 0 0-.478.963c-.11.37-.164.78-.164 1.231v.294c0 .41.059.793.177 1.148.123.351.297.661.52.93.228.269.497.478.807.629.309.15.651.225 1.025.225.437 0 .825-.079 1.162-.239.337-.164.64-.421.909-.772l.513.396c-.16.237-.36.456-.602.656-.237.201-.521.36-.854.479-.333.118-.72.178-1.162.178Zm4.71-7.534 1.996 2.988 2.003-2.987h.97l-2.508 3.623 2.611 3.773h-.957l-2.112-3.124-2.106 3.124h-.957l2.611-3.773-2.508-3.624h.957Zm11.546 3.309v.697h-4.389v-.697h4.389Zm-4.177-3.309V105h-.814v-7.397h.814Zm4.806 0V105h-.821v-7.397h.821Zm3.062 6.071 3.999-6.07h.82V105h-.82v-6.07l-3.999 6.07h-.807v-7.397h.807v6.071Zm7.882-6.07V105h-.82v-7.397h.82Zm4.867 0-3.391 4.005h-1.763l-.089-.731h1.504l2.707-3.275h1.032Zm-.738 7.396-3.083-3.5.519-.629 3.644 4.129h-1.08Zm6.76-1.326v-3.815a1.8 1.8 0 0 0-.218-.909 1.44 1.44 0 0 0-.643-.588c-.282-.136-.631-.205-1.046-.205a2.45 2.45 0 0 0-1.025.205 1.767 1.767 0 0 0-.704.54 1.205 1.205 0 0 0-.253.745l-.82-.006c0-.278.068-.547.205-.807.136-.26.33-.492.581-.697.25-.205.549-.367.895-.486a3.469 3.469 0 0 1 1.155-.184c.529 0 .994.089 1.395.266.406.178.722.445.95.8.228.356.342.802.342 1.34v3.575c0 .255.018.52.055.793.041.274.098.499.171.677V105h-.869a3.326 3.326 0 0 1-.129-.615 6.428 6.428 0 0 1-.042-.711Zm.192-2.981.014.629h-1.607c-.419 0-.795.039-1.128.116a2.573 2.573 0 0 0-.834.329 1.575 1.575 0 0 0-.526.512 1.317 1.317 0 0 0-.178.684c0 .264.066.506.198.725.137.218.328.394.575.526.25.127.546.191.888.191.456 0 .857-.084 1.203-.253.351-.168.641-.389.869-.663.227-.273.38-.572.458-.895l.355.471a2.387 2.387 0 0 1-.328.705 3.05 3.05 0 0 1-.609.669c-.25.206-.546.374-.888.506-.337.128-.72.192-1.149.192-.483 0-.904-.091-1.264-.274a2.09 2.09 0 0 1-.834-.745 2.021 2.021 0 0 1-.294-1.08c0-.364.077-.69.232-.977a2.07 2.07 0 0 1 .67-.739c.296-.205.652-.36 1.067-.465a5.594 5.594 0 0 1 1.408-.164h1.702Z"/>
  <g filter="url(#j)">
    <rect width="75" height="75" x="513.5" y="263" fill="#FDFDFD" rx="37.5" shape-rendering="crispEdges"/>
    <g clip-path="url(#k)">
      <path fill="#4A4849" d="M537.177 282.57a.733.733 0 0 0-.268.225c-.105.141-.112 1.702-.112 17.719v17.557l.169.197.168.197h27.732l.168-.197.169-.197v-35.142l-.169-.197-.168-.197-13.775-.014c-7.664-.007-13.83.014-13.914.049Zm13.19 17.93v16.734h-12.305v-33.468h12.305V300.5Zm13.571-13.043v3.691h-12.305v-7.382h12.305v3.691Zm0 8.719v3.691h-12.305v-7.383h12.305v3.692Zm0 8.648v3.692h-12.305v-7.383h12.305v3.691Zm0 8.719v3.691h-12.305v-7.382h12.305v3.691Z"/>
      <path fill="#4A4849" d="m548.138 297.786-.197.169v5.09l.197.169c.267.232.605.225.851-.014l.183-.19v-5.02l-.183-.19c-.246-.239-.584-.246-.851-.014Z"/>
    </g>
  </g>
  <path fill="#4A4849" d="M493.011 358.047V368h-.841v-9.953h.841Zm6.234 0-4.416 5.284h-2.153l-.075-.725h1.736l3.855-4.559h1.053ZM498.5 368l-4.204-4.765.485-.738 4.765 5.503H498.5Zm1.75-3.582v-.226c0-.537.077-1.034.232-1.49.155-.456.376-.85.664-1.182.291-.333.64-.591 1.045-.773.406-.187.857-.28 1.354-.28.501 0 .955.093 1.36.28.406.182.755.44 1.046.773.292.332.515.726.67 1.182.155.456.233.953.233 1.49v.226a4.6 4.6 0 0 1-.233 1.49 3.473 3.473 0 0 1-.67 1.176 3.022 3.022 0 0 1-1.039.779 3.252 3.252 0 0 1-1.353.274c-.502 0-.955-.091-1.361-.274a3.106 3.106 0 0 1-1.046-.779 3.49 3.49 0 0 1-.67-1.176 4.6 4.6 0 0 1-.232-1.49Zm.813-.226v.226c0 .406.055.791.165 1.155.109.36.268.682.478.964.21.278.469.497.779.656.31.16.668.24 1.074.24.401 0 .754-.08 1.059-.24.31-.159.57-.378.779-.656a3.01 3.01 0 0 0 .472-.964c.11-.364.164-.749.164-1.155v-.226c0-.401-.054-.781-.164-1.141a2.941 2.941 0 0 0-.478-.964 2.297 2.297 0 0 0-.78-.67 2.244 2.244 0 0 0-1.066-.246c-.401 0-.757.082-1.066.246a2.374 2.374 0 0 0-.78.67 3.129 3.129 0 0 0-.478.964c-.105.36-.158.74-.158 1.141Zm8.292-2.167v8.819h-.82v-10.24h.766l.054 1.421Zm5.141 2.208v.144c0 .551-.064 1.057-.191 1.518-.128.46-.312.859-.554 1.196-.237.333-.531.59-.882.772a2.55 2.55 0 0 1-1.196.274 3.22 3.22 0 0 1-1.183-.205 2.608 2.608 0 0 1-.895-.581 3.079 3.079 0 0 1-.595-.889 4.538 4.538 0 0 1-.308-1.121v-1.894a5.1 5.1 0 0 1 .335-1.217c.155-.364.354-.679.595-.943.246-.264.538-.467.875-.608a2.952 2.952 0 0 1 1.155-.212c.452 0 .853.089 1.203.266.356.174.654.427.896.759.246.328.431.725.554 1.19.127.46.191.977.191 1.551Zm-.82.144v-.144c0-.433-.046-.834-.137-1.203a2.947 2.947 0 0 0-.403-.964 1.904 1.904 0 0 0-.684-.649c-.273-.155-.599-.232-.977-.232-.392 0-.727.066-1.005.198a1.963 1.963 0 0 0-.684.513 2.536 2.536 0 0 0-.431.69 4.118 4.118 0 0 0-.232.738v2.181c.087.346.226.668.417.964.191.291.447.526.766.704.323.173.717.26 1.182.26.374 0 .698-.078.971-.233.273-.155.499-.371.677-.649.182-.278.316-.602.403-.971.091-.369.137-.77.137-1.203Zm7.649-3.773v.71h-4.327v-.71h4.327Zm-4.142 0V368h-.814v-7.396h.814Zm4.812 0V368h-.82v-7.396h.82Zm4.389 6.658 2.304-6.658h.881l-3.131 8.585a6.13 6.13 0 0 1-.246.561 2.593 2.593 0 0 1-.382.588 1.765 1.765 0 0 1-.588.465c-.233.123-.518.184-.855.184-.086 0-.198-.011-.335-.034a1.871 1.871 0 0 1-.287-.055l-.007-.69a2.624 2.624 0 0 0 .417.048c.296 0 .545-.05.745-.151.205-.1.376-.25.513-.451.137-.196.258-.442.362-.738l.609-1.654Zm-2.154-6.658 2.359 6.35.219.855-.595.335-2.871-7.54h.888Zm9.249 6.829c.347 0 .67-.064.971-.192a1.86 1.86 0 0 0 .752-.581c.201-.26.315-.576.342-.95h.779a2.311 2.311 0 0 1-.43 1.258c-.26.364-.602.651-1.026.861a3.117 3.117 0 0 1-1.388.308c-.514 0-.97-.094-1.367-.281a2.733 2.733 0 0 1-.984-.779 3.594 3.594 0 0 1-.602-1.176 5.16 5.16 0 0 1-.198-1.456v-.287c0-.519.066-1.002.198-1.449.137-.451.338-.843.602-1.176a2.72 2.72 0 0 1 .984-.786c.392-.187.846-.28 1.361-.28.528 0 1.002.107 1.422.321a2.53 2.53 0 0 1 1.011.909c.255.392.394.857.417 1.395h-.779a2.066 2.066 0 0 0-.315-1.026 1.873 1.873 0 0 0-.738-.663 2.216 2.216 0 0 0-1.018-.232c-.42 0-.777.082-1.074.246a1.986 1.986 0 0 0-.724.663 3.032 3.032 0 0 0-.404.957 4.755 4.755 0 0 0-.129 1.121v.287c0 .397.041.775.123 1.135.086.356.221.672.403.95.187.278.428.499.725.663.3.16.663.24 1.086.24Zm9.537-3.521v.697h-4.389v-.697h4.389Zm-4.177-3.308V368h-.814v-7.396h.814Zm4.806 0V368h-.821v-7.396h.821Zm6.699 6.07v-3.815a1.8 1.8 0 0 0-.219-.909 1.443 1.443 0 0 0-.643-.588c-.282-.136-.631-.205-1.045-.205-.383 0-.725.069-1.026.205a1.764 1.764 0 0 0-.704.54 1.207 1.207 0 0 0-.253.745l-.82-.006c0-.278.068-.547.205-.807.137-.26.33-.492.581-.697a2.88 2.88 0 0 1 .895-.486 3.473 3.473 0 0 1 1.156-.184c.528 0 .993.089 1.394.266.406.178.723.445.95.8.228.356.342.802.342 1.34v3.575c0 .255.018.52.055.793.041.274.098.499.171.677V368h-.868a3.318 3.318 0 0 1-.13-.615 6.417 6.417 0 0 1-.041-.711Zm.191-2.981.014.629h-1.607c-.419 0-.795.039-1.128.116a2.573 2.573 0 0 0-.834.329 1.584 1.584 0 0 0-.526.512 1.326 1.326 0 0 0-.178.684c0 .264.066.506.199.725.136.218.328.394.574.526.25.127.547.191.889.191.455 0 .856-.084 1.203-.253.351-.168.64-.389.868-.663.228-.273.38-.572.458-.895l.355.471a2.362 2.362 0 0 1-.328.705c-.155.237-.358.46-.608.669a3.208 3.208 0 0 1-.889.506c-.337.128-.72.192-1.148.192-.483 0-.905-.091-1.265-.274a2.103 2.103 0 0 1-.834-.745 2.021 2.021 0 0 1-.294-1.08c0-.364.078-.69.232-.977.155-.292.379-.538.67-.739.297-.205.652-.36 1.067-.465a5.594 5.594 0 0 1 1.408-.164h1.702Zm4.43.916h.902L553.816 368h-.902l2.051-3.391Zm.868-4.005h2.905V368h-.813v-6.699h-2.092c-.433 0-.786.073-1.06.219a1.392 1.392 0 0 0-.594.56 1.57 1.57 0 0 0-.185.745c0 .251.055.49.164.718.114.228.29.415.527.561.237.141.544.211.922.211h2.612v.705h-2.612c-.387 0-.731-.055-1.032-.165a2.195 2.195 0 0 1-.765-.458 2.035 2.035 0 0 1-.472-.704 2.434 2.434 0 0 1-.157-.881c0-.319.057-.611.171-.875a2.05 2.05 0 0 1 .512-.705c.228-.2.506-.355.834-.464.333-.11.711-.164 1.135-.164Zm12.626 6.275 2.939-6.275h.814L568.746 368h-.574l-3.459-7.396h.813l2.933 6.275Zm-3.186-6.275V368h-.813v-7.396h.813ZM571.59 368v-7.396h.82V368h-.82Zm5.879.137c-.483 0-.928-.089-1.333-.267a3.188 3.188 0 0 1-1.053-.752 3.46 3.46 0 0 1-.69-1.148 4.313 4.313 0 0 1-.24-1.463v-.294c0-.57.085-1.085.253-1.545.169-.46.401-.855.698-1.183a3.1 3.1 0 0 1 1.011-.752 2.836 2.836 0 0 1 1.203-.266c.47 0 .887.084 1.251.253.365.164.67.398.916.704.251.301.44.658.568 1.073.127.41.191.864.191 1.36v.499h-5.598v-.697h4.785v-.096a3.012 3.012 0 0 0-.253-1.162 2.104 2.104 0 0 0-.698-.888c-.309-.228-.697-.342-1.162-.342a2.11 2.11 0 0 0-.957.219 2.165 2.165 0 0 0-.745.629c-.205.268-.364.59-.478.963-.11.37-.164.78-.164 1.231v.294c0 .41.059.793.177 1.148.123.351.297.661.52.93.228.269.497.478.807.629.309.15.651.225 1.025.225.437 0 .825-.079 1.162-.239.337-.164.64-.421.909-.772l.513.396c-.16.237-.36.456-.602.656-.237.201-.521.36-.854.479-.333.118-.72.178-1.162.178Zm9.187-10.753h.704c0 .342-.061.626-.184.854a1.441 1.441 0 0 1-.506.554 2.79 2.79 0 0 1-.773.335c-.291.077-.61.144-.957.198a3.166 3.166 0 0 0-1.169.417c-.35.214-.651.508-.902.882-.251.369-.44.827-.567 1.374-.123.542-.173 1.178-.151 1.907v.636h-.704v-.636c0-.802.078-1.513.233-2.133.159-.624.385-1.157.676-1.599a3.64 3.64 0 0 1 1.053-1.053c.41-.264.864-.437 1.361-.519.464-.073.834-.162 1.107-.267.278-.105.476-.235.595-.39a.871.871 0 0 0 .184-.56Zm-1.818 3.705c.483 0 .918.082 1.306.246.387.164.717.396.991.697a3 3 0 0 1 .636 1.053c.15.401.225.841.225 1.319v.219c0 .51-.077.98-.232 1.408-.151.429-.369.8-.657 1.115a2.89 2.89 0 0 1-1.032.731c-.401.173-.85.26-1.346.26-.502 0-.953-.087-1.354-.26a2.98 2.98 0 0 1-1.032-.731 3.298 3.298 0 0 1-.663-1.115 4.11 4.11 0 0 1-.233-1.408v-.219c0-.132.014-.262.041-.389.032-.128.071-.253.116-.376l.137-.376a3.54 3.54 0 0 1 .677-1.108 3.22 3.22 0 0 1 1.046-.779c.41-.191.868-.287 1.374-.287Zm-.123.697c-.533 0-.982.123-1.347.369-.36.242-.633.563-.82.964-.187.397-.28.825-.28 1.285v.219c0 .378.052.736.157 1.073.105.338.26.638.465.903.209.259.467.464.772.615.305.15.661.225 1.067.225.401 0 .754-.075 1.059-.225.305-.151.561-.356.766-.615.205-.265.36-.565.465-.903a3.62 3.62 0 0 0 .157-1.073v-.219a3.14 3.14 0 0 0-.157-.991 2.437 2.437 0 0 0-.472-.834 2.147 2.147 0 0 0-.773-.581 2.5 2.5 0 0 0-1.059-.212Zm7.711 6.351c-.483 0-.928-.089-1.333-.267a3.188 3.188 0 0 1-1.053-.752 3.46 3.46 0 0 1-.69-1.148 4.313 4.313 0 0 1-.24-1.463v-.294c0-.57.085-1.085.253-1.545.169-.46.401-.855.698-1.183a3.1 3.1 0 0 1 1.011-.752 2.836 2.836 0 0 1 1.203-.266c.47 0 .887.084 1.251.253.365.164.67.398.916.704.251.301.44.658.568 1.073.127.41.191.864.191 1.36v.499h-5.598v-.697h4.785v-.096a3.012 3.012 0 0 0-.253-1.162 2.11 2.11 0 0 0-.697-.888c-.31-.228-.698-.342-1.163-.342a2.11 2.11 0 0 0-.957.219 2.165 2.165 0 0 0-.745.629c-.205.268-.364.59-.478.963-.11.37-.164.78-.164 1.231v.294c0 .41.059.793.177 1.148.123.351.297.661.52.93.228.269.497.478.807.629.309.15.651.225 1.025.225.437 0 .825-.079 1.162-.239.337-.164.64-.421.909-.772l.513.396c-.16.237-.36.456-.602.656-.237.201-.521.36-.854.479-.333.118-.72.178-1.162.178Zm9.406-7.533v.71h-3.746v-.71h3.746Zm.663 0V368h-.813v-7.396h.813Zm-4.628 0h.814l-.164 3.465a15.66 15.66 0 0 1-.137 1.491 6.054 6.054 0 0 1-.246 1.114 2.337 2.337 0 0 1-.404.752 1.465 1.465 0 0 1-.581.437 2.142 2.142 0 0 1-.799.137h-.308v-.738l.253-.007c.196-.009.367-.05.513-.123a.954.954 0 0 0 .382-.349c.11-.159.199-.369.267-.629.073-.259.13-.576.171-.95.046-.378.08-.822.102-1.333l.137-3.267Zm7.445 2.679h2.413c.583 0 1.075.103 1.476.308.401.2.704.478.909.834.21.355.315.756.315 1.203 0 .337-.059.652-.178.943a2.034 2.034 0 0 1-.519.752 2.361 2.361 0 0 1-.848.499 3.426 3.426 0 0 1-1.155.178h-2.933v-7.396h.813v6.692h2.12c.451 0 .815-.078 1.093-.233a1.44 1.44 0 0 0 .602-.615 1.73 1.73 0 0 0 .191-.8 1.72 1.72 0 0 0-.191-.793 1.44 1.44 0 0 0-.602-.622c-.278-.164-.642-.246-1.093-.246h-2.413v-.704Z"/>
  <g filter="url(#l)">
    <rect width="75" height="75" x="72.5" y="367" fill="#FDFDFD" rx="37.5" shape-rendering="crispEdges"/>
    <g clip-path="url(#m)">
      <path fill="#4A4849" d="M102.308 389.805c-2.588 1.814-4.76 3.354-4.83 3.417-.177.162-.177.548.006.731.183.183.45.183 2.117 0 5.779-.619 7.354-.78 7.509-.759l.183.021.155 1.441c.084.795.154 1.519.154 1.617l.007.176-.647-.049c-3.649-.253-6.7.359-8.093 1.638-.914.83-2.278 3.333-2.96 5.421-1.476 4.486-1.083 8.621 1.153 12.228.739 1.188 2.018 2.601 3.129 3.445a16.373 16.373 0 0 0 9.317 3.347c2.482.091 4.472-.302 6.518-1.28 4.247-2.032 7.115-6.18 7.945-11.496.183-1.181.183-4.071 0-4.676-.598-1.954-2.784-4.036-5.878-5.583-.387-.196-.71-.372-.71-.393 0-.021.513-.809 1.146-1.751l1.139-1.716 2.165 2.419c1.189 1.329 2.243 2.468 2.342 2.538.133.085.225.099.358.05.261-.092.472-.401.415-.612-.049-.204-4.851-5.59-5.118-5.738-.394-.225-.479-.133-1.976 2.103a142.067 142.067 0 0 0-1.449 2.172c-.049.078-.26.021-1.104-.288a30.19 30.19 0 0 0-5.498-1.491c-.555-.091-1.02-.182-1.034-.196-.049-.05-.393-3.446-.358-3.481.021-.021 2.116-.253 4.662-.52 2.671-.281 4.703-.521 4.802-.577.26-.133.387-.429.281-.682-.098-.232.141-.119-4.641-2.144-1.8-.767-3.93-1.667-4.746-2.011-.808-.345-1.532-.626-1.617-.626-.077 0-2.257 1.484-4.844 3.305Zm6.426.197c.703.942 1.266 1.722 1.252 1.736-.014.014-.956.12-2.096.239-1.139.12-2.158.232-2.264.253-.112.014-.196 0-.196-.042s.414-.97.928-2.074c.724-1.561.942-1.983 1.012-1.912.042.049.654.864 1.364 1.8Zm3.481-.233c1.701.725 3.122 1.343 3.164 1.379.035.035-.007.063-.106.063-.098 0-1.012.091-2.039.204-1.026.112-1.884.19-1.912.169-.078-.043-2.377-3.101-2.377-3.157 0-.022.042-.029.092-.008.042.022 1.476.626 3.178 1.35Zm-6.575-.724c-.07.169-.45.985-.829 1.814l-.696 1.512-1.997.225c-1.097.127-2.032.218-2.074.211-.078-.014 5.575-4.05 5.681-4.057.028 0-.014.134-.085.295Zm1.118 8.424c.514.035.95.077.971.091.014.021.07.387.119.816l.085.787-.809-.056c-2.974-.204-4.69.19-5.196 1.174-.591 1.139.851 2.848 3.502 4.149.443.225.984.471 1.202.555.302.12.492.267.865.682.26.288.576.577.696.64.253.127.921.141 1.315.021.393-.112.78-.084 1.701.141.478.112 1.315.288 1.864.379.9.148 1.033.197 1.335.415.802.584 1.14.598 2.342.134a9.367 9.367 0 0 1 1.301-.401c1.033-.211 1.673-.591 1.968-1.181.225-.45.225-.753-.007-1.238-.436-.942-1.807-2.081-3.494-2.897a12.116 12.116 0 0 0-.626-.288c-.056-.021.577-1.069.83-1.378.035-.049 1.54.738 2.215 1.146 2.587 1.575 4.211 3.544 4.05 4.908-.169 1.42-1.899 2.58-3.839 2.58-.626 0-.964.176-1.906.985-.914.787-1.076.872-1.357.724-.112-.056-.373-.281-.57-.499-1.469-1.61-1.427-1.582-3.135-1.737a30.74 30.74 0 0 1-1.8-.211c-.992-.183-1.104-.155-1.688.401l-.295.281-.366-.612c-.471-.78-.717-1.019-1.273-1.223-.246-.091-1.068-.464-1.821-.823-1.511-.724-1.624-.752-2.573-.576-.408.07-.464.07-.598-.056-.084-.071-.379-.598-.661-1.161-.372-.766-.611-1.153-.928-1.511-.85-.964-1.216-1.716-1.216-2.475 0-.394.035-.535.204-.823.246-.429.407-.584.956-.914 1.28-.766 3.881-1.139 6.637-.949Zm3.242.422a28.076 28.076 0 0 1 5.681 1.652c.014.014-.176.323-.422.696-.295.457-.478.668-.548.647-.056-.021-.563-.19-1.125-.387a28.121 28.121 0 0 0-3.621-.984l-.914-.183-.085-.668c-.119-.991-.119-.991.071-.949.084.014.52.098.963.176Zm-2.545 2.313c.281.035.527.077.548.098.021.021.155 1.132.302 2.468l.26 2.433-.499-.506c-.379-.394-.597-.556-.914-.682-1.174-.471-2.608-1.287-3.438-1.955-.471-.387-.886-.921-.886-1.153 0-.288.647-.577 1.512-.689.647-.077 2.461-.084 3.115-.014Zm2.749.464c1.195.253 3.769 1.034 3.93 1.195.014.014-.513.83-1.174 1.821-1.16 1.737-1.209 1.8-1.399 1.758l-.682-.176a3.782 3.782 0 0 0-.851-.133h-.366l-.042-.303a174.56 174.56 0 0 1-.218-2.018 112.97 112.97 0 0 0-.211-2.025c-.049-.358-.098-.351 1.013-.119Zm-11.37 2.102c.127.155.373.443.549.64.21.225.464.647.731 1.195.865 1.8 1.174 2.032 2.44 1.814l.633-.105 1.103.527c.605.296 1.393.654 1.737.802l.633.267.429.654c.534.809.759 1.048 1.062 1.132.351.098.675-.028 1.125-.443l.407-.366.422.085c.239.049.978.14 1.653.204.675.063 1.329.14 1.441.183.218.063.738.562 1.322 1.265.443.535.921.837 1.413.886.535.056 1.083-.211 1.927-.956.365-.317.724-.619.808-.668.085-.056.443-.12.788-.148a9.313 9.313 0 0 0 1.125-.154c.605-.127 1.652-.626 2.06-.971l.295-.26v.38c0 .204-.049.689-.105 1.069-.682 4.507-3.256 8.402-6.701 10.132-1.195.597-2.946 1.125-4.43 1.328-1.026.148-2.932.148-3.958 0a13.898 13.898 0 0 1-7.854-3.888c-1.94-1.926-3.143-4.254-3.642-7.038-.169-.921-.169-3.009 0-3.973.26-1.547.682-2.861 1.35-4.254l.386-.808.317.59c.169.324.415.718.534.879Zm17.206-.098c1.849.949 3.143 2.074 3.002 2.622-.056.24-.598.5-1.343.654a7.243 7.243 0 0 0-1.132.352c-.316.127-.703.26-.858.302-.274.057-.316.042-.59-.168a7.419 7.419 0 0 0-.514-.338c-.232-.112-1.181-.33-1.476-.33-.099 0-.176-.022-.176-.05 0-.126 2.222-3.396 2.306-3.396.056 0 .408.162.781.352Z"/>
    </g>
  </g>
  <path fill="#4A4849" d="M96.089 466.49v1.067c0 .697-.091 1.328-.274 1.893a4.105 4.105 0 0 1-.779 1.443 3.397 3.397 0 0 1-1.217.922 3.83 3.83 0 0 1-1.6.322 3.826 3.826 0 0 1-1.585-.322 3.461 3.461 0 0 1-1.224-.922 4.281 4.281 0 0 1-.793-1.443 6.006 6.006 0 0 1-.28-1.893v-1.067c0-.697.091-1.326.273-1.886a4.267 4.267 0 0 1 .793-1.45c.342-.401.75-.708 1.224-.923.474-.214 1-.321 1.58-.321.592 0 1.125.107 1.599.321.474.215.882.522 1.223.923.342.401.604.884.786 1.45.183.56.274 1.189.274 1.886Zm-.834 1.067v-1.08c0-.588-.069-1.117-.205-1.586a3.372 3.372 0 0 0-.595-1.203 2.605 2.605 0 0 0-.957-.766 3 3 0 0 0-1.292-.267c-.47 0-.89.089-1.265.267a2.68 2.68 0 0 0-.957.766c-.26.332-.46.733-.601 1.203a5.668 5.668 0 0 0-.205 1.586v1.08c0 .592.068 1.125.205 1.599.141.47.344.873.608 1.21.264.333.584.588.957.766a2.95 2.95 0 0 0 1.272.266c.487 0 .918-.088 1.292-.266a2.62 2.62 0 0 0 .95-.766c.26-.337.456-.74.588-1.21a5.768 5.768 0 0 0 .205-1.599Zm5.38-2.953V472h-.814v-7.396h.814Zm2.693 0v.697h-6.104v-.697h6.104Zm6.364 0v.71h-4.327v-.71h4.327Zm-4.142 0V472h-.814v-7.396h.814Zm4.812 0V472h-.82v-7.396h.82Zm4.389 6.658 2.304-6.658h.882l-3.131 8.585a6.737 6.737 0 0 1-.246.561 2.632 2.632 0 0 1-.383.588 1.765 1.765 0 0 1-.588.465c-.233.123-.517.184-.855.184-.086 0-.198-.011-.335-.034a1.897 1.897 0 0 1-.287-.055l-.007-.69a2.624 2.624 0 0 0 .417.048c.297 0 .545-.05.746-.151a1.3 1.3 0 0 0 .512-.451c.137-.196.258-.442.363-.738l.608-1.654Zm-2.153-6.658 2.358 6.35.219.855-.595.335-2.871-7.54h.889Zm9.249 6.829c.346 0 .67-.064.97-.192a1.86 1.86 0 0 0 .752-.581c.201-.26.315-.576.342-.95h.779a2.303 2.303 0 0 1-.43 1.258c-.26.364-.602.651-1.026.861a3.112 3.112 0 0 1-1.387.308c-.515 0-.971-.094-1.368-.281a2.742 2.742 0 0 1-.984-.779 3.573 3.573 0 0 1-.601-1.176 5.124 5.124 0 0 1-.199-1.456v-.287c0-.519.066-1.002.199-1.449.136-.451.337-.843.601-1.176.264-.337.593-.599.984-.786.392-.187.846-.28 1.361-.28.528 0 1.002.107 1.422.321.424.214.761.517 1.011.909.256.392.395.857.417 1.395h-.779a2.066 2.066 0 0 0-.314-1.026 1.882 1.882 0 0 0-.739-.663 2.213 2.213 0 0 0-1.018-.232c-.419 0-.777.082-1.073.246a1.98 1.98 0 0 0-.725.663 3.008 3.008 0 0 0-.403.957c-.087.356-.13.729-.13 1.121v.287c0 .397.041.775.123 1.135.086.356.221.672.403.95.187.278.429.499.725.663.301.16.663.24 1.087.24Zm5.359-6.829V472h-.82v-7.396h.82Zm4.867 0-3.39 4.005h-1.764l-.089-.731h1.504l2.707-3.274h1.032Zm-.738 7.396-3.083-3.5.519-.629 3.644 4.129h-1.08Z"/>
  <g filter="url(#n)">
    <rect width="75" height="75" x="295.5" y="449" fill="#FDFDFD" rx="37.5" shape-rendering="crispEdges"/>
    <path fill="#4A4849" d="M327.656 472.473c-.056.014-.344.063-.633.105-2.524.415-4.872 2.166-6.075 4.549-.618 1.238-.815 2.131-.864 3.966l-.036 1.448-.4.043a4.18 4.18 0 0 0-1.674.604c-2.151 1.407-2.468 4.324-.675 6.103.408.401 1.287.936 1.54.936.084 0 .099.646.099 3.874 0 2.84.021 3.958.084 4.169.162.549.949 1.167 1.491 1.167.098 0 .112.183.112 1.793v1.8l.176.169c.162.169.197.176 1.216.176.9 0 1.076-.021 1.203-.127.105-.084.253-.499.541-1.49.211-.753.45-1.582.527-1.849l.141-.472h17.142l.141.479c.077.26.316 1.089.527 1.842.288.991.436 1.406.542 1.49.126.106.302.127 1.202.127 1.019 0 1.055-.007 1.216-.176l.176-.169v-1.8c0-1.61.014-1.793.113-1.793.541 0 1.328-.618 1.49-1.167.063-.211.085-1.329.085-4.169 0-3.228.014-3.874.098-3.874.253 0 1.132-.535 1.54-.936a3.927 3.927 0 0 0 .548-4.893c-.64-.985-2.053-1.836-3.072-1.836h-.218l-.043-1.462c-.028-.921-.084-1.631-.147-1.934-.387-1.68-1.139-3.051-2.321-4.239-1.16-1.154-2.482-1.892-4.12-2.3-.576-.14-.78-.147-6.082-.161-3.016-.007-5.533-.007-5.59.007Zm11.004 1.195a7.33 7.33 0 0 1 6.047 6.047c.141.858.148 3.058.007 3.058-.049 0-.323.113-.598.254a3.843 3.843 0 0 0-1.687 1.736c-.352.732-.429 1.167-.429 2.433v1.027h-17.986l-.028-1.266c-.028-1.132-.049-1.315-.211-1.73-.253-.675-.506-1.082-.977-1.547-.387-.379-1.273-.907-1.512-.907-.141 0-.134-2.2.007-3.058.499-3.08 2.932-5.534 5.998-6.047.836-.141 10.504-.141 11.369 0Zm-17.444 10.287c.64.295 1.047.703 1.364 1.336l.26.534.035 3.86.035 3.86.169.134c.162.126.422.133 9.921.133 9.499 0 9.759-.007 9.921-.133l.169-.134.035-3.86.035-3.853.225-.471c.31-.654.703-1.062 1.343-1.378.506-.246.57-.26 1.21-.26.639 0 .703.014 1.209.26.64.316 1.034.724 1.343 1.378.204.429.225.534.225 1.139s-.021.71-.225 1.139c-.295.633-.703 1.055-1.308 1.357-.267.134-.548.246-.619.246-.218 0-.464.148-.548.331-.056.119-.077 1.42-.077 4.282v4.113l-.176.169-.169.175h-25.186l-.169-.175-.175-.169v-4.113c0-2.911-.022-4.163-.078-4.289-.084-.176-.267-.275-.661-.366-.71-.162-1.406-.745-1.772-1.491-.253-.506-.267-.569-.267-1.202 0-.612.021-.717.225-1.146.281-.598.682-1.034 1.21-1.308.548-.295.857-.366 1.497-.337.429.021.647.077.999.239Zm20.608 5.533c.176.169.176.169.176 1.688v1.511h-18v-1.511c0-1.519 0-1.519.176-1.688l.169-.176h17.311l.168.176Zm-18.597 10.006c0 .049-.317 1.188-.64 2.278l-.141.478h-.696v-2.813h.738c.408 0 .739.029.739.057Zm21.023 1.35v1.406h-.696l-.141-.478c-.323-1.09-.64-2.229-.64-2.278 0-.028.331-.057.739-.057h.738v1.407Z"/>
  </g>
  <path fill="#4A4849" d="M284.909 544.047h.848l3.678 8.764 3.684-8.764h.841L289.756 554h-.643l-4.204-9.953Zm-.26 0h.746l.088 5.605V554h-.834v-9.953Zm8.839 0h.745V554h-.84v-4.348l.095-5.605Zm4.697 6.562h.902L297.036 554h-.902l2.051-3.391Zm.868-4.005h2.905V554h-.813v-6.699h-2.092c-.433 0-.786.073-1.06.219a1.395 1.395 0 0 0-.595.56 1.568 1.568 0 0 0-.184.745c0 .251.055.49.164.718.114.228.289.415.526.561.237.141.545.211.923.211h2.611v.705h-2.611c-.387 0-.731-.055-1.032-.165a2.209 2.209 0 0 1-.766-.458 2.046 2.046 0 0 1-.471-.704 2.435 2.435 0 0 1-.158-.881c0-.319.057-.611.171-.875.119-.269.29-.504.513-.705.228-.2.506-.355.834-.464.333-.11.711-.164 1.135-.164Zm9.727 0v.71h-3.746V554h-.813v-7.396h4.559Zm2.167 0V554h-.82v-7.396h.82Zm4.867 0-3.39 4.005h-1.764l-.089-.731h1.504l2.707-3.274h1.032Zm-.738 7.396-3.083-3.5.52-.629 3.643 4.129h-1.08Zm6.761-1.326v-3.815a1.8 1.8 0 0 0-.219-.909 1.445 1.445 0 0 0-.642-.588c-.283-.136-.632-.205-1.046-.205-.383 0-.725.069-1.026.205a1.764 1.764 0 0 0-.704.54 1.213 1.213 0 0 0-.253.745l-.82-.006c0-.278.068-.547.205-.807.137-.26.33-.492.581-.697.251-.205.549-.367.896-.486a3.471 3.471 0 0 1 1.155-.184c.529 0 .993.089 1.394.266.406.178.723.445.951.8.227.356.341.802.341 1.34v3.575c0 .255.019.52.055.793.041.274.098.499.171.677V554h-.868a3.318 3.318 0 0 1-.13-.615 6.67 6.67 0 0 1-.041-.711Zm.191-2.981.014.629h-1.606c-.42 0-.796.039-1.128.116a2.555 2.555 0 0 0-.834.329 1.578 1.578 0 0 0-.527.512 1.326 1.326 0 0 0-.177.684c0 .264.066.506.198.725.136.218.328.394.574.526.251.127.547.191.889.191.455 0 .856-.084 1.203-.253.351-.168.64-.389.868-.663.228-.273.38-.572.458-.895l.355.471a2.362 2.362 0 0 1-.328.705 3.044 3.044 0 0 1-1.497 1.175c-.337.128-.72.192-1.148.192-.483 0-.905-.091-1.265-.274a2.103 2.103 0 0 1-.834-.745 2.021 2.021 0 0 1-.294-1.08c0-.364.078-.69.233-.977a2.07 2.07 0 0 1 .67-.739c.296-.205.651-.36 1.066-.465a5.6 5.6 0 0 1 1.408-.164h1.702Zm4.43.916h.902L325.31 554h-.903l2.051-3.391Zm.868-4.005h2.905V554h-.813v-6.699h-2.092c-.433 0-.786.073-1.059.219a1.39 1.39 0 0 0-.595.56 1.57 1.57 0 0 0-.185.745c0 .251.055.49.164.718.114.228.29.415.527.561.237.141.544.211.923.211h2.611v.705h-2.611c-.388 0-.732-.055-1.033-.165a2.204 2.204 0 0 1-.765-.458 2.049 2.049 0 0 1-.472-.704 2.434 2.434 0 0 1-.157-.881c0-.319.057-.611.171-.875a2.05 2.05 0 0 1 .512-.705c.228-.2.506-.355.834-.464.333-.11.711-.164 1.135-.164Zm12.626 6.275 2.94-6.275h.813L340.239 554h-.574l-3.459-7.396h.814l2.932 6.275Zm-3.185-6.275V554h-.814v-7.396h.814Zm6.316 7.396v-7.396h.82V554h-.82Zm5.879.137c-.483 0-.927-.089-1.333-.267a3.188 3.188 0 0 1-1.053-.752 3.46 3.46 0 0 1-.69-1.148 4.313 4.313 0 0 1-.24-1.463v-.294c0-.57.085-1.085.253-1.545.169-.46.401-.855.698-1.183a3.1 3.1 0 0 1 1.011-.752 2.837 2.837 0 0 1 1.204-.266c.469 0 .886.084 1.25.253.365.164.67.398.917.704.25.301.439.658.567 1.073.128.41.191.864.191 1.36v.499h-5.598v-.697h4.785v-.096a3.012 3.012 0 0 0-.253-1.162 2.102 2.102 0 0 0-.697-.888c-.31-.228-.698-.342-1.162-.342a2.11 2.11 0 0 0-.958.219 2.165 2.165 0 0 0-.745.629c-.205.268-.364.59-.478.963-.11.37-.164.78-.164 1.231v.294c0 .41.059.793.178 1.148.123.351.296.661.519.93.228.269.497.478.807.629.31.15.651.225 1.025.225.438 0 .825-.079 1.162-.239.337-.164.641-.421.909-.772l.513.396c-.159.237-.36.456-.601.656-.237.201-.522.36-.855.479-.333.118-.72.178-1.162.178Zm9.187-10.753h.705c0 .342-.062.626-.185.854a1.441 1.441 0 0 1-.506.554 2.796 2.796 0 0 1-.772.335 9.507 9.507 0 0 1-.957.198 3.153 3.153 0 0 0-1.169.417 2.914 2.914 0 0 0-.903.882c-.25.369-.439.827-.567 1.374-.123.542-.173 1.178-.15 1.907v.636h-.705v-.636c0-.802.078-1.513.233-2.133.159-.624.385-1.157.677-1.599a3.626 3.626 0 0 1 1.052-1.053c.41-.264.864-.437 1.361-.519.465-.073.834-.162 1.107-.267.278-.105.476-.235.595-.39a.871.871 0 0 0 .184-.56Zm-1.818 3.705c.483 0 .918.082 1.306.246.387.164.717.396.991.697a3 3 0 0 1 .636 1.053c.15.401.225.841.225 1.319v.219c0 .51-.077.98-.232 1.408a3.22 3.22 0 0 1-.656 1.115 2.902 2.902 0 0 1-1.033.731c-.401.173-.85.26-1.346.26-.502 0-.953-.087-1.354-.26a2.98 2.98 0 0 1-1.032-.731 3.298 3.298 0 0 1-.663-1.115 4.11 4.11 0 0 1-.233-1.408v-.219c0-.132.014-.262.041-.389.032-.128.071-.253.117-.376.045-.128.091-.253.136-.376a3.54 3.54 0 0 1 .677-1.108 3.22 3.22 0 0 1 1.046-.779c.41-.191.868-.287 1.374-.287Zm-.123.697c-.533 0-.982.123-1.347.369-.36.242-.633.563-.82.964-.187.397-.28.825-.28 1.285v.219c0 .378.052.736.157 1.073.105.338.26.638.465.903.209.259.467.464.772.615.306.15.661.225 1.067.225.401 0 .754-.075 1.059-.225.306-.151.561-.356.766-.615.205-.265.36-.565.465-.903.105-.337.157-.695.157-1.073v-.219c0-.346-.052-.676-.157-.991a2.437 2.437 0 0 0-.472-.834 2.152 2.152 0 0 0-.772-.581 2.507 2.507 0 0 0-1.06-.212Zm7.711 6.351c-.483 0-.927-.089-1.333-.267a3.188 3.188 0 0 1-1.053-.752 3.46 3.46 0 0 1-.69-1.148 4.313 4.313 0 0 1-.239-1.463v-.294c0-.57.084-1.085.252-1.545.169-.46.401-.855.698-1.183a3.1 3.1 0 0 1 1.011-.752 2.837 2.837 0 0 1 1.204-.266c.469 0 .886.084 1.251.253.364.164.669.398.916.704.25.301.439.658.567 1.073.128.41.191.864.191 1.36v.499h-5.598v-.697h4.785v-.096a3.012 3.012 0 0 0-.253-1.162 2.102 2.102 0 0 0-.697-.888c-.31-.228-.698-.342-1.162-.342-.347 0-.666.073-.957.219a2.159 2.159 0 0 0-.746.629c-.205.268-.364.59-.478.963-.109.37-.164.78-.164 1.231v.294c0 .41.059.793.178 1.148.123.351.296.661.519.93.228.269.497.478.807.629.31.15.651.225 1.025.225.438 0 .825-.079 1.162-.239.337-.164.641-.421.909-.772l.513.396c-.159.237-.36.456-.601.656-.237.201-.522.36-.855.479-.333.118-.72.178-1.162.178Zm9.406-7.533v.71h-3.746v-.71h3.746Zm.663 0V554h-.813v-7.396h.813Zm-4.628 0h.814l-.164 3.465a15.66 15.66 0 0 1-.137 1.491 6.054 6.054 0 0 1-.246 1.114 2.356 2.356 0 0 1-.403.752c-.16.196-.354.342-.581.437a2.151 2.151 0 0 1-.8.137h-.308v-.738l.253-.007c.196-.009.367-.05.513-.123a.962.962 0 0 0 .383-.349c.109-.159.198-.369.266-.629.073-.259.13-.576.171-.95.046-.378.08-.822.103-1.333l.136-3.267Zm7.445 2.679h2.413c.583 0 1.075.103 1.476.308.401.2.704.478.91.834.209.355.314.756.314 1.203 0 .337-.059.652-.178.943a2.034 2.034 0 0 1-.519.752 2.361 2.361 0 0 1-.848.499 3.426 3.426 0 0 1-1.155.178h-2.933v-7.396h.814v6.692h2.119c.451 0 .816-.078 1.094-.233.278-.159.478-.364.601-.615a1.73 1.73 0 0 0 .191-.8 1.72 1.72 0 0 0-.191-.793 1.437 1.437 0 0 0-.601-.622c-.278-.164-.643-.246-1.094-.246h-2.413v-.704Z"/>
  <defs>
    <filter id="f" width="83" height="83" x="104.5" y="112" color-interpolation-filters="sRGB" filterUnits="userSpaceOnUse">
      <feFlood flood-opacity="0" result="BackgroundImageFix"/>
      <feColorMatrix in="SourceAlpha" result="hardAlpha" values="0 0 0 0 0 0 0 0 0 0 0 0 0 0 0 0 0 0 127 0"/>
      <feOffset dy="4"/>
      <feGaussianBlur stdDeviation="2"/>
      <feComposite in2="hardAlpha" operator="out"/>
      <feColorMatrix values="0 0 0 0 0.290196 0 0 0 0 0.282353 0 0 0 0 0.286275 0 0 0 0.1 0"/>
      <feBlend in2="BackgroundImageFix" result="effect1_dropShadow_5461_3635"/>
      <feBlend in="SourceGraphic" in2="effect1_dropShadow_5461_3635" result="shape"/>
      <feColorMatrix in="SourceAlpha" result="hardAlpha" values="0 0 0 0 0 0 0 0 0 0 0 0 0 0 0 0 0 0 127 0"/>
      <feOffset dy="4"/>
      <feGaussianBlur stdDeviation="2"/>
      <feComposite in2="hardAlpha" k2="-1" k3="1" operator="arithmetic"/>
      <feColorMatrix values="0 0 0 0 0.290196 0 0 0 0 0.282353 0 0 0 0 0.286275 0 0 0 0.1 0"/>
      <feBlend in2="shape" result="effect2_innerShadow_5461_3635"/>
    </filter>
    <filter id="g" width="98" height="98" x="273" y="225" color-interpolation-filters="sRGB" filterUnits="userSpaceOnUse">
      <feFlood flood-opacity="0" result="BackgroundImageFix"/>
      <feColorMatrix in="SourceAlpha" result="hardAlpha" values="0 0 0 0 0 0 0 0 0 0 0 0 0 0 0 0 0 0 127 0"/>
      <feOffset dy="4"/>
      <feGaussianBlur stdDeviation="2"/>
      <feComposite in2="hardAlpha" operator="out"/>
      <feColorMatrix values="0 0 0 0 0.290196 0 0 0 0 0.282353 0 0 0 0 0.286275 0 0 0 0.1 0"/>
      <feBlend in2="BackgroundImageFix" result="effect1_dropShadow_5461_3635"/>
      <feBlend in="SourceGraphic" in2="effect1_dropShadow_5461_3635" result="shape"/>
      <feColorMatrix in="SourceAlpha" result="hardAlpha" values="0 0 0 0 0 0 0 0 0 0 0 0 0 0 0 0 0 0 127 0"/>
      <feOffset dy="4"/>
      <feGaussianBlur stdDeviation="2"/>
      <feComposite in2="hardAlpha" k2="-1" k3="1" operator="arithmetic"/>
      <feColorMatrix values="0 0 0 0 0.290196 0 0 0 0 0.282353 0 0 0 0 0.286275 0 0 0 0.1 0"/>
      <feBlend in2="shape" result="effect2_innerShadow_5461_3635"/>
    </filter>
    <filter id="i" width="83" height="83" x="378.5" y="0" color-interpolation-filters="sRGB" filterUnits="userSpaceOnUse">
      <feFlood flood-opacity="0" result="BackgroundImageFix"/>
      <feColorMatrix in="SourceAlpha" result="hardAlpha" values="0 0 0 0 0 0 0 0 0 0 0 0 0 0 0 0 0 0 127 0"/>
      <feOffset dy="4"/>
      <feGaussianBlur stdDeviation="2"/>
      <feComposite in2="hardAlpha" operator="out"/>
      <feColorMatrix values="0 0 0 0 0.290196 0 0 0 0 0.282353 0 0 0 0 0.286275 0 0 0 0.1 0"/>
      <feBlend in2="BackgroundImageFix" result="effect1_dropShadow_5461_3635"/>
      <feBlend in="SourceGraphic" in2="effect1_dropShadow_5461_3635" result="shape"/>
      <feColorMatrix in="SourceAlpha" result="hardAlpha" values="0 0 0 0 0 0 0 0 0 0 0 0 0 0 0 0 0 0 127 0"/>
      <feOffset dy="4"/>
      <feGaussianBlur stdDeviation="2"/>
      <feComposite in2="hardAlpha" k2="-1" k3="1" operator="arithmetic"/>
      <feColorMatrix values="0 0 0 0 0.290196 0 0 0 0 0.282353 0 0 0 0 0.286275 0 0 0 0.1 0"/>
      <feBlend in2="shape" result="effect2_innerShadow_5461_3635"/>
    </filter>
    <filter id="j" width="83" height="83" x="509.5" y="263" color-interpolation-filters="sRGB" filterUnits="userSpaceOnUse">
      <feFlood flood-opacity="0" result="BackgroundImageFix"/>
      <feColorMatrix in="SourceAlpha" result="hardAlpha" values="0 0 0 0 0 0 0 0 0 0 0 0 0 0 0 0 0 0 127 0"/>
      <feOffset dy="4"/>
      <feGaussianBlur stdDeviation="2"/>
      <feComposite in2="hardAlpha" operator="out"/>
      <feColorMatrix values="0 0 0 0 0.290196 0 0 0 0 0.282353 0 0 0 0 0.286275 0 0 0 0.1 0"/>
      <feBlend in2="BackgroundImageFix" result="effect1_dropShadow_5461_3635"/>
      <feBlend in="SourceGraphic" in2="effect1_dropShadow_5461_3635" result="shape"/>
      <feColorMatrix in="SourceAlpha" result="hardAlpha" values="0 0 0 0 0 0 0 0 0 0 0 0 0 0 0 0 0 0 127 0"/>
      <feOffset dy="4"/>
      <feGaussianBlur stdDeviation="2"/>
      <feComposite in2="hardAlpha" k2="-1" k3="1" operator="arithmetic"/>
      <feColorMatrix values="0 0 0 0 0.290196 0 0 0 0 0.282353 0 0 0 0 0.286275 0 0 0 0.1 0"/>
      <feBlend in2="shape" result="effect2_innerShadow_5461_3635"/>
    </filter>
    <filter id="l" width="83" height="83" x="68.5" y="367" color-interpolation-filters="sRGB" filterUnits="userSpaceOnUse">
      <feFlood flood-opacity="0" result="BackgroundImageFix"/>
      <feColorMatrix in="SourceAlpha" result="hardAlpha" values="0 0 0 0 0 0 0 0 0 0 0 0 0 0 0 0 0 0 127 0"/>
      <feOffset dy="4"/>
      <feGaussianBlur stdDeviation="2"/>
      <feComposite in2="hardAlpha" operator="out"/>
      <feColorMatrix values="0 0 0 0 0.290196 0 0 0 0 0.282353 0 0 0 0 0.286275 0 0 0 0.1 0"/>
      <feBlend in2="BackgroundImageFix" result="effect1_dropShadow_5461_3635"/>
      <feBlend in="SourceGraphic" in2="effect1_dropShadow_5461_3635" result="shape"/>
      <feColorMatrix in="SourceAlpha" result="hardAlpha" values="0 0 0 0 0 0 0 0 0 0 0 0 0 0 0 0 0 0 127 0"/>
      <feOffset dy="4"/>
      <feGaussianBlur stdDeviation="2"/>
      <feComposite in2="hardAlpha" k2="-1" k3="1" operator="arithmetic"/>
      <feColorMatrix values="0 0 0 0 0.290196 0 0 0 0 0.282353 0 0 0 0 0.286275 0 0 0 0.1 0"/>
      <feBlend in2="shape" result="effect2_innerShadow_5461_3635"/>
    </filter>
    <filter id="n" width="83" height="83" x="291.5" y="449" color-interpolation-filters="sRGB" filterUnits="userSpaceOnUse">
      <feFlood flood-opacity="0" result="BackgroundImageFix"/>
      <feColorMatrix in="SourceAlpha" result="hardAlpha" values="0 0 0 0 0 0 0 0 0 0 0 0 0 0 0 0 0 0 127 0"/>
      <feOffset dy="4"/>
      <feGaussianBlur stdDeviation="2"/>
      <feComposite in2="hardAlpha" operator="out"/>
      <feColorMatrix values="0 0 0 0 0.290196 0 0 0 0 0.282353 0 0 0 0 0.286275 0 0 0 0.1 0"/>
      <feBlend in2="BackgroundImageFix" result="effect1_dropShadow_5461_3635"/>
      <feBlend in="SourceGraphic" in2="effect1_dropShadow_5461_3635" result="shape"/>
      <feColorMatrix in="SourceAlpha" result="hardAlpha" values="0 0 0 0 0 0 0 0 0 0 0 0 0 0 0 0 0 0 127 0"/>
      <feOffset dy="4"/>
      <feGaussianBlur stdDeviation="2"/>
      <feComposite in2="hardAlpha" k2="-1" k3="1" operator="arithmetic"/>
      <feColorMatrix values="0 0 0 0 0.290196 0 0 0 0 0.282353 0 0 0 0 0.286275 0 0 0 0.1 0"/>
      <feBlend in2="shape" result="effect2_innerShadow_5461_3635"/>
    </filter>
    <linearGradient id="a" x1="276.973" x2="190.999" y1="233.46" y2="175.001" gradientUnits="userSpaceOnUse">
      <stop stop-color="#4A4849" stop-opacity=".15"/>
      <stop offset=".123" stop-color="#4A4849"/>
      <stop offset=".899" stop-color="#4A4849"/>
      <stop offset="1" stop-color="#4A4849" stop-opacity=".15"/>
    </linearGradient>
    <linearGradient id="b" x1="498.611" x2="395.147" y1="296.734" y2="286.521" gradientUnits="userSpaceOnUse">
      <stop stop-color="#4A4849" stop-opacity=".15"/>
      <stop offset=".123" stop-color="#4A4849"/>
      <stop offset=".899" stop-color="#4A4849"/>
      <stop offset="1" stop-color="#4A4849" stop-opacity=".15"/>
    </linearGradient>
    <linearGradient id="c" x1="332.352" x2="330.999" y1="436.957" y2="333" gradientUnits="userSpaceOnUse">
      <stop stop-color="#4A4849" stop-opacity=".15"/>
      <stop offset=".123" stop-color="#4A4849"/>
      <stop offset=".899" stop-color="#4A4849"/>
      <stop offset="1" stop-color="#4A4849" stop-opacity=".15"/>
    </linearGradient>
    <linearGradient id="d" x1="173.927" x2="263.615" y1="363.054" y2="310.469" gradientUnits="userSpaceOnUse">
      <stop stop-color="#4A4849" stop-opacity=".15"/>
      <stop offset=".123" stop-color="#4A4849"/>
      <stop offset=".899" stop-color="#4A4849"/>
      <stop offset="1" stop-color="#4A4849" stop-opacity=".15"/>
    </linearGradient>
    <linearGradient id="e" x1="356.459" x2="402.101" y1="205.982" y2="112.57" gradientUnits="userSpaceOnUse">
      <stop stop-color="#4A4849" stop-opacity=".15"/>
      <stop offset=".123" stop-color="#4A4849"/>
      <stop offset=".899" stop-color="#4A4849"/>
      <stop offset="1" stop-color="#4A4849" stop-opacity=".15"/>
    </linearGradient>
    <clipPath id="h">
      <path fill="#fff" d="M304 252h36v36h-36z"/>
    </clipPath>
    <clipPath id="k">
      <path fill="#fff" d="M533 282.5h36v36h-36z"/>
    </clipPath>
    <clipPath id="m">
      <path fill="#fff" d="M92 386.5h36v36H92z"/>
    </clipPath>
  </defs>
</svg>
