<svg xmlns="http://www.w3.org/2000/svg" width="283" height="359" fill="none" viewBox="0 0 283 359">
  <path stroke="url(#a)" stroke-width=".5" d="m67.141 114.793 33.077 22.492"/>
  <path stroke="url(#b)" stroke-width=".5" d="m175.25 182.245 39.393 6.946"/>
  <path stroke="url(#c)" stroke-width=".5" d="m140.25 212.997.521 39.996"/>
  <path stroke="url(#d)" stroke-width=".5" d="m101.633 186.216-34.507 20.231"/>
  <path stroke="url(#e)" stroke-width=".5" d="m170.785 90.11-17.56 35.939"/>
  <g filter="url(#f)">
    <rect width="60" height="60" x="9.5" y="28" fill="#FDFDFD" rx="30" shape-rendering="crispEdges"/>
    <path fill="#4A4849" d="M35.176 45.871c-3.249.752-6.117 1.448-6.37 1.547-2.026.788-3.516 2.65-3.86 4.816-.043.289-.071 3.354-.071 8.452v8.002h-.387c-.323 0-.422.028-.562.175-.169.162-.176.197-.176 1.23 0 1.034.007 1.07.176 1.231l.169.176h9.436l.168-.176c.169-.162.176-.197.176-1.23 0-1.034-.007-1.069-.176-1.23-.126-.134-.246-.177-.47-.177l-.303-.007.21-.175c.12-.092.423-.274.683-.394.45-.211.618-.387.618-.675.008-.084 1.688-1.076 5.668-3.347l5.66-3.227.52-.035c.471-.029.528-.021.528.091 0 .548.611 1.336 1.167 1.498.197.056.914.084 2.222.084 2.27 0 2.411-.028 2.89-.563.28-.309.47-.724.47-1.012 0-.063.05-.112.113-.112.57 0 1.336-.626 1.498-1.217.14-.5.056-1.11-.24-1.708-.295-.605-.717-1.013-1.356-1.315l-.471-.225H45.44l-5.653 2.165c-4.739 1.814-5.667 2.145-5.716 2.06-.035-.063-.281-.239-.556-.4-.808-.471-.766-.211-.766-4.486 0-2.637.021-3.692.084-3.903.057-.182.218-.414.443-.64.31-.309.436-.38 1.055-.576 6.04-1.898 8.184-2.587 8.332-2.658.26-.14.612-.527.731-.822.359-.858-.147-1.983-1.068-2.398-.704-.31-.71-.31-7.151 1.181Zm6.672-.148c.471.197.697.795.408 1.083-.07.07-1.954.703-4.444 1.484-2.376.752-4.464 1.434-4.64 1.519a2.717 2.717 0 0 0-1.238 1.272c-.232.464-.267.59-.295 1.224l-.035.703-.366.169c-.45.203-.815.562-1.069 1.047-.168.317-.196.45-.196.964 0 .513.028.646.197.963.253.485.618.843 1.082 1.054l.373.17v1.186h-5.632l.021-3.15c.028-3.487.035-3.494.52-4.485a4.958 4.958 0 0 1 2.328-2.286c.499-.246 1.033-.386 3.902-1.047 1.828-.422 4.479-1.034 5.892-1.357 1.413-.33 2.658-.598 2.764-.605a1.15 1.15 0 0 1 .428.091Zm-10.223 9.465c0 .527-.028.914-.063.914-.043 0-.155-.113-.26-.246-.24-.324-.296-.774-.134-1.097.14-.275.31-.486.4-.486.029 0 .057.408.057.914Zm21.333 2.334c.386.112.97.696 1.083 1.083.133.45.105.717-.092.907l-.168.175h-3.938c-3.614 0-3.966.008-4.345.127-.24.077-2.525 1.343-5.576 3.087-2.84 1.624-5.238 2.988-5.323 3.037l-.161.085v-4.261l4.24-1.61c2.327-.893 4.879-1.864 5.674-2.166l1.441-.541 3.438-.008c2.496 0 3.516.022 3.727.085Zm-21.122 2.482c.169.394.612.879.963 1.062.556.28.514 0 .514 3.185v2.855l-.366.175c-.464.225-.942.696-1.118 1.09l-.14.317H26v-9h5.702l.134.316Zm20.602.914c0 .063-.078.19-.176.281l-.169.176h-3.811l-.169-.176c-.098-.091-.175-.218-.175-.281 0-.091.267-.105 2.25-.105 1.982 0 2.25.014 2.25.105ZM32.75 70.094v.281h-7.875v-.562h7.875v.28Z"/>
    <path fill="#4A4849" d="m47.55 63.308-.175.17v5.427l.176.169a.517.517 0 0 0 .773 0l.176-.169v-5.428l-.176-.169a.548.548 0 0 0-.386-.175.548.548 0 0 0-.387.175Zm5.063 0-.175.17v5.427l.175.169a.517.517 0 0 0 .774 0l.175-.169v-5.428l-.175-.169a.548.548 0 0 0-.387-.175.548.548 0 0 0-.387.175Zm-3.375 1.125-.175.17v6.552l.175.169a.517.517 0 0 0 .774 0l.175-.169v-6.553l-.175-.169a.548.548 0 0 0-.387-.175.548.548 0 0 0-.387.175Zm1.688 0-.176.17v6.552l.176.169a.517.517 0 0 0 .773 0l.176-.169v-6.553l-.176-.169a.548.548 0 0 0-.386-.175.548.548 0 0 0-.387.175Z"/>
  </g>
  <path fill="#4A4849" d="M13.684 102.34h.72c-.058.574-.216 1.07-.474 1.488a2.57 2.57 0 0 1-1.055.955c-.445.223-.982.334-1.611.334-.485 0-.924-.092-1.319-.275a2.928 2.928 0 0 1-1.008-.78 3.633 3.633 0 0 1-.65-1.218 5.121 5.121 0 0 1-.228-1.576v-1.067c0-.578.076-1.101.228-1.57.152-.473.371-.879.656-1.219.286-.34.627-.602 1.026-.785a3.184 3.184 0 0 1 1.347-.275c.606 0 1.13.11 1.57.334a2.5 2.5 0 0 1 1.044.949c.258.414.416.914.474 1.5h-.72c-.055-.461-.176-.852-.364-1.172a1.855 1.855 0 0 0-.779-.732c-.328-.172-.736-.258-1.225-.258-.398 0-.754.076-1.066.228a2.221 2.221 0 0 0-.797.656 3.05 3.05 0 0 0-.504 1.014 4.77 4.77 0 0 0-.17 1.318v1.079c0 .468.055.9.164 1.294.11.395.27.737.48 1.026.216.289.477.514.786.674.309.16.66.24 1.055.24.504 0 .924-.08 1.26-.24a1.8 1.8 0 0 0 .79-.727c.188-.32.311-.719.37-1.195Zm6.17 1.523v-3.269c0-.301-.063-.561-.188-.78a1.234 1.234 0 0 0-.55-.503c-.243-.118-.542-.176-.897-.176-.328 0-.621.058-.88.175a1.515 1.515 0 0 0-.603.463 1.035 1.035 0 0 0-.216.639l-.704-.006c0-.238.059-.469.176-.691a1.94 1.94 0 0 1 .498-.598c.215-.176.47-.314.768-.416.3-.105.63-.158.99-.158.453 0 .852.076 1.195.228a1.8 1.8 0 0 1 .815.686c.195.305.293.688.293 1.148v3.065c0 .219.015.445.047.68.035.234.084.427.146.58v.07H20a2.858 2.858 0 0 1-.111-.527 5.621 5.621 0 0 1-.035-.61Zm.164-2.554.011.539h-1.377c-.359 0-.681.033-.966.099-.282.063-.52.157-.715.282a1.35 1.35 0 0 0-.451.439 1.13 1.13 0 0 0-.153.586c0 .226.057.434.17.621.117.187.281.338.492.451.215.11.469.164.762.164.39 0 .734-.072 1.031-.217.301-.144.55-.334.744-.568.196-.234.327-.49.393-.767l.305.404a2.036 2.036 0 0 1-.282.603 2.645 2.645 0 0 1-.521.575 2.78 2.78 0 0 1-.762.433 2.775 2.775 0 0 1-.984.164c-.414 0-.776-.078-1.084-.234a1.798 1.798 0 0 1-.715-.639 1.732 1.732 0 0 1-.252-.926 1.727 1.727 0 0 1 .773-1.47c.254-.176.56-.309.915-.399.359-.094.761-.14 1.207-.14h1.459Zm6.738.187v.598h-3.762v-.598h3.762Zm-3.58-2.836V105h-.697v-6.34h.697Zm4.119 0V105h-.703v-6.34h.703Zm4.125 0V105h-.697v-6.34h.697Zm2.308 0v.598h-5.232v-.598h5.232Zm3.141 6.457a2.82 2.82 0 0 1-1.142-.228 2.746 2.746 0 0 1-.903-.645 2.964 2.964 0 0 1-.592-.984 3.706 3.706 0 0 1-.205-1.254v-.252c0-.488.073-.93.217-1.324.145-.395.344-.733.598-1.014s.543-.496.867-.644a2.42 2.42 0 0 1 1.031-.229c.403 0 .76.072 1.072.217a2.1 2.1 0 0 1 .786.603c.215.258.377.565.486.92.11.352.164.74.164 1.166v.428h-4.799v-.598h4.102v-.082a2.577 2.577 0 0 0-.217-.996 1.8 1.8 0 0 0-.598-.761c-.265-.196-.597-.293-.996-.293-.297 0-.57.062-.82.187a1.866 1.866 0 0 0-.639.539 2.607 2.607 0 0 0-.41.826 3.7 3.7 0 0 0-.14 1.055v.252c0 .351.05.68.152.984.105.301.254.567.445.797.195.231.426.41.691.539.266.129.56.194.88.194a2.3 2.3 0 0 0 .995-.206c.29-.14.55-.361.78-.662l.44.34a2.681 2.681 0 0 1-.516.563 2.339 2.339 0 0 1-.733.41 2.98 2.98 0 0 1-.996.152Zm4.037-6.457 1.711 2.561 1.717-2.56h.832l-2.15 3.105L45.254 105h-.82l-1.811-2.678L40.818 105h-.82l2.238-3.234-2.15-3.106h.82Zm9.897 2.836v.598H47.04v-.598h3.762Zm-3.58-2.836V105h-.698v-6.34h.698Zm4.119 0V105h-.703v-6.34h.703Zm2.625 5.203 3.428-5.203h.703V105h-.703v-5.203L53.967 105h-.692v-6.34h.692v5.203Zm6.756-5.203V105h-.703v-6.34h.703Zm4.171 0-2.906 3.434h-1.511l-.077-.627h1.29l2.32-2.807h.884Zm-.632 6.34-2.643-3 .446-.539L65.188 105h-.926Zm5.795-1.137v-3.269c0-.301-.063-.561-.188-.78a1.235 1.235 0 0 0-.55-.503c-.243-.118-.542-.176-.897-.176-.328 0-.621.058-.879.175a1.514 1.514 0 0 0-.604.463 1.035 1.035 0 0 0-.216.639l-.704-.006c0-.238.06-.469.176-.691a1.94 1.94 0 0 1 .498-.598 2.45 2.45 0 0 1 .768-.416c.3-.105.63-.158.99-.158.453 0 .852.076 1.196.228.347.153.619.381.814.686.195.305.293.688.293 1.148v3.065c0 .219.015.445.047.68.035.234.084.427.146.58v.07h-.744a2.858 2.858 0 0 1-.111-.527 5.646 5.646 0 0 1-.035-.61Zm.164-2.554.011.539h-1.376a4.3 4.3 0 0 0-.967.099c-.282.063-.52.157-.715.282a1.348 1.348 0 0 0-.451.439 1.13 1.13 0 0 0-.153.586c0 .226.057.434.17.621.117.188.282.338.492.451.215.11.47.164.762.164.39 0 .734-.072 1.031-.217.301-.144.55-.334.744-.568.196-.234.327-.49.393-.767l.305.404a2.057 2.057 0 0 1-.281.603 2.646 2.646 0 0 1-.522.575c-.215.175-.469.32-.762.433-.289.11-.617.164-.984.164-.414 0-.775-.078-1.084-.234a1.798 1.798 0 0 1-.715-.639 1.733 1.733 0 0 1-.252-.926c0-.312.067-.591.2-.838.132-.25.324-.46.574-.632a2.78 2.78 0 0 1 .914-.399c.36-.094.761-.14 1.207-.14h1.459Z"/>
  <g filter="url(#g)">
    <circle cx="137" cy="165" r="35" fill="#FDFDFD"/>
  </g>
  <g clip-path="url(#h)">
    <path fill="#4A4849" d="M141.047 151.088c-.634.169-1.17.628-1.482 1.252-.175.361-.186.41-.186.984 0 .564.011.624.175.968.241.514.596.875 1.105 1.127.399.197.426.202 1.017.202.579 0 .618-.011.984-.186 1.444-.711 1.778-2.532.678-3.697a2.3 2.3 0 0 0-2.291-.65Zm.919 1.126c.361.088.738.476.825.842a1.125 1.125 0 0 1-.601 1.302c-.481.235-.963.164-1.335-.213-.377-.372-.448-.854-.213-1.335a1.14 1.14 0 0 1 .744-.607c.257-.06.295-.06.58.011Zm6.967-1.093c-.099.071-2.018 2.499-4.277 5.403-2.964 3.817-4.107 5.326-4.134 5.463-.088.438.383.799.826.629.109-.044 8.274-10.527 8.411-10.806.087-.175.093-.235.038-.399a.632.632 0 0 0-.553-.411.676.676 0 0 0-.311.121Z"/>
    <path fill="#4A4849" d="M123.345 155.725c-.181.082-.345.328-.345.525 0 .17.148.421.29.503.082.05.481.083 1.269.099 1.066.027 1.164.038 1.394.159.328.169.64.47.793.771.088.169.547 2.22 1.526 6.808 1.586 7.394 1.498 7.071 2.127 7.706.186.18.487.41.673.508.683.361.29.345 7.678.345 7.383 0 7 .016 7.673-.339.618-.328 1.137-.919 1.35-1.537.186-.53 1.318-5.693 1.286-5.846a.692.692 0 0 0-.203-.29.566.566 0 0 0-.913.263c-.033.093-.317 1.345-.634 2.772-.378 1.696-.629 2.696-.717 2.882-.153.317-.454.602-.837.793l-.251.126h-13.453l-.306-.142a1.7 1.7 0 0 1-.843-.837c-.076-.169-.503-2.051-1.088-4.791-.53-2.482-.979-4.555-.995-4.61-.028-.087.208-.093 4.435-.093 4.069 0 4.479-.005 4.621-.093.301-.175.366-.612.142-.875l-.131-.153-4.665-.027-4.67-.027-.274-1.286c-.3-1.389-.377-1.646-.629-2.023a3.006 3.006 0 0 0-1.64-1.23c-.421-.137-2.406-.175-2.663-.061Zm24.702 2.363c-.634.169-1.17.628-1.482 1.252-.175.361-.186.41-.186.984 0 .564.011.624.175.968.241.514.596.875 1.105 1.127.399.197.426.202 1.017.202.579 0 .618-.011.984-.186 1.444-.711 1.778-2.532.678-3.697a2.3 2.3 0 0 0-2.291-.65Zm.919 1.126c.361.088.738.476.825.842a1.125 1.125 0 0 1-.601 1.302c-.481.235-.963.164-1.335-.213-.377-.372-.448-.854-.213-1.335a1.14 1.14 0 0 1 .744-.607c.257-.06.295-.06.58.011Zm-15.455 16.384a1.738 1.738 0 0 0-.87.69c-.235.344-.306.634-.279 1.099.044.634.389 1.154.963 1.433.262.131.377.153.749.153.574-.006.913-.148 1.28-.553a1.698 1.698 0 0 0 0-2.34 1.74 1.74 0 0 0-1.843-.482Zm.776 1.127a.566.566 0 0 1-.043 1.072c-.35.115-.744-.181-.744-.547a.64.64 0 0 1 .344-.52c.219-.098.225-.098.443-.005Zm8.647-1.154c-.361.121-.542.235-.777.492-.284.307-.372.476-.454.87-.153.766.274 1.575 1.012 1.914.415.191 1.044.18 1.46-.027a1.87 1.87 0 0 0 .82-.815c.104-.197.126-.317.126-.755 0-.58-.082-.804-.443-1.203-.399-.437-1.192-.656-1.744-.476Zm.711 1.154c.191.082.355.323.355.525 0 .367-.394.662-.744.547a.569.569 0 0 1-.054-1.072c.213-.093.218-.093.443 0Z"/>
  </g>
  <g filter="url(#i)">
    <rect width="60" height="60" x="159.5" fill="#FDFDFD" rx="30" shape-rendering="crispEdges"/>
    <path fill="#4A4849" d="M179.38 15.757c-.21.073-.524.29-.734.5-.701.702-.645-.435-.645 13.553 0 13.988-.056 12.85.645 13.544.685.694-.121.645 10.965.645 11.085 0 10.279.049 10.964-.645.702-.693.645.444.645-13.544 0-13.988.057-12.851-.645-13.545-.685-.693.129-.645-10.997-.637-8.731 0-9.884.016-10.198.13Zm20.276 1.427.274.274v3.322h-20.639v-3.322l.274-.274.274-.274h19.543l.274.274Zm.274 14.931v10.046l-.274.274-.274.274h-19.543l-.274-.274-.274-.274V22.07h20.639v10.045Z"/>
    <path fill="#4A4849" d="M192.392 18.402a.628.628 0 0 0-.201.443.63.63 0 0 0 .201.444c.186.193.25.201 1.089.201.838 0 .903-.008 1.088-.201a.63.63 0 0 0 .202-.444.63.63 0 0 0-.202-.443c-.185-.194-.25-.202-1.088-.202-.839 0-.903.008-1.089.202Zm3.87 0a.628.628 0 0 0-.201.443.63.63 0 0 0 .201.444c.186.193.25.201 1.089.201.838 0 .902-.008 1.088-.201a.628.628 0 0 0 .201-.444.628.628 0 0 0-.201-.443c-.186-.194-.25-.202-1.088-.202-.839 0-.903.008-1.089.202Zm-7.804 6.336c-1.032.154-2.346.67-3.273 1.299-.662.443-1.79 1.668-2.193 2.362-.831 1.443-1.081 2.378-1.073 3.99 0 1.29.105 1.847.524 2.895.371.919.92 1.741 1.685 2.515a7.665 7.665 0 0 0 3.798 2.145c.919.217 2.644.201 3.539-.04 1.516-.412 2.491-.976 3.588-2.072 1.096-1.097 1.661-2.08 2.072-3.588.25-.952.258-2.798 0-3.717-.831-3.031-3.201-5.232-6.2-5.756a8.43 8.43 0 0 0-2.467-.033Zm2.685 1.387c.806.226 1.354.46 1.959.863 3.434 2.241 3.95 7.062 1.064 9.957-2.894 2.886-7.716 2.37-9.957-1.065-.717-1.096-1.008-2.088-1.008-3.49 0-1.403.291-2.395 1-3.483a6.616 6.616 0 0 1 4.2-2.854c.645-.137 2.113-.097 2.742.072Z"/>
    <path fill="#4A4849" d="M188.482 27.351c-1.419.306-2.83 1.411-3.459 2.717-.758 1.564-.758 3.08 0 4.644.815 1.693 2.669 2.838 4.588 2.838 1.91 0 3.716-1.12 4.579-2.822.766-1.532.774-3.136 0-4.676-1.04-2.072-3.402-3.193-5.708-2.7Zm2.056 1.29a3.947 3.947 0 0 1 2.822 2.838c.524 2.007-.758 4.12-2.822 4.66-2.024.524-4.136-.758-4.676-2.822-.718-2.765 1.91-5.393 4.676-4.676Z"/>
  </g>
  <path fill="#4A4849" d="M148.297 68.469v.62h-4.424V77h-.721v-8.531h5.145Zm-4.676 3.697h2.361c.618 0 1.135.102 1.553.305.422.199.74.48.955.843.215.36.322.78.322 1.26 0 .356-.06.682-.181.979a2.133 2.133 0 0 1-.539.773 2.456 2.456 0 0 1-.885.498c-.352.117-.76.176-1.225.176h-2.83v-8.531h.721v7.916h2.109c.5 0 .905-.084 1.213-.252a1.64 1.64 0 0 0 .68-.674c.145-.277.217-.576.217-.897 0-.316-.072-.609-.217-.878a1.59 1.59 0 0 0-.68-.65c-.308-.169-.713-.253-1.213-.253h-2.361v-.615Zm7.465.791h2.068c.5 0 .922.088 1.266.264a1.8 1.8 0 0 1 .779.715c.18.304.27.648.27 1.03 0 .29-.051.56-.153.81-.097.246-.246.46-.445.644a2.02 2.02 0 0 1-.726.428 2.956 2.956 0 0 1-.991.152h-2.513v-6.34h.697v5.737h1.816c.387 0 .7-.067.938-.2a1.23 1.23 0 0 0 .515-.527c.11-.215.164-.443.164-.686a1.47 1.47 0 0 0-.164-.68 1.227 1.227 0 0 0-.515-.532c-.238-.141-.551-.212-.938-.212h-2.068v-.603Zm6.533-2.297V77h-.697v-6.34h.697Zm4.195 0V77h-.697v-6.34h.697Zm2.309 0v.598h-5.232v-.598h5.232Zm.527 3.27v-.194c0-.46.067-.886.2-1.277.132-.39.322-.728.568-1.014.25-.285.549-.505.896-.662.348-.16.735-.24 1.161-.24.429 0 .818.08 1.166.24.347.156.646.377.896.662.25.286.442.623.574 1.014.133.39.2.816.2 1.277v.194c0 .46-.067.886-.2 1.277a2.96 2.96 0 0 1-.574 1.008 2.593 2.593 0 0 1-.891.668 2.794 2.794 0 0 1-1.16.234 2.82 2.82 0 0 1-1.166-.234 2.66 2.66 0 0 1-.896-.668 2.96 2.96 0 0 1-.574-1.008 3.94 3.94 0 0 1-.2-1.277Zm.698-.194v.194c0 .347.047.677.14.99.094.308.231.584.41.826.18.238.403.426.668.563.266.136.573.205.92.205.344 0 .647-.069.909-.205a1.94 1.94 0 0 0 .667-.563c.18-.242.315-.517.405-.826a3.42 3.42 0 0 0 .14-.99v-.194c0-.343-.046-.67-.14-.978a2.534 2.534 0 0 0-.41-.826 1.979 1.979 0 0 0-.668-.575 1.927 1.927 0 0 0-.914-.21c-.344 0-.649.07-.914.21a2.034 2.034 0 0 0-.668.575c-.18.242-.317.517-.411.826a3.515 3.515 0 0 0-.134.978Zm9.216.34h-2.226l-.012-.586h1.899c.382 0 .701-.04.955-.123.258-.086.451-.213.58-.38a.969.969 0 0 0 .199-.622.999.999 0 0 0-.117-.492.876.876 0 0 0-.34-.346 1.691 1.691 0 0 0-.563-.199 3.808 3.808 0 0 0-.779-.07h-1.623V77h-.697v-6.34h2.32c.387 0 .733.035 1.037.106.309.066.573.168.791.304.219.137.385.313.498.528.118.21.176.46.176.75 0 .195-.037.379-.111.55-.074.168-.184.32-.328.458a1.705 1.705 0 0 1-.522.328 2.407 2.407 0 0 1-.715.152l-.422.24Zm0 2.924h-2.443l.27-.598h2.173c.352 0 .651-.045.897-.134.246-.09.432-.223.557-.399.128-.176.193-.388.193-.638a.993.993 0 0 0-.193-.61 1.188 1.188 0 0 0-.557-.398 2.434 2.434 0 0 0-.897-.147h-1.617l.012-.586h2.08l.299.223c.32.027.598.113.832.258.234.144.416.328.545.55.129.22.193.46.193.721 0 .29-.054.545-.164.768a1.487 1.487 0 0 1-.474.55 2.22 2.22 0 0 1-.739.329 3.889 3.889 0 0 1-.967.111Zm7.77-1.137v-3.27c0-.3-.063-.56-.188-.779a1.233 1.233 0 0 0-.55-.503c-.242-.118-.541-.176-.897-.176-.328 0-.621.058-.879.175a1.51 1.51 0 0 0-.603.463 1.032 1.032 0 0 0-.217.64l-.703-.007c0-.238.058-.469.176-.691.117-.223.283-.422.498-.598.215-.176.47-.314.767-.416a2.99 2.99 0 0 1 .991-.158c.453 0 .851.076 1.195.228a1.8 1.8 0 0 1 .814.686c.196.305.293.688.293 1.149v3.064c0 .219.016.445.047.68.035.234.084.427.147.58V77h-.745a2.909 2.909 0 0 1-.111-.527 5.745 5.745 0 0 1-.035-.61Zm.164-2.554.012.539h-1.377c-.36 0-.682.033-.967.1-.281.062-.52.156-.715.28a1.35 1.35 0 0 0-.451.44 1.125 1.125 0 0 0-.152.586c0 .227.056.433.17.621.117.188.281.338.492.451.215.11.469.164.761.164a2.33 2.33 0 0 0 1.032-.217c.301-.144.549-.334.744-.568.195-.234.326-.49.392-.767l.305.404a2.031 2.031 0 0 1-.281.603 2.638 2.638 0 0 1-.522.575c-.214.175-.468.32-.761.433a2.77 2.77 0 0 1-.985.164c-.414 0-.775-.078-1.084-.234a1.808 1.808 0 0 1-.715-.639 1.74 1.74 0 0 1-.251-.926c0-.312.066-.591.199-.837.133-.25.324-.462.574-.633a2.8 2.8 0 0 1 .914-.399 4.82 4.82 0 0 1 1.207-.14h1.459Zm3.797.785h.773L185.311 77h-.774l1.758-2.906Zm.744-3.434h2.49V77h-.697v-5.742h-1.793c-.371 0-.674.062-.908.187a1.19 1.19 0 0 0-.51.48 1.401 1.401 0 0 0-.017 1.254c.097.196.248.356.451.481.203.121.466.182.791.182h2.238v.603h-2.238a2.6 2.6 0 0 1-.885-.14 1.887 1.887 0 0 1-.656-.393 1.767 1.767 0 0 1-.405-.603 2.112 2.112 0 0 1-.134-.756c0-.274.048-.524.146-.75.102-.23.248-.432.44-.604a2.04 2.04 0 0 1 .714-.398c.286-.094.61-.14.973-.14Zm9.557 0V77h-.698v-6.34h.698Zm2.308 0v.598h-5.232v-.598h5.232Zm3.141 6.457a2.82 2.82 0 0 1-1.143-.228 2.74 2.74 0 0 1-.902-.645 2.974 2.974 0 0 1-.592-.984 3.696 3.696 0 0 1-.205-1.254v-.252c0-.488.072-.93.217-1.324.144-.395.344-.733.598-1.014a2.64 2.64 0 0 1 .867-.644 2.42 2.42 0 0 1 1.031-.229c.402 0 .76.072 1.072.217.313.14.574.342.785.603.215.258.377.565.487.92.109.352.164.74.164 1.166v.428h-4.799v-.598h4.102v-.082a2.59 2.59 0 0 0-.217-.996 1.8 1.8 0 0 0-.598-.761c-.266-.196-.598-.293-.996-.293-.297 0-.57.062-.82.187a1.87 1.87 0 0 0-.639.539 2.6 2.6 0 0 0-.41.826 3.696 3.696 0 0 0-.141 1.055v.252c0 .351.051.68.153.984.105.301.253.567.445.797.195.23.426.41.691.54a2 2 0 0 0 .879.192 2.3 2.3 0 0 0 .996-.205c.289-.14.549-.36.78-.662l.439.34c-.137.203-.309.39-.516.563a2.329 2.329 0 0 1-.732.41 2.964 2.964 0 0 1-.996.152Zm4.037-6.457 1.711 2.56 1.717-2.56h.832l-2.151 3.106L210.43 77h-.821l-1.81-2.678L205.994 77h-.82l2.238-3.234-2.15-3.106h.82Zm9.897 2.836v.598h-3.762v-.598h3.762Zm-3.581-2.836V77h-.697v-6.34h.697Zm4.12 0V77h-.704v-6.34h.704Zm2.625 5.203 3.427-5.203h.703V77h-.703v-5.203L219.143 77h-.692v-6.34h.692v5.203Zm6.755-5.203V77h-.703v-6.34h.703Zm4.172 0-2.906 3.434h-1.512l-.076-.627h1.289l2.321-2.807h.884Zm-.632 6.34-2.643-3 .445-.54 3.123 3.54h-.925Zm5.794-1.137v-3.27c0-.3-.062-.56-.187-.779a1.236 1.236 0 0 0-.551-.503c-.242-.118-.541-.176-.896-.176-.328 0-.621.058-.879.175a1.52 1.52 0 0 0-.604.463 1.038 1.038 0 0 0-.217.64l-.703-.007c0-.238.059-.469.176-.691.117-.223.283-.422.498-.598a2.46 2.46 0 0 1 .768-.416c.301-.105.631-.158.99-.158.453 0 .852.076 1.195.228.348.153.619.381.815.686.195.305.293.688.293 1.149v3.064c0 .219.015.445.047.68.035.234.084.427.146.58V77h-.744a2.826 2.826 0 0 1-.111-.527 5.502 5.502 0 0 1-.036-.61Zm.164-2.554.012.539h-1.377c-.359 0-.681.033-.967.1a2.2 2.2 0 0 0-.714.28 1.353 1.353 0 0 0-.452.44 1.135 1.135 0 0 0-.152.586c0 .227.057.433.17.621.117.188.281.338.492.451.215.11.469.164.762.164a2.32 2.32 0 0 0 1.031-.217c.301-.144.549-.334.744-.568a1.87 1.87 0 0 0 .393-.767l.305.404a2.035 2.035 0 0 1-.282.603 2.607 2.607 0 0 1-1.283 1.008c-.289.11-.617.164-.984.164-.414 0-.776-.078-1.084-.234a1.801 1.801 0 0 1-.715-.639 1.732 1.732 0 0 1-.252-.926c0-.312.066-.591.199-.837.133-.25.324-.462.574-.633a2.8 2.8 0 0 1 .914-.399c.36-.093.762-.14 1.208-.14h1.458Z"/>
  <g filter="url(#j)">
    <rect width="60" height="60" x="219" y="169" fill="#FDFDFD" rx="30" shape-rendering="crispEdges"/>
    <path fill="#4A4849" d="M237.317 184.077a.614.614 0 0 0-.223.188c-.088.117-.094 1.418-.094 14.771v14.636l.141.164.14.164h23.118l.141-.164.14-.164v-29.296l-.14-.164-.141-.164-11.483-.012c-6.389-.006-11.529.012-11.599.041Zm10.996 14.947v13.95h-10.258v-27.9h10.258v13.95Zm11.312-10.873v3.077h-10.257v-6.154h10.257v3.077Zm0 7.268v3.077h-10.257v-6.154h10.257v3.077Zm0 7.21v3.077h-10.257v-6.154h10.257v3.077Zm0 7.268v3.077h-10.257v-6.154h10.257v3.077Z"/>
    <path fill="#4A4849" d="m246.454 196.762-.164.14v4.244l.164.141c.223.193.504.187.71-.012l.152-.158v-4.185l-.152-.159c-.206-.199-.487-.205-.71-.011Z"/>
  </g>
  <path fill="#4A4849" d="M221.256 237.469V246h-.721v-8.531h.721Zm5.344 0-3.786 4.529h-1.845l-.065-.621h1.489l3.304-3.908h.903Zm-.639 8.531-3.604-4.084.416-.633 4.084 4.717h-.896Zm1.5-3.07v-.194c0-.461.066-.886.199-1.277.133-.391.322-.729.569-1.014.25-.285.548-.506.896-.662.348-.16.734-.24 1.16-.24.43 0 .819.08 1.166.24.348.156.647.377.897.662.25.285.441.623.574 1.014.133.391.199.816.199 1.277v.194c0 .461-.066.886-.199 1.277a2.975 2.975 0 0 1-.574 1.008 2.595 2.595 0 0 1-.891.668 2.802 2.802 0 0 1-1.16.234c-.43 0-.818-.078-1.166-.234a2.656 2.656 0 0 1-.897-.668 2.975 2.975 0 0 1-.574-1.008 3.94 3.94 0 0 1-.199-1.277Zm.697-.194v.194c0 .347.047.677.141.99.094.309.23.584.41.826.18.238.402.426.668.563.266.136.572.205.92.205.344 0 .646-.069.908-.205.266-.137.488-.325.668-.563.18-.242.315-.517.404-.826.094-.313.141-.643.141-.99v-.194c0-.343-.047-.67-.141-.978a2.488 2.488 0 0 0-.41-.826 1.957 1.957 0 0 0-.668-.575 1.929 1.929 0 0 0-.914-.211c-.344 0-.648.071-.914.211a2.044 2.044 0 0 0-.668.575c-.18.242-.316.517-.41.826-.09.308-.135.635-.135.978Zm7.108-1.857v7.559h-.704v-8.778h.657l.047 1.219Zm4.406 1.892v.124c0 .472-.055.906-.164 1.3-.11.395-.268.737-.475 1.026a2.113 2.113 0 0 1-.756.662 2.19 2.19 0 0 1-1.025.234 2.73 2.73 0 0 1-1.014-.176 2.221 2.221 0 0 1-.767-.498 2.619 2.619 0 0 1-.51-.761 3.879 3.879 0 0 1-.264-.961v-1.623c.059-.383.155-.731.287-1.043a2.83 2.83 0 0 1 .51-.809c.211-.226.461-.4.75-.521s.619-.182.99-.182c.387 0 .731.076 1.032.228.304.149.56.366.767.651.211.281.369.621.475 1.019.109.395.164.838.164 1.33Zm-.703.124v-.124c0-.371-.039-.714-.117-1.031a2.53 2.53 0 0 0-.346-.826 1.635 1.635 0 0 0-.586-.557 1.681 1.681 0 0 0-.838-.199c-.336 0-.623.057-.861.17-.235.11-.43.256-.586.44-.156.179-.28.377-.369.591a3.47 3.47 0 0 0-.2.633v1.869c.075.297.194.573.358.827.164.25.383.451.656.603.277.148.615.223 1.014.223.32 0 .597-.067.832-.2a1.64 1.64 0 0 0 .58-.556 2.6 2.6 0 0 0 .346-.832c.078-.317.117-.66.117-1.031Zm6.556-3.235v.61h-3.709v-.61h3.709Zm-3.55 0V246h-.698v-6.34h.698Zm4.125 0V246h-.704v-6.34h.704Zm3.761 5.707 1.975-5.707h.756l-2.684 7.36a5.565 5.565 0 0 1-.211.48 2.208 2.208 0 0 1-.328.504 1.541 1.541 0 0 1-1.236.557c-.074 0-.17-.01-.287-.03a1.555 1.555 0 0 1-.246-.047l-.006-.591a2.094 2.094 0 0 0 .357.041c.254 0 .467-.043.639-.129.176-.086.322-.215.439-.387.117-.168.221-.379.311-.633l.521-1.418Zm-1.845-5.707 2.021 5.444.188.732-.51.287-2.461-6.463h.762Zm7.927 5.854c.297 0 .575-.055.832-.164a1.61 1.61 0 0 0 .645-.498c.172-.223.269-.495.293-.815h.668c-.02.402-.143.762-.369 1.078a2.326 2.326 0 0 1-.879.739c-.36.175-.756.263-1.19.263-.441 0-.832-.08-1.172-.24a2.359 2.359 0 0 1-.843-.668 3.062 3.062 0 0 1-.516-1.008 4.434 4.434 0 0 1-.17-1.248v-.246c0-.445.057-.859.17-1.242.117-.387.289-.723.516-1.008.226-.289.508-.514.843-.674.336-.16.725-.24 1.167-.24.453 0 .859.092 1.218.275.364.184.653.444.867.78.219.336.338.734.358 1.195h-.668a1.763 1.763 0 0 0-.27-.879 1.616 1.616 0 0 0-.632-.568 1.9 1.9 0 0 0-.873-.2c-.36 0-.667.071-.92.211a1.715 1.715 0 0 0-.622.569 2.585 2.585 0 0 0-.345.82 4.06 4.06 0 0 0-.112.961v.246c0 .34.036.664.106.973.074.304.189.576.346.814.16.239.367.428.621.569.258.136.568.205.931.205Zm8.174-3.018v.598h-3.762v-.598h3.762Zm-3.58-2.836V246h-.697v-6.34h.697Zm4.119 0V246h-.703v-6.34h.703Zm5.742 5.203v-3.269c0-.301-.062-.561-.187-.78a1.237 1.237 0 0 0-.551-.503c-.242-.118-.541-.176-.896-.176a2.09 2.09 0 0 0-.879.176 1.518 1.518 0 0 0-.604.462 1.041 1.041 0 0 0-.217.639l-.703-.006c0-.238.059-.468.176-.691.117-.223.283-.422.498-.598a2.46 2.46 0 0 1 .768-.416c.301-.105.631-.158.99-.158.453 0 .852.076 1.195.228.348.153.619.381.815.686.195.305.293.688.293 1.148v3.065c0 .219.015.445.047.68.035.234.084.427.146.58v.07h-.744a2.827 2.827 0 0 1-.111-.527 5.506 5.506 0 0 1-.036-.61Zm.164-2.554.012.539h-1.377c-.359 0-.681.033-.967.099a2.21 2.21 0 0 0-.714.282 1.35 1.35 0 0 0-.452.439 1.135 1.135 0 0 0-.152.586c0 .226.057.434.17.621.117.187.281.338.492.451.215.11.469.164.762.164a2.32 2.32 0 0 0 1.031-.217c.301-.144.549-.334.744-.568.196-.234.327-.49.393-.767l.305.404a2.036 2.036 0 0 1-.282.603 2.619 2.619 0 0 1-.521.575c-.215.175-.469.32-.762.433a2.774 2.774 0 0 1-.984.164c-.414 0-.776-.078-1.084-.234a1.797 1.797 0 0 1-.715-.639 1.732 1.732 0 0 1-.252-.926c0-.312.066-.591.199-.838.133-.25.324-.46.574-.632.254-.176.559-.309.914-.399.36-.094.762-.14 1.208-.14h1.458Zm3.797.785h.774L273.375 246h-.773l1.757-2.906Zm.745-3.434h2.49V246h-.698v-5.742h-1.792c-.372 0-.674.062-.909.187-.23.121-.4.282-.509.481a1.338 1.338 0 0 0-.159.638c0 .215.047.42.141.616.098.195.248.355.451.48.203.121.467.182.791.182h2.238v.603h-2.238a2.6 2.6 0 0 1-.885-.14 1.91 1.91 0 0 1-.656-.393 1.768 1.768 0 0 1-.404-.603 2.096 2.096 0 0 1-.135-.756c0-.274.049-.524.147-.75a1.75 1.75 0 0 1 .439-.604c.195-.172.434-.304.715-.398a3.1 3.1 0 0 1 .973-.141Zm-42.176 21.379 2.519-5.379h.698l-2.971 6.34h-.492l-2.965-6.34h.697l2.514 5.379Zm-2.731-5.379V262h-.697v-6.34h.697Zm5.414 6.34v-6.34h.703V262h-.703Zm5.039.117c-.414 0-.795-.076-1.142-.228a2.749 2.749 0 0 1-.903-.645 2.967 2.967 0 0 1-.591-.984 3.698 3.698 0 0 1-.205-1.254v-.252c0-.488.072-.93.216-1.324a3.07 3.07 0 0 1 .598-1.014c.254-.281.543-.496.867-.645a2.425 2.425 0 0 1 1.031-.228c.403 0 .76.072 1.073.217.312.14.574.342.785.603.215.258.377.565.486.92.11.352.164.74.164 1.166v.428h-4.799v-.598h4.102v-.082a2.575 2.575 0 0 0-.217-.996 1.813 1.813 0 0 0-.597-.762c-.266-.195-.598-.293-.997-.293-.296 0-.57.063-.82.188a1.874 1.874 0 0 0-.639.539 2.628 2.628 0 0 0-.41.826c-.093.317-.14.668-.14 1.055v.252c0 .351.05.68.152.984.106.301.254.567.445.797a2.1 2.1 0 0 0 .692.539c.265.129.558.194.879.194a2.3 2.3 0 0 0 .996-.206c.289-.14.549-.361.779-.662l.44.34a2.692 2.692 0 0 1-.516.563 2.33 2.33 0 0 1-.733.41 2.98 2.98 0 0 1-.996.152Zm7.875-9.217h.604c0 .293-.053.538-.158.733a1.235 1.235 0 0 1-.434.474 2.373 2.373 0 0 1-.662.288 8.03 8.03 0 0 1-.82.169 2.69 2.69 0 0 0-1.002.358 2.485 2.485 0 0 0-.774.756c-.215.316-.377.709-.486 1.177-.105.465-.148 1.01-.129 1.635v.545h-.603v-.545c0-.687.066-1.297.199-1.828.136-.535.33-.992.58-1.371a3.1 3.1 0 0 1 .902-.902 3.05 3.05 0 0 1 1.166-.446c.399-.062.715-.138.949-.228.239-.09.409-.201.51-.334a.746.746 0 0 0 .158-.481Zm-1.558 3.176c.414 0 .787.07 1.119.211.332.141.615.34.85.598.238.254.419.554.544.902.129.344.194.721.194 1.131v.187c0 .438-.067.84-.199 1.207a2.753 2.753 0 0 1-.563.956 2.493 2.493 0 0 1-.885.627 2.886 2.886 0 0 1-1.154.222c-.43 0-.816-.074-1.16-.222a2.566 2.566 0 0 1-.885-.627 2.827 2.827 0 0 1-.568-.956 3.517 3.517 0 0 1-.199-1.207v-.187c0-.113.011-.225.035-.334.027-.109.06-.217.099-.322l.117-.323c.137-.355.331-.671.581-.949a2.76 2.76 0 0 1 .896-.668 2.754 2.754 0 0 1 1.178-.246Zm-.106.598c-.457 0-.841.105-1.154.316a1.983 1.983 0 0 0-.703.826c-.16.34-.24.707-.24 1.102v.187c0 .325.045.631.134.92.09.289.223.547.399.774.18.222.4.398.662.527s.566.194.914.194c.344 0 .647-.065.908-.194.262-.129.481-.305.657-.527.175-.227.308-.485.398-.774.09-.289.135-.595.135-.92v-.187c0-.297-.045-.58-.135-.85a2.097 2.097 0 0 0-.404-.714 1.86 1.86 0 0 0-.662-.499 2.147 2.147 0 0 0-.909-.181Zm6.61 5.443c-.414 0-.795-.076-1.143-.228a2.745 2.745 0 0 1-.902-.645 2.969 2.969 0 0 1-.592-.984 3.698 3.698 0 0 1-.205-1.254v-.252c0-.488.072-.93.217-1.324a3.05 3.05 0 0 1 .597-1.014c.254-.281.543-.496.868-.645a2.422 2.422 0 0 1 1.031-.228c.402 0 .76.072 1.072.217.313.14.574.342.785.603.215.258.377.565.487.92.109.352.164.74.164 1.166v.428h-4.799v-.598h4.101v-.082a2.574 2.574 0 0 0-.216-.996 1.808 1.808 0 0 0-.598-.762c-.266-.195-.598-.293-.996-.293-.297 0-.571.063-.821.188a1.861 1.861 0 0 0-.638.539 2.586 2.586 0 0 0-.41.826 3.7 3.7 0 0 0-.141 1.055v.252c0 .351.051.68.152.984.106.301.254.567.446.797.195.231.425.41.691.539.266.129.559.194.879.194a2.3 2.3 0 0 0 .996-.206c.289-.14.549-.361.779-.662l.44.34a2.692 2.692 0 0 1-.516.563 2.336 2.336 0 0 1-.732.41 2.98 2.98 0 0 1-.996.152Zm8.062-6.457v.61h-3.211v-.61h3.211Zm.569 0V262h-.698v-6.34h.698Zm-3.967 0h.697l-.141 2.971c-.023.48-.062.906-.117 1.277-.051.371-.121.69-.211.955-.09.262-.205.477-.345.645a1.27 1.27 0 0 1-.498.375 1.846 1.846 0 0 1-.686.117h-.264v-.633l.217-.006c.168-.007.315-.043.44-.105a.832.832 0 0 0 .328-.299c.093-.137.17-.316.228-.539.063-.223.112-.494.147-.814.039-.325.068-.706.088-1.143l.117-2.801Zm6.381 2.297h2.068c.5 0 .922.088 1.266.264.343.172.603.41.779.715.18.304.269.648.269 1.031 0 .289-.05.558-.152.808a1.752 1.752 0 0 1-.445.645 2.033 2.033 0 0 1-.727.428 2.959 2.959 0 0 1-.99.152h-2.514v-6.34h.698v5.736h1.816c.387 0 .699-.066.937-.199.239-.136.411-.312.516-.527a1.495 1.495 0 0 0 0-1.365 1.226 1.226 0 0 0-.516-.534c-.238-.14-.55-.21-.937-.21h-2.068v-.604Z"/>
  <g filter="url(#k)">
    <rect width="60" height="60" x="4" y="203" fill="#FDFDFD" rx="30" shape-rendering="crispEdges"/>
    <path fill="#4A4849" d="M26.308 218.305c-2.588 1.814-4.76 3.354-4.83 3.417-.176.162-.176.548.006.731.183.183.45.183 2.117 0 5.78-.619 7.355-.78 7.51-.759l.182.021.155 1.441c.084.795.154 1.519.154 1.617l.008.176-.647-.049c-3.65-.253-6.701.359-8.093 1.638-.914.83-2.279 3.333-2.96 5.421-1.477 4.486-1.083 8.621 1.153 12.228.738 1.188 2.018 2.601 3.129 3.445a16.371 16.371 0 0 0 9.316 3.347c2.482.091 4.472-.302 6.518-1.28 4.247-2.032 7.115-6.18 7.945-11.496.183-1.181.183-4.071 0-4.676-.597-1.954-2.784-4.036-5.878-5.583-.387-.196-.71-.372-.71-.393 0-.021.513-.809 1.146-1.751l1.14-1.716 2.165 2.419c1.188 1.329 2.243 2.468 2.341 2.538.134.085.225.099.359.05.26-.092.47-.401.415-.612-.05-.204-4.852-5.59-5.12-5.738-.393-.225-.477-.133-1.975 2.103a145.556 145.556 0 0 0-1.448 2.172c-.05.078-.26.021-1.104-.288a30.198 30.198 0 0 0-5.499-1.491c-.555-.091-1.02-.182-1.033-.196-.05-.05-.394-3.446-.359-3.481.021-.021 2.116-.253 4.662-.52 2.672-.281 4.704-.521 4.802-.577.26-.133.387-.429.281-.682-.098-.232.141-.119-4.64-2.144-1.8-.767-3.93-1.667-4.746-2.011-.809-.345-1.533-.626-1.618-.626-.077 0-2.257 1.484-4.844 3.305Zm6.426.197c.704.942 1.266 1.722 1.252 1.736-.014.014-.956.12-2.095.239-1.14.12-2.159.232-2.264.253-.113.014-.197 0-.197-.042s.415-.97.928-2.074c.724-1.561.942-1.983 1.012-1.912.043.049.654.864 1.364 1.8Zm3.48-.233c1.703.725 3.123 1.343 3.165 1.379.035.035-.007.063-.105.063-.099 0-1.013.091-2.04.204-1.026.112-1.884.19-1.912.169-.077-.043-2.377-3.101-2.377-3.157 0-.022.043-.029.092-.008.042.022 1.476.626 3.178 1.35Zm-6.573-.724c-.07.169-.45.985-.83 1.814l-.696 1.512-1.997.225c-1.097.127-2.032.218-2.074.211-.078-.014 5.576-4.05 5.681-4.057.028 0-.014.134-.084.295Zm1.118 8.424c.513.035.949.077.97.091.014.021.07.387.12.816l.084.787-.809-.056c-2.974-.204-4.69.19-5.196 1.174-.59 1.139.851 2.848 3.502 4.149.443.225.984.471 1.202.555.302.12.492.267.865.682.26.288.577.577.696.64.253.127.921.141 1.315.021.394-.112.78-.084 1.701.141a34.82 34.82 0 0 0 1.864.379c.9.148 1.033.197 1.336.415.801.584 1.139.598 2.341.134a9.381 9.381 0 0 1 1.3-.401c1.035-.211 1.674-.591 1.97-1.181.225-.45.225-.753-.007-1.238-.436-.942-1.807-2.081-3.495-2.897a11.815 11.815 0 0 0-.626-.288c-.056-.021.577-1.069.83-1.378.035-.049 1.54.738 2.215 1.146 2.587 1.575 4.212 3.544 4.05 4.908-.169 1.42-1.899 2.58-3.84 2.58-.625 0-.962.176-1.905.985-.914.787-1.075.872-1.357.724-.112-.056-.372-.281-.57-.499-1.469-1.61-1.427-1.582-3.135-1.737a30.783 30.783 0 0 1-1.8-.211c-.992-.183-1.104-.155-1.688.401l-.295.281-.366-.612c-.47-.78-.717-1.019-1.272-1.223-.246-.091-1.07-.464-1.821-.823-1.512-.724-1.625-.752-2.574-.576-.408.07-.464.07-.598-.056-.084-.071-.38-.598-.66-1.161-.373-.766-.612-1.153-.929-1.511-.85-.964-1.216-1.716-1.216-2.475 0-.394.035-.535.204-.823.246-.429.408-.584.956-.914 1.28-.766 3.881-1.139 6.638-.949Zm3.241.422a28.078 28.078 0 0 1 5.681 1.652c.014.014-.175.323-.421.696-.296.457-.479.668-.549.647-.056-.021-.563-.19-1.125-.387a28.065 28.065 0 0 0-3.621-.984l-.914-.183-.084-.668c-.12-.991-.12-.991.07-.949.084.014.52.098.963.176Zm-2.545 2.313c.281.035.527.077.548.098.021.021.155 1.132.303 2.468l.26 2.433-.5-.506c-.38-.394-.597-.556-.914-.682-1.174-.471-2.608-1.287-3.438-1.955-.47-.387-.886-.921-.886-1.153 0-.288.647-.577 1.512-.689.647-.077 2.46-.084 3.115-.014Zm2.749.464c1.195.253 3.769 1.034 3.93 1.195.014.014-.513.83-1.174 1.821-1.16 1.737-1.21 1.8-1.399 1.758l-.682-.176a3.783 3.783 0 0 0-.85-.133h-.366l-.043-.303c-.02-.161-.12-1.068-.218-2.018a128.77 128.77 0 0 0-.21-2.025c-.05-.358-.099-.351 1.012-.119Zm-11.37 2.102c.127.155.373.443.549.64.21.225.464.647.731 1.195.865 1.8 1.174 2.032 2.44 1.814l.633-.105 1.104.527a47.5 47.5 0 0 0 1.736.802l.633.267.43.654c.534.809.759 1.048 1.06 1.132.352.098.676-.028 1.126-.443l.408-.366.422.085c.239.049.977.14 1.652.204.675.063 1.329.14 1.441.183.218.063.739.562 1.322 1.265.443.535.921.837 1.413.886.535.056 1.083-.211 1.927-.956.366-.317.724-.619.809-.668.084-.056.443-.12.787-.148a9.301 9.301 0 0 0 1.125-.154c.605-.127 1.652-.626 2.06-.971l.296-.26v.38c0 .204-.05.689-.106 1.069-.682 4.507-3.255 8.402-6.7 10.132-1.196.597-2.947 1.125-4.43 1.328-1.027.148-2.932.148-3.959 0a13.897 13.897 0 0 1-7.854-3.888c-1.94-1.926-3.143-4.254-3.642-7.038-.169-.921-.169-3.009 0-3.973.26-1.547.682-2.861 1.35-4.254l.387-.808.316.59c.169.324.415.718.534.879Zm17.206-.098c1.85.949 3.143 2.074 3.002 2.622-.056.24-.597.5-1.343.654-.31.064-.815.218-1.132.352-.316.127-.703.26-.858.302-.274.057-.316.042-.59-.168a7.43 7.43 0 0 0-.513-.338c-.233-.112-1.182-.33-1.477-.33-.098 0-.176-.022-.176-.05 0-.126 2.222-3.396 2.306-3.396.057 0 .408.162.78.352Z"/>
  </g>
  <path fill="#4A4849" d="M22.076 275.277v.914c0 .598-.078 1.139-.234 1.623a3.52 3.52 0 0 1-.668 1.237 2.917 2.917 0 0 1-1.043.791 3.303 3.303 0 0 1-1.371.275 3.3 3.3 0 0 1-1.36-.275 2.971 2.971 0 0 1-1.048-.791 3.67 3.67 0 0 1-.68-1.237 5.147 5.147 0 0 1-.24-1.623v-.914c0-.597.078-1.136.234-1.617.16-.484.387-.898.68-1.242a2.973 2.973 0 0 1 1.049-.791 3.243 3.243 0 0 1 1.353-.275c.508 0 .965.091 1.371.275.406.184.756.447 1.049.791.293.344.518.758.674 1.242a5.22 5.22 0 0 1 .234 1.617Zm-.715.914v-.925c0-.504-.058-.957-.175-1.36a2.9 2.9 0 0 0-.51-1.031 2.23 2.23 0 0 0-.82-.656 2.565 2.565 0 0 0-1.108-.229c-.402 0-.764.076-1.084.229-.32.152-.594.371-.82.656a3.116 3.116 0 0 0-.516 1.031 4.866 4.866 0 0 0-.176 1.36v.925c0 .508.059.965.176 1.371.121.403.295.749.522 1.038.226.285.5.504.82.656.324.152.687.228 1.09.228.418 0 .787-.076 1.107-.228a2.25 2.25 0 0 0 .815-.656c.222-.289.39-.635.504-1.038a4.95 4.95 0 0 0 .175-1.371Zm4.612-2.531V280h-.698v-6.34h.698Zm2.308 0v.598H23.05v-.598h5.232Zm5.455 0v.61h-3.709v-.61h3.71Zm-3.55 0V280h-.698v-6.34h.698Zm4.124 0V280h-.703v-6.34h.703Zm3.762 5.707 1.975-5.707h.756l-2.684 7.36a5.787 5.787 0 0 1-.21.48 2.218 2.218 0 0 1-.329.504 1.543 1.543 0 0 1-1.236.557c-.075 0-.17-.01-.287-.03a1.597 1.597 0 0 1-.247-.047l-.005-.591a2.086 2.086 0 0 0 .357.041c.254 0 .467-.043.639-.129.176-.086.322-.215.44-.387.116-.168.22-.379.31-.633l.521-1.418Zm-1.845-5.707 2.021 5.444.188.732-.51.287-2.461-6.463h.762Zm7.927 5.854c.297 0 .574-.055.832-.164a1.61 1.61 0 0 0 .645-.498 1.48 1.48 0 0 0 .293-.815h.668c-.02.402-.143.762-.37 1.078a2.322 2.322 0 0 1-.878.739 2.68 2.68 0 0 1-1.19.263c-.441 0-.832-.08-1.172-.24a2.358 2.358 0 0 1-.843-.668 3.073 3.073 0 0 1-.516-1.008 4.427 4.427 0 0 1-.17-1.248v-.246c0-.445.057-.859.17-1.242.117-.387.29-.723.516-1.008a2.33 2.33 0 0 1 .843-.674c.336-.16.725-.24 1.166-.24.454 0 .86.092 1.22.275.362.184.651.444.866.78.22.336.338.734.358 1.195h-.668c-.02-.34-.11-.633-.27-.879a1.615 1.615 0 0 0-.633-.568 1.9 1.9 0 0 0-.873-.2c-.359 0-.666.071-.92.211a1.71 1.71 0 0 0-.62.569 2.586 2.586 0 0 0-.346.82 4.05 4.05 0 0 0-.112.961v.246c0 .34.035.664.106.973.074.304.19.576.346.814.16.239.367.428.62.569.258.136.569.205.932.205Zm4.594-5.854V280h-.703v-6.34h.703Zm4.172 0-2.906 3.434h-1.512l-.076-.627h1.289l2.32-2.807h.885Zm-.633 6.34-2.642-3 .445-.539L53.213 280h-.926Z"/>
  <g filter="url(#l)">
    <rect width="60" height="60" x="109" y="262" fill="#FDFDFD" rx="30" shape-rendering="crispEdges"/>
    <path fill="#4A4849" d="M133.656 277.973c-.056.014-.344.063-.633.105-2.524.415-4.872 2.166-6.075 4.549-.618 1.238-.815 2.131-.864 3.966l-.036 1.448-.4.043a4.18 4.18 0 0 0-1.674.604c-2.151 1.407-2.468 4.324-.675 6.103.408.401 1.287.936 1.54.936.084 0 .099.646.099 3.874 0 2.84.021 3.958.084 4.169.162.549.949 1.167 1.491 1.167.098 0 .112.183.112 1.793v1.8l.176.169c.162.169.197.176 1.216.176.9 0 1.076-.021 1.203-.127.105-.084.253-.499.541-1.49.211-.753.45-1.582.527-1.849l.141-.472h17.142l.141.479c.077.26.316 1.089.527 1.842.288.991.436 1.406.542 1.49.126.106.302.127 1.202.127 1.019 0 1.055-.007 1.216-.176l.176-.169v-1.8c0-1.61.014-1.793.113-1.793.541 0 1.328-.618 1.49-1.167.063-.211.085-1.329.085-4.169 0-3.228.014-3.874.098-3.874.253 0 1.132-.535 1.54-.936a3.927 3.927 0 0 0 .548-4.893c-.64-.985-2.053-1.836-3.072-1.836h-.218l-.043-1.462c-.028-.921-.084-1.631-.147-1.934-.387-1.68-1.139-3.051-2.321-4.239-1.16-1.154-2.482-1.892-4.12-2.3-.576-.14-.78-.147-6.082-.161-3.016-.007-5.533-.007-5.59.007Zm11.004 1.195a7.33 7.33 0 0 1 6.047 6.047c.141.858.148 3.058.007 3.058-.049 0-.323.113-.598.254a3.843 3.843 0 0 0-1.687 1.736c-.352.732-.429 1.167-.429 2.433v1.027h-17.986l-.028-1.266c-.028-1.132-.049-1.315-.211-1.73-.253-.675-.506-1.082-.977-1.547-.387-.379-1.273-.907-1.512-.907-.141 0-.134-2.2.007-3.058.499-3.08 2.932-5.534 5.998-6.047.836-.141 10.504-.141 11.369 0Zm-17.444 10.287c.64.295 1.047.703 1.364 1.336l.26.534.035 3.86.035 3.86.169.134c.162.126.422.133 9.921.133 9.499 0 9.759-.007 9.921-.133l.169-.134.035-3.86.035-3.853.225-.471c.31-.654.703-1.062 1.343-1.378.506-.246.57-.26 1.21-.26.639 0 .703.014 1.209.26.64.316 1.034.724 1.343 1.378.204.429.225.534.225 1.139s-.021.71-.225 1.139c-.295.633-.703 1.055-1.308 1.357-.267.134-.548.246-.619.246-.218 0-.464.148-.548.331-.056.119-.077 1.42-.077 4.282v4.113l-.176.169-.169.175h-25.186l-.169-.175-.175-.169v-4.113c0-2.911-.022-4.163-.078-4.289-.084-.176-.267-.275-.661-.366-.71-.162-1.406-.745-1.772-1.491-.253-.506-.267-.569-.267-1.202 0-.612.021-.717.225-1.146.281-.598.682-1.034 1.21-1.308.548-.295.857-.366 1.497-.337.429.021.647.077.999.239Zm20.608 5.533c.176.169.176.169.176 1.688v1.511h-18v-1.511c0-1.519 0-1.519.176-1.688l.169-.176h17.311l.168.176Zm-18.597 10.006c0 .049-.317 1.188-.64 2.278l-.141.478h-.696v-2.813h.738c.408 0 .739.029.739.057Zm21.023 1.35v1.406h-.696l-.141-.478c-.323-1.09-.64-2.229-.64-2.278 0-.028.331-.057.739-.057h.738v1.407Z"/>
  </g>
  <path fill="#4A4849" d="M119.74 330.469h.727l3.152 7.511 3.158-7.511h.721L123.895 339h-.551l-3.604-8.531Zm-.222 0h.638l.076 4.804V339h-.714v-8.531Zm7.576 0h.638V339h-.72v-3.727l.082-4.804Zm4.025 5.625h.774L130.135 339h-.774l1.758-2.906Zm.744-3.434h2.491V339h-.698v-5.742h-1.793c-.371 0-.674.062-.908.187-.23.121-.4.282-.51.481a1.349 1.349 0 0 0-.158.638c0 .215.047.42.141.616.097.195.248.355.451.48.203.121.467.182.791.182h2.238v.603h-2.238a2.6 2.6 0 0 1-.885-.14 1.9 1.9 0 0 1-.656-.393 1.754 1.754 0 0 1-.404-.603 2.096 2.096 0 0 1-.135-.756c0-.274.049-.524.146-.75.102-.231.248-.432.44-.604.195-.172.433-.304.715-.398.285-.094.609-.141.972-.141Zm8.338 0v.61h-3.211V339h-.697v-6.34h3.908Zm1.858 0V339h-.704v-6.34h.704Zm4.171 0-2.906 3.434h-1.512l-.076-.627h1.289l2.321-2.807h.884Zm-.632 6.34-2.643-3 .445-.539 3.123 3.539h-.925Zm5.795-1.137v-3.269c0-.301-.063-.561-.188-.78a1.237 1.237 0 0 0-.551-.503c-.242-.118-.541-.176-.896-.176a2.09 2.09 0 0 0-.879.176 1.518 1.518 0 0 0-.604.462 1.04 1.04 0 0 0-.216.639l-.704-.006c0-.238.059-.468.176-.691.117-.223.283-.422.498-.598a2.46 2.46 0 0 1 .768-.416c.301-.105.631-.158.99-.158.453 0 .852.076 1.195.228a1.8 1.8 0 0 1 .815.686c.195.305.293.688.293 1.148v3.065c0 .219.015.445.047.68.035.234.084.427.146.58v.07h-.744a2.827 2.827 0 0 1-.111-.527 5.495 5.495 0 0 1-.035-.61Zm.164-2.554.011.539h-1.377c-.359 0-.681.033-.966.099-.282.063-.52.157-.715.282a1.337 1.337 0 0 0-.451.439 1.126 1.126 0 0 0-.153.586c0 .226.057.434.17.621.117.187.281.338.492.451.215.11.469.164.762.164a2.32 2.32 0 0 0 1.031-.217c.301-.144.549-.334.744-.568.196-.234.327-.49.393-.767l.305.404a2.036 2.036 0 0 1-.282.603 2.619 2.619 0 0 1-.521.575c-.215.175-.469.32-.762.433a2.774 2.774 0 0 1-.984.164c-.414 0-.775-.078-1.084-.234a1.797 1.797 0 0 1-.715-.639 1.732 1.732 0 0 1-.252-.926c0-.312.067-.591.199-.838.133-.25.325-.46.575-.632a2.78 2.78 0 0 1 .914-.399c.359-.094.761-.14 1.207-.14h1.459Zm3.797.785h.773L154.369 339h-.773l1.758-2.906Zm.744-3.434h2.49V339h-.697v-5.742h-1.793c-.371 0-.674.062-.909.187-.23.121-.4.282-.509.481a1.338 1.338 0 0 0-.159.638c0 .215.047.42.141.616.098.195.248.355.451.48.203.121.467.182.791.182h2.239v.603h-2.239a2.59 2.59 0 0 1-.884-.14 1.905 1.905 0 0 1-.657-.393 1.782 1.782 0 0 1-.404-.603 2.096 2.096 0 0 1-.135-.756c0-.274.049-.524.147-.75a1.75 1.75 0 0 1 .439-.604c.195-.172.434-.304.715-.398a3.1 3.1 0 0 1 .973-.141Zm-33.17 21.379 2.519-5.379h.698l-2.971 6.34h-.492l-2.965-6.34h.697l2.514 5.379Zm-2.731-5.379V355h-.697v-6.34h.697Zm5.414 6.34v-6.34h.703V355h-.703Zm5.039.117c-.414 0-.795-.076-1.142-.228a2.749 2.749 0 0 1-.903-.645 2.967 2.967 0 0 1-.591-.984 3.698 3.698 0 0 1-.205-1.254v-.252c0-.488.072-.93.216-1.324a3.07 3.07 0 0 1 .598-1.014c.254-.281.543-.496.867-.645a2.425 2.425 0 0 1 1.031-.228c.403 0 .76.072 1.073.217.312.14.574.342.785.603.215.258.377.565.486.92.11.352.164.74.164 1.166v.428h-4.799v-.598h4.102v-.082a2.575 2.575 0 0 0-.217-.996 1.813 1.813 0 0 0-.597-.762c-.266-.195-.598-.293-.997-.293-.296 0-.57.063-.82.188a1.874 1.874 0 0 0-.639.539 2.628 2.628 0 0 0-.41.826c-.093.317-.14.668-.14 1.055v.252c0 .351.05.68.152.984.106.301.254.567.445.797a2.1 2.1 0 0 0 .692.539c.265.129.558.194.879.194a2.3 2.3 0 0 0 .996-.206c.289-.14.549-.361.779-.662l.44.34a2.692 2.692 0 0 1-.516.563 2.33 2.33 0 0 1-.733.41 2.98 2.98 0 0 1-.996.152Zm7.875-9.217h.604c0 .293-.053.538-.158.733a1.235 1.235 0 0 1-.434.474 2.373 2.373 0 0 1-.662.288 8.03 8.03 0 0 1-.82.169 2.69 2.69 0 0 0-1.002.358 2.485 2.485 0 0 0-.774.756c-.215.316-.377.709-.486 1.177-.105.465-.148 1.01-.129 1.635v.545h-.603v-.545c0-.687.066-1.297.199-1.828.136-.535.33-.992.58-1.371a3.1 3.1 0 0 1 .902-.902 3.05 3.05 0 0 1 1.166-.446c.399-.062.715-.138.949-.228.239-.09.409-.201.51-.334a.746.746 0 0 0 .158-.481Zm-1.558 3.176c.414 0 .787.07 1.119.211.332.141.615.34.85.598.238.254.419.554.544.902.129.344.194.721.194 1.131v.187c0 .438-.067.84-.199 1.207a2.753 2.753 0 0 1-.563.956 2.493 2.493 0 0 1-.885.627 2.886 2.886 0 0 1-1.154.222c-.43 0-.816-.074-1.16-.222a2.566 2.566 0 0 1-.885-.627 2.827 2.827 0 0 1-.568-.956 3.517 3.517 0 0 1-.199-1.207v-.187c0-.113.011-.225.035-.334.027-.109.06-.217.099-.322l.117-.323c.137-.355.331-.671.581-.949a2.76 2.76 0 0 1 .896-.668 2.754 2.754 0 0 1 1.178-.246Zm-.106.598c-.457 0-.841.105-1.154.316a1.983 1.983 0 0 0-.703.826c-.16.34-.24.707-.24 1.102v.187c0 .325.045.631.134.92.09.289.223.547.399.774.18.222.4.398.662.527s.566.194.914.194c.344 0 .647-.065.908-.194.262-.129.481-.305.657-.527.175-.227.308-.485.398-.774.09-.289.135-.595.135-.92v-.187c0-.297-.045-.58-.135-.85a2.097 2.097 0 0 0-.404-.714 1.86 1.86 0 0 0-.662-.499 2.147 2.147 0 0 0-.909-.181Zm6.61 5.443c-.414 0-.795-.076-1.143-.228a2.745 2.745 0 0 1-.902-.645 2.969 2.969 0 0 1-.592-.984 3.698 3.698 0 0 1-.205-1.254v-.252c0-.488.072-.93.217-1.324a3.05 3.05 0 0 1 .597-1.014c.254-.281.543-.496.868-.645a2.422 2.422 0 0 1 1.031-.228c.402 0 .76.072 1.072.217.313.14.574.342.785.603.215.258.377.565.487.92.109.352.164.74.164 1.166v.428h-4.799v-.598h4.101v-.082a2.574 2.574 0 0 0-.216-.996 1.808 1.808 0 0 0-.598-.762c-.266-.195-.598-.293-.996-.293-.297 0-.571.063-.821.188a1.861 1.861 0 0 0-.638.539 2.586 2.586 0 0 0-.41.826 3.7 3.7 0 0 0-.141 1.055v.252c0 .351.051.68.152.984.106.301.254.567.446.797.195.231.425.41.691.539.266.129.559.194.879.194a2.3 2.3 0 0 0 .996-.206c.289-.14.549-.361.779-.662l.44.34a2.692 2.692 0 0 1-.516.563 2.336 2.336 0 0 1-.732.41 2.98 2.98 0 0 1-.996.152Zm8.062-6.457v.61h-3.211v-.61h3.211Zm.569 0V355h-.698v-6.34h.698Zm-3.967 0h.697l-.141 2.971c-.023.48-.062.906-.117 1.277-.051.371-.121.69-.211.955-.09.262-.205.477-.345.645a1.27 1.27 0 0 1-.498.375 1.846 1.846 0 0 1-.686.117h-.264v-.633l.217-.006c.168-.007.315-.043.44-.105a.832.832 0 0 0 .328-.299c.093-.137.17-.316.228-.539.063-.223.112-.494.147-.814.039-.325.068-.706.088-1.143l.117-2.801Zm6.381 2.297h2.068c.5 0 .922.088 1.266.264.343.172.603.41.779.715.18.304.269.648.269 1.031 0 .289-.05.558-.152.808a1.752 1.752 0 0 1-.445.645 2.033 2.033 0 0 1-.727.428 2.959 2.959 0 0 1-.99.152h-2.514v-6.34h.698v5.736h1.816c.387 0 .699-.066.937-.199.239-.136.411-.312.516-.527a1.495 1.495 0 0 0 0-1.365 1.226 1.226 0 0 0-.516-.534c-.238-.14-.55-.21-.937-.21h-2.068v-.604Z"/>
  <defs>
    <filter id="f" width="68" height="68" x="5.5" y="28" color-interpolation-filters="sRGB" filterUnits="userSpaceOnUse">
      <feFlood flood-opacity="0" result="BackgroundImageFix"/>
      <feColorMatrix in="SourceAlpha" result="hardAlpha" values="0 0 0 0 0 0 0 0 0 0 0 0 0 0 0 0 0 0 127 0"/>
      <feOffset dy="4"/>
      <feGaussianBlur stdDeviation="2"/>
      <feComposite in2="hardAlpha" operator="out"/>
      <feColorMatrix values="0 0 0 0 0.290196 0 0 0 0 0.282353 0 0 0 0 0.286275 0 0 0 0.1 0"/>
      <feBlend in2="BackgroundImageFix" result="effect1_dropShadow_5470_7773"/>
      <feBlend in="SourceGraphic" in2="effect1_dropShadow_5470_7773" result="shape"/>
      <feColorMatrix in="SourceAlpha" result="hardAlpha" values="0 0 0 0 0 0 0 0 0 0 0 0 0 0 0 0 0 0 127 0"/>
      <feOffset dy="4"/>
      <feGaussianBlur stdDeviation="2"/>
      <feComposite in2="hardAlpha" k2="-1" k3="1" operator="arithmetic"/>
      <feColorMatrix values="0 0 0 0 0.290196 0 0 0 0 0.282353 0 0 0 0 0.286275 0 0 0 0.1 0"/>
      <feBlend in2="shape" result="effect2_innerShadow_5470_7773"/>
    </filter>
    <filter id="g" width="78" height="78" x="98" y="130" color-interpolation-filters="sRGB" filterUnits="userSpaceOnUse">
      <feFlood flood-opacity="0" result="BackgroundImageFix"/>
      <feColorMatrix in="SourceAlpha" result="hardAlpha" values="0 0 0 0 0 0 0 0 0 0 0 0 0 0 0 0 0 0 127 0"/>
      <feOffset dy="4"/>
      <feGaussianBlur stdDeviation="2"/>
      <feComposite in2="hardAlpha" operator="out"/>
      <feColorMatrix values="0 0 0 0 0.290196 0 0 0 0 0.282353 0 0 0 0 0.286275 0 0 0 0.1 0"/>
      <feBlend in2="BackgroundImageFix" result="effect1_dropShadow_5470_7773"/>
      <feBlend in="SourceGraphic" in2="effect1_dropShadow_5470_7773" result="shape"/>
      <feColorMatrix in="SourceAlpha" result="hardAlpha" values="0 0 0 0 0 0 0 0 0 0 0 0 0 0 0 0 0 0 127 0"/>
      <feOffset dy="4"/>
      <feGaussianBlur stdDeviation="2"/>
      <feComposite in2="hardAlpha" k2="-1" k3="1" operator="arithmetic"/>
      <feColorMatrix values="0 0 0 0 0.290196 0 0 0 0 0.282353 0 0 0 0 0.286275 0 0 0 0.1 0"/>
      <feBlend in2="shape" result="effect2_innerShadow_5470_7773"/>
    </filter>
    <filter id="i" width="68" height="68" x="155.5" y="0" color-interpolation-filters="sRGB" filterUnits="userSpaceOnUse">
      <feFlood flood-opacity="0" result="BackgroundImageFix"/>
      <feColorMatrix in="SourceAlpha" result="hardAlpha" values="0 0 0 0 0 0 0 0 0 0 0 0 0 0 0 0 0 0 127 0"/>
      <feOffset dy="4"/>
      <feGaussianBlur stdDeviation="2"/>
      <feComposite in2="hardAlpha" operator="out"/>
      <feColorMatrix values="0 0 0 0 0.290196 0 0 0 0 0.282353 0 0 0 0 0.286275 0 0 0 0.1 0"/>
      <feBlend in2="BackgroundImageFix" result="effect1_dropShadow_5470_7773"/>
      <feBlend in="SourceGraphic" in2="effect1_dropShadow_5470_7773" result="shape"/>
      <feColorMatrix in="SourceAlpha" result="hardAlpha" values="0 0 0 0 0 0 0 0 0 0 0 0 0 0 0 0 0 0 127 0"/>
      <feOffset dy="4"/>
      <feGaussianBlur stdDeviation="2"/>
      <feComposite in2="hardAlpha" k2="-1" k3="1" operator="arithmetic"/>
      <feColorMatrix values="0 0 0 0 0.290196 0 0 0 0 0.282353 0 0 0 0 0.286275 0 0 0 0.1 0"/>
      <feBlend in2="shape" result="effect2_innerShadow_5470_7773"/>
    </filter>
    <filter id="j" width="68" height="68" x="215" y="169" color-interpolation-filters="sRGB" filterUnits="userSpaceOnUse">
      <feFlood flood-opacity="0" result="BackgroundImageFix"/>
      <feColorMatrix in="SourceAlpha" result="hardAlpha" values="0 0 0 0 0 0 0 0 0 0 0 0 0 0 0 0 0 0 127 0"/>
      <feOffset dy="4"/>
      <feGaussianBlur stdDeviation="2"/>
      <feComposite in2="hardAlpha" operator="out"/>
      <feColorMatrix values="0 0 0 0 0.290196 0 0 0 0 0.282353 0 0 0 0 0.286275 0 0 0 0.1 0"/>
      <feBlend in2="BackgroundImageFix" result="effect1_dropShadow_5470_7773"/>
      <feBlend in="SourceGraphic" in2="effect1_dropShadow_5470_7773" result="shape"/>
      <feColorMatrix in="SourceAlpha" result="hardAlpha" values="0 0 0 0 0 0 0 0 0 0 0 0 0 0 0 0 0 0 127 0"/>
      <feOffset dy="4"/>
      <feGaussianBlur stdDeviation="2"/>
      <feComposite in2="hardAlpha" k2="-1" k3="1" operator="arithmetic"/>
      <feColorMatrix values="0 0 0 0 0.290196 0 0 0 0 0.282353 0 0 0 0 0.286275 0 0 0 0.1 0"/>
      <feBlend in2="shape" result="effect2_innerShadow_5470_7773"/>
    </filter>
    <filter id="k" width="68" height="68" x="0" y="203" color-interpolation-filters="sRGB" filterUnits="userSpaceOnUse">
      <feFlood flood-opacity="0" result="BackgroundImageFix"/>
      <feColorMatrix in="SourceAlpha" result="hardAlpha" values="0 0 0 0 0 0 0 0 0 0 0 0 0 0 0 0 0 0 127 0"/>
      <feOffset dy="4"/>
      <feGaussianBlur stdDeviation="2"/>
      <feComposite in2="hardAlpha" operator="out"/>
      <feColorMatrix values="0 0 0 0 0.290196 0 0 0 0 0.282353 0 0 0 0 0.286275 0 0 0 0.1 0"/>
      <feBlend in2="BackgroundImageFix" result="effect1_dropShadow_5470_7773"/>
      <feBlend in="SourceGraphic" in2="effect1_dropShadow_5470_7773" result="shape"/>
      <feColorMatrix in="SourceAlpha" result="hardAlpha" values="0 0 0 0 0 0 0 0 0 0 0 0 0 0 0 0 0 0 127 0"/>
      <feOffset dy="4"/>
      <feGaussianBlur stdDeviation="2"/>
      <feComposite in2="hardAlpha" k2="-1" k3="1" operator="arithmetic"/>
      <feColorMatrix values="0 0 0 0 0.290196 0 0 0 0 0.282353 0 0 0 0 0.286275 0 0 0 0.1 0"/>
      <feBlend in2="shape" result="effect2_innerShadow_5470_7773"/>
    </filter>
    <filter id="l" width="68" height="68" x="105" y="262" color-interpolation-filters="sRGB" filterUnits="userSpaceOnUse">
      <feFlood flood-opacity="0" result="BackgroundImageFix"/>
      <feColorMatrix in="SourceAlpha" result="hardAlpha" values="0 0 0 0 0 0 0 0 0 0 0 0 0 0 0 0 0 0 127 0"/>
      <feOffset dy="4"/>
      <feGaussianBlur stdDeviation="2"/>
      <feComposite in2="hardAlpha" operator="out"/>
      <feColorMatrix values="0 0 0 0 0.290196 0 0 0 0 0.282353 0 0 0 0 0.286275 0 0 0 0.1 0"/>
      <feBlend in2="BackgroundImageFix" result="effect1_dropShadow_5470_7773"/>
      <feBlend in="SourceGraphic" in2="effect1_dropShadow_5470_7773" result="shape"/>
      <feColorMatrix in="SourceAlpha" result="hardAlpha" values="0 0 0 0 0 0 0 0 0 0 0 0 0 0 0 0 0 0 127 0"/>
      <feOffset dy="4"/>
      <feGaussianBlur stdDeviation="2"/>
      <feComposite in2="hardAlpha" k2="-1" k3="1" operator="arithmetic"/>
      <feColorMatrix values="0 0 0 0 0.290196 0 0 0 0 0.282353 0 0 0 0 0.286275 0 0 0 0.1 0"/>
      <feBlend in2="shape" result="effect2_innerShadow_5470_7773"/>
    </filter>
    <linearGradient id="a" x1="100.773" x2="66.999" y1="137.966" y2="115.001" gradientUnits="userSpaceOnUse">
      <stop stop-color="#4A4849" stop-opacity=".15"/>
      <stop offset=".123" stop-color="#4A4849"/>
      <stop offset=".899" stop-color="#4A4849"/>
      <stop offset="1" stop-color="#4A4849" stop-opacity=".15"/>
    </linearGradient>
    <linearGradient id="b" x1="215.428" x2="175.207" y1="189.585" y2="182.493" gradientUnits="userSpaceOnUse">
      <stop stop-color="#4A4849" stop-opacity=".15"/>
      <stop offset=".123" stop-color="#4A4849"/>
      <stop offset=".899" stop-color="#4A4849"/>
      <stop offset="1" stop-color="#4A4849" stop-opacity=".15"/>
    </linearGradient>
    <linearGradient id="c" x1="140.531" x2="139.999" y1="253.838" y2="213" gradientUnits="userSpaceOnUse">
      <stop stop-color="#4A4849" stop-opacity=".15"/>
      <stop offset=".123" stop-color="#4A4849"/>
      <stop offset=".899" stop-color="#4A4849"/>
      <stop offset="1" stop-color="#4A4849" stop-opacity=".15"/>
    </linearGradient>
    <linearGradient id="d" x1="66.273" x2="101.506" y1="206.656" y2="185.999" gradientUnits="userSpaceOnUse">
      <stop stop-color="#4A4849" stop-opacity=".15"/>
      <stop offset=".123" stop-color="#4A4849"/>
      <stop offset=".899" stop-color="#4A4849"/>
      <stop offset="1" stop-color="#4A4849" stop-opacity=".15"/>
    </linearGradient>
    <linearGradient id="e" x1="152.629" x2="170.559" y1="126.695" y2="89.999" gradientUnits="userSpaceOnUse">
      <stop stop-color="#4A4849" stop-opacity=".15"/>
      <stop offset=".123" stop-color="#4A4849"/>
      <stop offset=".899" stop-color="#4A4849"/>
      <stop offset="1" stop-color="#4A4849" stop-opacity=".15"/>
    </linearGradient>
    <clipPath id="h">
      <path fill="#fff" d="M123 151h28v28h-28z"/>
    </clipPath>
  </defs>
</svg>
