<svg width="54" height="40" viewBox="0 0 54 40" fill="none" xmlns="http://www.w3.org/2000/svg">
<g clip-path="url(#clip0_7401_8000)">
<path fill-rule="evenodd" clip-rule="evenodd" d="M6.92211 33.49C5.40111 33.49 4.94311 32.992 4.94311 31.422V22.842C4.94311 22.406 4.97211 21.845 5.21411 21.667C5.60711 21.38 6.46811 21.413 6.99611 21.413C7.99611 21.413 9.36111 21.837 10.0671 22.48C10.4821 22.857 10.7081 22.978 11.0811 23.552C11.6011 24.356 11.8651 25.176 12.0011 26.151C12.0411 26.435 12.1131 27.238 12.0861 27.486C11.9761 28.493 12.0651 28.776 11.6971 29.919C11.3271 31.067 10.6411 32.1 9.63111 32.739C9.47411 32.839 9.34811 32.901 9.18011 32.989C8.61011 33.284 7.76811 33.49 6.92211 33.49ZM0.642113 34.384V33.8C0.659113 33.647 0.732113 33.697 1.00211 33.66C2.10411 33.504 2.57011 33.469 2.57011 32.01V22.92C2.57011 22.476 2.52911 21.854 2.17511 21.592C1.69911 21.241 0.864113 21.412 0.864113 21.235V20.545H6.45211C8.35511 20.545 10.2221 20.68 11.8341 21.575C12.5141 21.954 13.0871 22.456 13.5621 23.085C14.3821 24.169 14.7851 25.562 14.7851 26.955C14.7851 28.207 14.4581 29.651 13.9891 30.448L13.7141 30.93C13.5141 31.274 13.0941 31.776 12.8381 32.043C12.7791 32.103 12.7641 32.11 12.7041 32.16L12.4441 32.402C12.3901 32.447 12.3821 32.459 12.3231 32.507C11.5564 33.1342 10.6716 33.6011 9.72111 33.88C8.61124 34.2084 7.46054 34.3785 6.30311 34.385H0.641113L0.642113 34.384ZM49.1781 38.776C48.6701 38.776 48.4181 38.761 47.9281 38.613C47.6495 38.5212 47.386 38.3888 47.1461 38.22C46.7111 37.92 46.2861 37.398 46.2861 36.682C46.2861 36.064 46.6301 35.704 46.9341 35.386C47.5021 34.793 48.4181 34.896 49.2771 34.896C50.0711 34.896 51.1081 35.034 51.5371 35.676C51.9211 36.249 51.8651 37.042 51.5351 37.61C51.0831 38.389 50.1331 38.776 49.1781 38.776ZM47.0281 27.848C47.0281 27.043 47.2641 25.881 48.0081 25.49C48.7231 25.113 49.4901 25.605 49.8211 26.264C50.3181 27.251 50.3851 29.076 49.8261 29.998C49.1711 31.079 47.5461 31.022 47.1241 28.82L47.0281 27.848ZM44.6781 28.001C44.6781 28.713 44.7051 29.175 45.0751 29.812C45.3811 30.339 45.7221 30.655 46.2371 30.962C46.3151 31.009 46.5411 31.12 46.6311 31.142C46.3751 31.537 45.0991 32.402 44.6041 32.52C44.6041 33.4 45.0511 34.047 45.7461 34.482C45.8821 34.568 46.2801 34.778 46.4581 34.793C46.4111 34.866 45.8941 35.213 45.7811 35.293C45.1461 35.747 44.1841 36.423 44.1841 37.27C44.1841 38.115 44.7891 38.917 45.4541 39.328C47.8221 40.789 51.5841 39.728 53.0261 37.489C53.3691 36.956 53.6541 36.341 53.6541 35.508C53.6541 34.214 53.0361 33.464 51.9631 33.092C51.0481 32.774 50.1131 32.904 49.1531 32.904C48.6071 32.904 47.8111 32.977 47.3931 32.704C46.5301 32.143 47.3481 31.391 47.4231 31.371L48.6591 31.474C49.6951 31.474 50.7141 31.046 51.2861 30.56C52.0721 29.893 52.4421 29.074 52.4421 27.95C52.4421 27.21 52.2341 26.769 51.8731 26.214L53.0411 26.307C53.1191 26.307 53.1271 26.28 53.1791 26.234C53.2291 26.189 53.2521 26.178 53.3021 26.131C53.4891 25.953 54.0001 25.217 54.0001 25.064C54.0001 25.036 53.9191 24.895 53.9011 24.86L52.5931 25.016C52.3891 25.036 52.1271 25.079 51.9231 25.09C51.6781 25.102 51.0731 25.167 50.8831 25.154C50.8181 25.149 50.7061 25.074 50.6371 25.039C50.2874 24.8583 49.9136 24.7286 49.5271 24.654C48.1041 24.363 46.3701 24.855 45.4371 26.001C45.0101 26.525 44.6781 27.261 44.6781 28.001ZM15.7991 19.83C15.7991 20.515 15.7571 20.37 16.0141 20.4C16.0841 20.407 16.2111 20.428 16.2941 20.442C16.9011 20.546 17.1341 20.75 17.1341 21.566V32.418C17.1341 33.282 16.9341 33.494 16.2791 33.629C16.0802 33.6737 15.8784 33.7042 15.6751 33.72V34.384H20.8671V33.72C20.5921 33.714 20.0551 33.596 19.8201 33.474C19.4961 33.306 19.4331 32.886 19.4331 32.52V29.737C19.9531 29.737 19.9391 29.863 20.3771 30.474C20.9831 31.32 21.5771 32.219 22.2031 33.082L23.0631 34.212C23.1031 34.258 23.1161 34.264 23.1561 34.319C23.2821 34.494 23.3061 34.435 23.7851 34.435L25.9361 34.41C26.2011 34.41 26.3791 34.384 26.6531 34.384V33.72C26.3571 33.714 25.8861 33.54 25.6811 33.422C24.7461 32.882 23.2311 30.681 22.4911 29.745C22.2351 29.42 21.6671 28.565 21.5351 28.409C21.7551 28.071 22.4861 27.209 22.8021 26.884C22.9651 26.716 23.1081 26.564 23.2721 26.398C23.8721 25.785 24.7261 25.556 25.5141 25.394C25.9481 25.304 25.8621 25.496 25.8621 24.681C25.4141 24.681 24.6091 24.761 24.1821 24.759C24.0871 24.759 23.9771 24.753 23.8841 24.758C23.7721 24.764 23.7491 24.784 23.6131 24.784C23.5151 24.784 23.4121 24.78 23.3141 24.783C23.1901 24.786 23.1771 24.808 23.0441 24.81C22.9451 24.811 22.8441 24.807 22.7451 24.808C22.6121 24.81 22.6001 24.831 22.4751 24.835C22.1761 24.845 21.5721 24.829 21.3371 24.885V25.549C21.4791 25.549 21.7291 25.612 21.8351 25.648C22.4851 25.872 21.9871 26.429 21.6541 26.948L20.8981 28.008C20.8111 28.108 20.6481 28.328 20.5601 28.398C20.2361 28.654 19.9901 28.965 19.4331 29.098V19.014C19.3051 19.017 19.1211 19.088 18.9971 19.124C18.8547 19.1674 18.7114 19.2074 18.5671 19.244C17.8081 19.438 16.8051 19.657 16.0141 19.747C15.9011 19.759 15.7991 19.72 15.7991 19.83ZM33.6751 25.575V26.137C34.6101 26.362 34.8371 26.315 34.8371 27.694V32.061C34.8371 33.527 34.6641 33.549 33.5231 33.716C33.3541 33.741 33.4031 33.702 33.4031 34.384H38.2251V33.746C37.8831 33.664 37.5981 33.681 37.3441 33.481C37.1441 33.324 37.0871 32.902 37.0871 32.546V27.184C37.0871 27.052 38.1431 26.29 38.8671 26.29C39.6891 26.29 40.2071 26.716 40.4011 27.439C40.4631 27.67 40.5241 27.913 40.5241 28.205V32.52C40.5241 32.903 40.4681 33.268 40.2721 33.46C40.1621 33.567 40.0421 33.608 39.8671 33.654C39.786 33.6767 39.7035 33.6941 39.6201 33.706C39.3621 33.743 39.4111 33.6 39.4111 34.384H44.0111C44.0111 33.591 44.0691 33.751 43.7381 33.694C43.4321 33.643 43.0781 33.593 42.9171 33.318C42.7341 33.005 42.7741 32.358 42.7741 31.856C42.7741 30.833 42.8401 27.991 42.6691 27.113C42.5091 26.289 42.1361 25.584 41.4531 25.152C40.9421 24.828 40.5501 24.783 39.9311 24.783C39.3661 24.783 38.7431 25.166 38.3881 25.412L37.0881 26.316V24.706L35.0201 25.304L33.6751 25.575ZM27.4931 25.55V26.162C27.6931 26.167 28.2231 26.285 28.3881 26.413C28.6041 26.58 28.6801 26.905 28.6801 27.286V32.469C28.6801 33.489 28.3201 33.601 27.5541 33.706C27.2411 33.749 27.2961 33.574 27.2961 34.384H32.3401C32.3401 33.539 32.4571 33.776 31.8481 33.666C31.2101 33.551 30.9741 33.31 30.9541 32.623C30.9301 31.763 30.9551 30.858 30.9551 29.993V24.758L29.3011 25.22L27.9741 25.484C27.8371 25.507 27.6181 25.547 27.4941 25.549L27.4931 25.55ZM29.4971 22.945C30.2671 22.945 30.8571 22.365 30.8571 21.694C30.8571 21.244 30.7851 20.967 30.4681 20.64C29.5181 19.66 27.7991 20.727 28.3551 22.133C28.5221 22.554 29.0031 22.945 29.4971 22.945ZM26.7931 6.021C26.7931 5.491 27.6021 5.397 27.6021 6.051C27.6021 6.241 27.4241 6.387 27.2671 6.425C27.2951 6.486 27.3171 6.635 27.3391 6.725C27.3691 6.848 27.3841 6.925 27.4181 7.047C27.563 7.61594 27.8045 8.15578 28.1321 8.643C28.4251 8.563 29.2061 7.755 29.4151 7.433C29.2921 7.243 29.2201 7.377 29.2201 6.972C29.2201 6.813 29.3961 6.626 29.6381 6.626C29.7951 6.626 30.0011 6.809 30.0011 6.972C30.0011 7.282 29.9021 7.462 29.5271 7.462C29.4071 7.989 29.4151 8.472 29.4151 9.017C29.4151 9.188 29.6761 9.039 29.8151 8.97C30.2191 8.77 30.4481 8.622 30.7911 8.335C30.8531 8.283 30.9211 8.22 30.9771 8.182C30.9181 8.091 30.8371 8.022 30.8371 7.865C30.8371 7.685 31.0011 7.462 31.1721 7.462C31.4211 7.462 31.6471 7.533 31.6471 7.865C31.6471 8.254 31.2701 8.355 31.0051 8.211C30.9681 8.353 30.0701 9.553 30.0571 10.17C29.8931 10.17 29.8671 10.145 29.7231 10.14C29.0051 10.118 27.8911 10.141 27.1551 10.141C26.6371 10.141 26.2031 10.112 25.7051 10.112H24.2251L24.0671 9.614C23.7991 8.909 23.7431 8.876 23.4171 8.24C23.2631 8.277 23.3201 8.297 23.1101 8.297C22.6721 8.297 22.5881 7.505 23.1441 7.468C23.3641 7.454 23.5561 7.652 23.5561 7.894C23.5561 8.066 23.5031 8.066 23.4721 8.182C23.5341 8.224 23.5581 8.256 23.6281 8.31C23.9601 8.568 24.5981 9.071 24.9791 9.104C25.0071 8.76 25.0911 8.854 25.0911 8.067C25.0911 7.81 25.0521 7.649 25.0351 7.433C24.8401 7.433 24.7881 7.44 24.6751 7.343C24.3961 7.108 24.5451 6.597 24.9231 6.597C25.3801 6.597 25.4581 7.282 25.1191 7.375C25.1391 7.456 25.1891 7.502 25.2381 7.569L25.5161 7.916C25.7281 8.162 26.0741 8.564 26.4021 8.643L26.6441 8.173C26.7341 7.987 26.7861 7.843 26.8521 7.638C26.9146 7.44521 26.9671 7.24927 27.0091 7.051C27.0481 6.859 27.1271 6.621 27.1271 6.425C27.0339 6.40551 26.95 6.35491 26.8894 6.2815C26.8287 6.20809 26.7947 6.11623 26.7931 6.021ZM27.0851 0H27.2451C27.4602 0.0216554 27.6616 0.115808 27.8161 0.267C28.2861 0.707 28.0691 1.631 27.5451 1.757C27.5661 2.023 29.0721 4.472 29.2411 4.73C29.3351 4.872 29.5891 5.258 29.6931 5.33C29.8251 5.294 30.6401 4.71 30.7651 4.621L31.5181 4.046C31.6041 3.979 31.6781 3.916 31.7581 3.861C31.6571 3.706 31.6161 3.655 31.5681 3.451C31.5301 3.30291 31.5321 3.14737 31.5739 3.00031C31.6157 2.85324 31.6959 2.71992 31.8061 2.614C32.6821 1.703 33.9641 3.045 33.1601 3.868C33.0141 4.017 32.8501 4.158 32.6221 4.178C32.6301 4.538 33.3851 8.104 33.5151 8.384C33.8051 8.314 34.7871 7.816 35.0611 7.647L35.5511 7.375C35.3501 7.065 35.2821 6.755 35.4571 6.385C35.4779 6.33339 35.5073 6.28571 35.5441 6.244C36.1681 5.465 37.2251 5.997 37.2251 6.799C37.2251 7.269 36.8151 7.721 36.3611 7.721C35.9511 7.721 36.1121 7.696 35.8581 7.635C35.8501 7.74 35.7941 7.829 35.7551 7.931C35.4041 8.836 35.1371 9.947 35.3561 10.919L19.2861 10.89V10.458C19.2861 9.451 18.4461 7.987 18.3661 7.635C18.0601 7.708 18.2861 7.721 17.8081 7.721C17.1251 7.721 16.6051 6.582 17.4001 6.032C17.5172 5.94844 17.6522 5.89357 17.7944 5.87184C17.9365 5.8501 18.0818 5.86211 18.2185 5.90688C18.3551 5.95166 18.4793 6.02795 18.5811 6.12959C18.6828 6.23123 18.7592 6.35538 18.8041 6.492C18.9631 6.993 18.7181 7.164 18.7011 7.375L20.4231 8.305C20.5071 8.343 20.6051 8.394 20.6821 8.413C20.8721 8.004 21.4021 5.753 21.5021 5.285L21.7141 4.206C21.4931 4.19467 21.2831 4.1058 21.1211 3.955C20.8711 3.717 20.8491 3.471 20.8491 3.169C20.8491 2.769 21.3021 2.334 21.7691 2.334C22.4311 2.334 22.8911 3.077 22.6151 3.668C22.5711 3.763 22.5221 3.787 22.4951 3.889C22.6371 4.089 24.2041 5.281 24.5041 5.445C24.6041 5.292 24.7581 5.188 24.8671 5.042C25.6521 3.989 26.1911 2.957 26.7921 1.786C26.4301 1.686 26.2341 1.283 26.2341 0.836C26.2341 0.426 26.6271 0.041 27.0851 0ZM18.3951 11.64C18.3951 12.328 18.8501 12.01 18.8701 12.417C18.9561 14.102 18.8161 13.627 18.5461 13.927C18.4191 14.069 18.4231 14.302 18.4231 14.492C24.2751 14.492 30.0451 14.405 35.8881 14.405C35.8881 14.01 35.8111 13.9 35.5481 13.69C35.4211 13.589 35.4321 13.543 35.4111 13.342C35.3961 13.201 35.3721 13.062 35.3871 12.88C35.4321 12.332 35.3381 12.39 35.6021 12.122C35.8541 11.866 35.9251 11.495 35.7761 11.495H18.3961V11.639L18.3951 11.64ZM24.1421 16.335H36.7521C37.1891 16.335 37.3561 15.291 36.7691 15.079C36.5321 14.994 34.4231 15.039 34.0741 15.039C32.8421 15.039 31.6941 15.01 30.4751 15.01H26.8481C25.6341 15.01 24.4811 14.981 23.2491 14.981H19.6231C19.0171 14.981 18.4631 14.956 17.8371 14.952C17.4951 14.95 17.3551 15.015 17.2311 15.249C17.1271 15.447 17.0791 15.775 17.1861 15.999C17.3891 16.423 18.1191 16.306 18.7021 16.306C19.3061 16.306 19.9111 16.308 20.5151 16.306C20.8191 16.306 21.0551 16.336 21.3801 16.336H24.1421V16.335Z" fill="#4A4849"/>
</g>
<defs>
<clipPath id="clip0_7401_8000">
<rect width="54" height="40" fill="white"/>
</clipPath>
</defs>
</svg>
