<svg xmlns="http://www.w3.org/2000/svg" width="80" height="22" fill="none" viewBox="0 0 80 22">
  <path fill="#FDFDFD" fill-rule="evenodd" d="M32.922 15.49c-1.521 0-1.979-.498-1.979-2.068v-8.58c0-.436.029-.998.271-1.175.393-.287 1.255-.254 1.782-.254 1 0 2.365.424 3.071 1.067.415.377.641.498 1.014 1.072.52.804.784 1.624.92 2.599.04.284.112 1.087.085 1.335-.11 1.007-.021 1.29-.389 2.433-.37 1.148-1.056 2.181-2.066 2.82-.157.1-.283.162-.451.25-.57.295-1.412.502-2.258.502Zm-6.28.894V15.8c.017-.153.09-.103.36-.14 1.102-.156 1.568-.191 1.568-1.65V4.92c0-.444-.041-1.066-.395-1.328-.476-.351-1.311-.18-1.311-.357v-.69h5.588c1.903 0 3.77.135 5.382 1.03.68.379 1.253.881 1.728 1.51.82 1.084 1.223 2.477 1.223 3.87 0 1.252-.327 2.696-.796 3.493l-.275.482c-.2.344-.62.846-.876 1.113-.059.06-.074.067-.134.117l-.26.242c-.054.046-.062.057-.121.105a7.401 7.401 0 0 1-2.602 1.373 12.29 12.29 0 0 1-3.418.505h-5.662Zm48.536 4.392c-.508 0-.76-.015-1.25-.163a2.978 2.978 0 0 1-.782-.393c-.435-.3-.86-.822-.86-1.537 0-.619.344-.979.648-1.296.568-.594 1.484-.492 2.343-.492.794 0 1.831.139 2.26.78.384.574.328 1.367-.002 1.935-.453.779-1.402 1.166-2.357 1.166Zm-2.15-10.928c0-.805.236-1.967.98-2.358.715-.377 1.482.115 1.814.774.496.987.563 2.812.004 3.734-.655 1.081-2.28 1.024-2.702-1.178l-.097-.972Zm-2.35.153c0 .712.027 1.174.397 1.811.306.527.647.843 1.162 1.15.078.046.304.158.394.18-.256.395-1.532 1.26-2.027 1.379 0 .88.447 1.526 1.142 1.961.136.086.534.296.712.311-.047.073-.564.42-.677.5-.635.454-1.597 1.13-1.597 1.977 0 .845.605 1.647 1.27 2.058 2.368 1.461 6.13.4 7.572-1.838.343-.534.628-1.149.628-1.982 0-1.294-.618-2.044-1.691-2.416-.915-.318-1.85-.188-2.81-.189-.546 0-1.342.074-1.76-.198-.863-.562-.045-1.313.03-1.334l1.236.103c1.036 0 2.054-.428 2.627-.914.786-.667 1.156-1.486 1.156-2.61 0-.74-.208-1.181-.569-1.736l1.168.093c.078 0 .086-.027.138-.073.05-.045.073-.056.123-.103.187-.178.698-.914.698-1.066 0-.029-.081-.17-.099-.205l-1.308.156c-.204.02-.466.063-.67.074-.246.012-.85.077-1.04.064-.065-.004-.177-.08-.246-.115a4.119 4.119 0 0 0-1.11-.385c-1.423-.291-3.157.202-4.09 1.347-.427.524-.759 1.26-.759 2ZM41.798 1.83c0 .685-.041.54.216.57.07.007.197.028.28.042.607.104.84.308.84 1.124v10.852c0 .864-.2 1.076-.855 1.211a4.262 4.262 0 0 1-.604.091v.664h5.192v-.664c-.275-.006-.812-.124-1.047-.246-.324-.168-.387-.588-.387-.954v-2.783c.52 0 .506.126.944.737.606.846 1.2 1.745 1.826 2.608l.86 1.13c.04.046.053.052.093.107.126.175.15.116.629.116l2.151-.025c.265 0 .443-.026.717-.026v-.664c-.296-.007-.767-.18-.972-.298-.935-.54-2.45-2.741-3.19-3.677-.256-.325-.824-1.18-.956-1.336.22-.339.951-1.2 1.267-1.525.163-.168.306-.32.47-.486.6-.613 1.454-.842 2.242-1.004.434-.09.348.102.348-.713-.448 0-1.254.08-1.68.077-.096 0-.205-.005-.298 0-.112.006-.135.026-.271.026-.098 0-.202-.004-.299-.001-.124.003-.136.025-.27.027-.099.001-.2-.003-.298-.002-.134.002-.146.024-.27.027-.3.01-.904-.006-1.139.05v.664c.141 0 .392.063.498.099.65.223.152.781-.181 1.3l-.756 1.06c-.087.1-.25.32-.338.39-.324.256-.57.567-1.127.7V1.014c-.129.003-.312.074-.436.11a9.415 9.415 0 0 1-.43.12c-.759.194-1.762.413-2.553.502-.113.013-.216-.025-.216.085Zm17.877 5.745v.562c.935.225 1.162.178 1.162 1.557v4.367c0 1.466-.173 1.488-1.314 1.655-.169.025-.12-.014-.12.668h4.822v-.638c-.341-.082-.627-.065-.881-.265-.2-.157-.257-.579-.257-.935V9.184c0-.132 1.056-.894 1.78-.894.822 0 1.34.426 1.534 1.149.062.231.123.474.123.766v4.315c0 .383-.055.748-.252.94-.11.107-.23.148-.405.194a1.919 1.919 0 0 1-.247.052c-.258.037-.209-.106-.209.678h4.6c0-.793.058-.633-.272-.69-.307-.051-.662-.101-.822-.376-.183-.313-.143-.96-.143-1.462 0-1.023.066-3.865-.105-4.743-.16-.824-.533-1.529-1.216-1.961-.511-.324-.903-.369-1.522-.369-.565 0-1.188.383-1.543.629l-1.3.903V6.707l-2.068.597-1.345.271Zm-6.182-.025v.612c.2.005.73.123.895.251.216.167.292.492.292.873v5.183c0 1.02-.36 1.132-1.126 1.237-.313.043-.258-.131-.258.678h5.044c0-.845.117-.607-.492-.718-.638-.115-.874-.356-.894-1.043-.024-.86.001-1.765.001-2.63V6.757l-1.654.462-1.327.264c-.137.023-.356.063-.48.066Zm2.004-2.605c.77 0 1.36-.58 1.36-1.251 0-.45-.072-.727-.389-1.054-.95-.98-2.669.087-2.113 1.493.167.421.648.812 1.142.812ZM9.793 6.021c0-.53.809-.624.809.03 0 .19-.178.336-.335.374.028.061.05.21.072.3.03.123.045.2.079.322a5.13 5.13 0 0 0 .714 1.596c.293-.08 1.074-.888 1.283-1.21-.123-.19-.195-.056-.195-.461 0-.159.176-.346.418-.346.157 0 .363.183.363.346 0 .31-.099.49-.474.49-.12.527-.112 1.01-.112 1.555 0 .171.261.022.4-.047.404-.2.633-.348.976-.635.062-.052.13-.115.186-.153-.059-.091-.14-.16-.14-.317 0-.18.164-.403.335-.403.249 0 .475.071.475.403 0 .389-.377.49-.642.346-.037.142-.935 1.342-.948 1.959-.164 0-.19-.025-.334-.03-.718-.022-1.832.001-2.568.001-.518 0-.952-.029-1.45-.029h-1.48l-.158-.498c-.269-.705-.324-.738-.65-1.374-.154.037-.096.057-.307.057-.438 0-.522-.792.034-.829.22-.014.412.184.412.426 0 .172-.053.172-.083.288.06.042.085.074.155.128.332.258.97.761 1.351.794.028-.344.112-.25.112-1.037 0-.257-.039-.418-.056-.634-.195 0-.247.007-.36-.09-.279-.235-.13-.746.248-.746.457 0 .535.685.196.778.02.081.07.127.119.194l.278.347c.212.246.558.648.886.727l.242-.47a3.73 3.73 0 0 0 .208-.535 5.81 5.81 0 0 0 .157-.587c.039-.192.118-.43.118-.626a.42.42 0 0 1-.335-.404ZM10.085 0h.16a.953.953 0 0 1 .571.267c.47.44.253 1.364-.271 1.49.021.266 1.527 2.715 1.696 2.973.094.142.348.528.452.6.131-.036.947-.62 1.071-.709l.754-.575c.086-.067.16-.13.24-.185-.101-.155-.142-.206-.19-.41a.863.863 0 0 1 .238-.837c.876-.911 2.158.431 1.354 1.254-.146.149-.31.29-.538.31.008.36.763 3.926.893 4.206.29-.07 1.272-.568 1.546-.737l.49-.272c-.201-.31-.268-.62-.094-.99a.489.489 0 0 1 .087-.141c.624-.779 1.681-.247 1.681.555 0 .47-.41.922-.864.922-.41 0-.249-.025-.502-.086-.009.105-.065.194-.104.296-.351.905-.618 2.016-.399 2.988l-16.07-.029v-.432c0-1.007-.84-2.471-.92-2.823-.306.073-.08.086-.558.086-.682 0-1.203-1.139-.408-1.689a.917.917 0 0 1 1.404.46c.159.501-.086.672-.103.883l1.722.93c.084.038.182.089.259.108.19-.409.72-2.66.82-3.128l.212-1.079a.941.941 0 0 1-.593-.251c-.25-.238-.272-.484-.272-.786 0-.4.453-.835.92-.835.662 0 1.122.743.846 1.334-.045.095-.093.119-.12.221.142.2 1.708 1.392 2.009 1.556.1-.153.253-.257.363-.403.785-1.053 1.324-2.085 1.925-3.256-.362-.1-.559-.503-.559-.95 0-.41.394-.795.852-.836ZM1.396 11.64c0 .688.454.37.474.777.086 1.685-.054 1.21-.324 1.51-.128.142-.123.375-.123.565 5.852 0 11.622-.087 17.465-.087 0-.395-.077-.505-.34-.715-.127-.101-.116-.147-.137-.348-.015-.141-.039-.28-.024-.462.045-.548-.049-.49.215-.758.252-.256.322-.627.174-.627H1.396v.144Zm5.746 4.695h12.61c.437 0 .604-1.044.017-1.256-.237-.085-2.346-.04-2.695-.04-1.232 0-2.38-.029-3.599-.029H9.848c-1.214 0-2.367-.029-3.599-.029H2.623c-.606 0-1.16-.025-1.786-.029-.342-.002-.483.063-.606.297-.104.198-.152.526-.045.75.203.424.933.307 1.516.307.604 0 1.209.002 1.813 0 .304 0 .54.03.865.03h2.762Z" clip-rule="evenodd"/>
</svg>
