<svg width="80" height="22" viewBox="0 0 80 22" fill="none" xmlns="http://www.w3.org/2000/svg">
<g clip-path="url(#clip0_7401_8002)">
<path fill-rule="evenodd" clip-rule="evenodd" d="M32.9219 15.49C31.4009 15.49 30.9429 14.992 30.9429 13.422V4.842C30.9429 4.406 30.9719 3.844 31.2139 3.667C31.6069 3.38 32.4689 3.413 32.9959 3.413C33.9959 3.413 35.3609 3.837 36.0669 4.48C36.4819 4.857 36.7079 4.978 37.0809 5.552C37.6009 6.356 37.8649 7.176 38.0009 8.151C38.0409 8.435 38.1129 9.238 38.0859 9.486C37.9759 10.493 38.0649 10.776 37.6969 11.919C37.3269 13.067 36.6409 14.1 35.6309 14.739C35.4739 14.839 35.3479 14.901 35.1799 14.989C34.6099 15.284 33.7679 15.491 32.9219 15.491V15.49ZM26.6419 16.384V15.8C26.6589 15.647 26.7319 15.697 27.0019 15.66C28.1039 15.504 28.5699 15.469 28.5699 14.01V4.92C28.5699 4.476 28.5289 3.854 28.1749 3.592C27.6989 3.241 26.8639 3.412 26.8639 3.235V2.545H32.4519C34.3549 2.545 36.2219 2.68 37.8339 3.575C38.5139 3.954 39.0869 4.456 39.5619 5.085C40.3819 6.169 40.7849 7.562 40.7849 8.955C40.7849 10.207 40.4579 11.651 39.9889 12.448L39.7139 12.93C39.5139 13.274 39.0939 13.776 38.8379 14.043C38.7789 14.103 38.7639 14.11 38.7039 14.16L38.4439 14.402C38.3899 14.448 38.3819 14.459 38.3229 14.507C37.5561 15.1342 36.6713 15.6011 35.7209 15.88C34.611 16.2084 33.4603 16.3785 32.3029 16.385H26.6409L26.6419 16.384ZM75.1779 20.776C74.6699 20.776 74.4179 20.761 73.9279 20.613C73.6493 20.5212 73.3857 20.3888 73.1459 20.22C72.7109 19.92 72.2859 19.398 72.2859 18.683C72.2859 18.064 72.6299 17.704 72.9339 17.387C73.5019 16.793 74.4179 16.895 75.2769 16.895C76.0709 16.895 77.1079 17.034 77.5369 17.675C77.9209 18.249 77.8649 19.042 77.5349 19.61C77.0819 20.389 76.1329 20.776 75.1779 20.776ZM73.0279 9.848C73.0279 9.043 73.2639 7.881 74.0079 7.49C74.7229 7.113 75.4899 7.605 75.8219 8.264C76.3179 9.251 76.3849 11.076 75.8259 11.998C75.1709 13.079 73.5459 13.022 73.1239 10.82L73.0279 9.848ZM70.6779 10.001C70.6779 10.713 70.7049 11.175 71.0749 11.812C71.3809 12.339 71.7219 12.655 72.2369 12.962C72.3149 13.008 72.5409 13.12 72.6309 13.142C72.3749 13.537 71.0989 14.402 70.6039 14.521C70.6039 15.401 71.0509 16.047 71.7459 16.482C71.8819 16.568 72.2799 16.778 72.4579 16.793C72.4109 16.866 71.8939 17.213 71.7809 17.293C71.1459 17.747 70.1839 18.423 70.1839 19.27C70.1839 20.115 70.7889 20.917 71.4539 21.328C73.8219 22.789 77.5839 21.728 79.0259 19.49C79.3689 18.956 79.6539 18.341 79.6539 17.508C79.6539 16.214 79.0359 15.464 77.9629 15.092C77.0479 14.774 76.1129 14.904 75.1529 14.903C74.6069 14.903 73.8109 14.977 73.3929 14.705C72.5299 14.143 73.3479 13.392 73.4229 13.371L74.6589 13.474C75.6949 13.474 76.7129 13.046 77.2859 12.56C78.0719 11.893 78.4419 11.074 78.4419 9.95C78.4419 9.21 78.2339 8.769 77.8729 8.214L79.0409 8.307C79.1189 8.307 79.1269 8.28 79.1789 8.234C79.2289 8.189 79.2519 8.178 79.3019 8.131C79.4889 7.953 79.9999 7.217 79.9999 7.065C79.9999 7.036 79.9189 6.895 79.9009 6.86L78.5929 7.016C78.3889 7.036 78.1269 7.079 77.9229 7.09C77.6769 7.102 77.0729 7.167 76.8829 7.154C76.8179 7.15 76.7059 7.074 76.6369 7.039C76.2872 6.85829 75.9134 6.72863 75.5269 6.654C74.1039 6.363 72.3699 6.856 71.4369 8.001C71.0099 8.525 70.6779 9.261 70.6779 10.001ZM41.7979 1.83C41.7979 2.515 41.7569 2.37 42.0139 2.4C42.0839 2.407 42.2109 2.428 42.2939 2.442C42.9009 2.546 43.1339 2.75 43.1339 3.566V14.418C43.1339 15.282 42.9339 15.494 42.2789 15.629C42.08 15.6737 41.8781 15.7042 41.6749 15.72V16.384H46.8669V15.72C46.5919 15.714 46.0549 15.596 45.8199 15.474C45.4959 15.306 45.4329 14.886 45.4329 14.52V11.737C45.9529 11.737 45.9389 11.863 46.3769 12.474C46.9829 13.32 47.5769 14.219 48.2029 15.082L49.0629 16.212C49.1029 16.258 49.1159 16.264 49.1559 16.319C49.2819 16.494 49.3059 16.435 49.7849 16.435L51.9359 16.41C52.2009 16.41 52.3789 16.384 52.6529 16.384V15.72C52.3569 15.713 51.8859 15.54 51.6809 15.422C50.7459 14.882 49.2309 12.681 48.4909 11.745C48.2349 11.42 47.6669 10.565 47.5349 10.409C47.7549 10.07 48.4859 9.209 48.8019 8.884C48.9649 8.716 49.1079 8.564 49.2719 8.398C49.8719 7.785 50.7259 7.556 51.5139 7.394C51.9479 7.304 51.8619 7.496 51.8619 6.681C51.4139 6.681 50.6079 6.761 50.1819 6.758C50.0859 6.758 49.9769 6.753 49.8839 6.758C49.7719 6.764 49.7489 6.784 49.6129 6.784C49.5149 6.784 49.4109 6.78 49.3139 6.783C49.1899 6.786 49.1779 6.808 49.0439 6.81C48.9449 6.811 48.8439 6.807 48.7459 6.808C48.6119 6.81 48.5999 6.832 48.4759 6.835C48.1759 6.845 47.5719 6.829 47.3369 6.885V7.549C47.4779 7.549 47.7289 7.612 47.8349 7.648C48.4849 7.871 47.9869 8.429 47.6539 8.948L46.8979 10.008C46.8109 10.108 46.6479 10.328 46.5599 10.398C46.2359 10.654 45.9899 10.965 45.4329 11.098V1.014C45.3039 1.017 45.1209 1.088 44.9969 1.124C44.8545 1.16739 44.7111 1.2074 44.5669 1.244C43.8079 1.438 42.8049 1.657 42.0139 1.746C41.9009 1.759 41.7979 1.72 41.7979 1.83ZM59.6749 7.575V8.137C60.6099 8.362 60.8369 8.315 60.8369 9.694V14.061C60.8369 15.527 60.6639 15.549 59.5229 15.716C59.3539 15.741 59.4029 15.702 59.4029 16.384H64.2249V15.746C63.8839 15.664 63.5979 15.681 63.3439 15.481C63.1439 15.324 63.0869 14.902 63.0869 14.546V9.184C63.0869 9.052 64.1429 8.29 64.8669 8.29C65.6889 8.29 66.2069 8.716 66.4009 9.439C66.4629 9.67 66.5239 9.913 66.5239 10.205V14.52C66.5239 14.903 66.4689 15.268 66.2719 15.46C66.1619 15.567 66.0419 15.608 65.8669 15.654C65.7857 15.6767 65.7032 15.6941 65.6199 15.706C65.3619 15.743 65.4109 15.6 65.4109 16.384H70.0109C70.0109 15.591 70.0689 15.751 69.7389 15.694C69.4319 15.643 69.0769 15.593 68.9169 15.318C68.7339 15.005 68.7739 14.358 68.7739 13.856C68.7739 12.833 68.8399 9.991 68.6689 9.113C68.5089 8.289 68.1359 7.584 67.4529 7.152C66.9419 6.828 66.5499 6.783 65.9309 6.783C65.3659 6.783 64.7429 7.166 64.3879 7.412L63.0879 8.315V6.707L61.0199 7.304L59.6749 7.575ZM53.4929 7.55V8.162C53.6929 8.167 54.2229 8.285 54.3879 8.413C54.6039 8.58 54.6799 8.905 54.6799 9.286V14.469C54.6799 15.489 54.3199 15.601 53.5539 15.706C53.2409 15.749 53.2959 15.575 53.2959 16.384H58.3399C58.3399 15.539 58.4569 15.777 57.8479 15.666C57.2099 15.551 56.9739 15.31 56.9539 14.623C56.9299 13.763 56.9549 12.858 56.9549 11.993V6.757L55.3009 7.219L53.9739 7.483C53.8369 7.506 53.6179 7.546 53.4939 7.549L53.4929 7.55ZM55.4969 4.945C56.2669 4.945 56.8569 4.365 56.8569 3.694C56.8569 3.244 56.7849 2.967 56.4679 2.64C55.5179 1.66 53.7989 2.727 54.3549 4.133C54.5219 4.554 55.0029 4.945 55.4969 4.945ZM9.79286 6.021C9.79286 5.491 10.6019 5.397 10.6019 6.051C10.6019 6.241 10.4239 6.387 10.2669 6.425C10.2949 6.486 10.3169 6.635 10.3389 6.725C10.3689 6.848 10.3839 6.925 10.4179 7.047C10.5628 7.61594 10.8043 8.15578 11.1319 8.643C11.4249 8.563 12.2059 7.755 12.4149 7.433C12.2919 7.243 12.2199 7.377 12.2199 6.972C12.2199 6.813 12.3959 6.626 12.6379 6.626C12.7949 6.626 13.0009 6.809 13.0009 6.972C13.0009 7.282 12.9019 7.462 12.5269 7.462C12.4069 7.989 12.4149 8.472 12.4149 9.017C12.4149 9.188 12.6759 9.039 12.8149 8.97C13.2189 8.77 13.4479 8.622 13.7909 8.335C13.8529 8.283 13.9209 8.22 13.9769 8.182C13.9179 8.091 13.8369 8.022 13.8369 7.865C13.8369 7.685 14.0009 7.462 14.1719 7.462C14.4209 7.462 14.6469 7.533 14.6469 7.865C14.6469 8.254 14.2699 8.355 14.0049 8.211C13.9679 8.353 13.0699 9.553 13.0569 10.17C12.8929 10.17 12.8669 10.145 12.7229 10.14C12.0049 10.118 10.8909 10.141 10.1549 10.141C9.63686 10.141 9.20286 10.112 8.70486 10.112H7.22486L7.06686 9.614C6.79786 8.909 6.74286 8.876 6.41686 8.24C6.26286 8.277 6.32086 8.297 6.10986 8.297C5.67186 8.297 5.58786 7.505 6.14386 7.468C6.36386 7.454 6.55586 7.652 6.55586 7.894C6.55586 8.066 6.50286 8.066 6.47286 8.182C6.53286 8.224 6.55786 8.256 6.62786 8.31C6.95986 8.568 7.59786 9.071 7.97886 9.104C8.00686 8.76 8.09086 8.854 8.09086 8.067C8.09086 7.81 8.05186 7.649 8.03486 7.433C7.83986 7.433 7.78786 7.44 7.67486 7.343C7.39586 7.108 7.54486 6.597 7.92286 6.597C8.37986 6.597 8.45786 7.282 8.11886 7.375C8.13886 7.456 8.18886 7.502 8.23786 7.569L8.51586 7.916C8.72786 8.162 9.07386 8.564 9.40186 8.643L9.64386 8.173C9.72683 8.00027 9.79637 7.82141 9.85186 7.638C9.91439 7.44521 9.9668 7.24927 10.0089 7.051C10.0479 6.859 10.1269 6.621 10.1269 6.425C10.0334 6.40571 9.94937 6.3552 9.88848 6.28177C9.8276 6.20834 9.79352 6.11637 9.79186 6.021H9.79286ZM10.0849 0H10.2449C10.46 0.0216554 10.6613 0.115808 10.8159 0.267C11.2859 0.707 11.0689 1.631 10.5449 1.757C10.5659 2.023 12.0719 4.472 12.2409 4.73C12.3349 4.872 12.5889 5.258 12.6929 5.33C12.8239 5.294 13.6399 4.71 13.7639 4.621L14.5179 4.046C14.6039 3.979 14.6779 3.916 14.7579 3.861C14.6569 3.706 14.6159 3.655 14.5679 3.451C14.5298 3.30291 14.5318 3.14737 14.5736 3.00031C14.6155 2.85324 14.6956 2.71992 14.8059 2.614C15.6819 1.703 16.9639 3.045 16.1599 3.868C16.0139 4.017 15.8499 4.158 15.6219 4.178C15.6299 4.538 16.3849 8.104 16.5149 8.384C16.8049 8.314 17.7869 7.816 18.0609 7.647L18.5509 7.375C18.3499 7.065 18.2829 6.755 18.4569 6.385C18.4776 6.33339 18.507 6.28571 18.5439 6.244C19.1679 5.465 20.2249 5.997 20.2249 6.799C20.2249 7.269 19.8149 7.721 19.3609 7.721C18.9509 7.721 19.1119 7.696 18.8589 7.635C18.8499 7.74 18.7939 7.829 18.7549 7.931C18.4039 8.836 18.1369 9.947 18.3559 10.919L2.28586 10.89V10.458C2.28586 9.451 1.44586 7.987 1.36586 7.635C1.05986 7.708 1.28586 7.721 0.807857 7.721C0.125857 7.721 -0.395143 6.582 0.399857 6.032C0.516897 5.94844 0.651951 5.89357 0.794109 5.87184C0.936267 5.8501 1.08154 5.86211 1.21821 5.90688C1.35487 5.95166 1.47908 6.02795 1.58082 6.12959C1.68255 6.23123 1.75896 6.35538 1.80386 6.492C1.96286 6.993 1.71786 7.164 1.70086 7.375L3.42286 8.305C3.50686 8.343 3.60486 8.394 3.68186 8.413C3.87186 8.004 4.40186 5.753 4.50186 5.285L4.71386 4.206C4.49282 4.19467 4.28285 4.1058 4.12086 3.955C3.87086 3.717 3.84886 3.471 3.84886 3.169C3.84886 2.769 4.30186 2.334 4.76886 2.334C5.43086 2.334 5.89086 3.077 5.61486 3.668C5.56986 3.763 5.52186 3.787 5.49486 3.889C5.63686 4.089 7.20286 5.281 7.50386 5.445C7.60386 5.292 7.75686 5.188 7.86686 5.042C8.65186 3.989 9.19086 2.957 9.79186 1.786C9.42986 1.686 9.23286 1.283 9.23286 0.836C9.23286 0.426 9.62686 0.041 10.0849 0ZM1.39586 11.64C1.39586 12.328 1.84986 12.01 1.86986 12.417C1.95586 14.102 1.81586 13.627 1.54586 13.927C1.41786 14.069 1.42286 14.302 1.42286 14.492C7.27486 14.492 13.0449 14.405 18.8879 14.405C18.8879 14.01 18.8109 13.9 18.5479 13.69C18.4209 13.589 18.4319 13.543 18.4109 13.342C18.3959 13.201 18.3719 13.062 18.3869 12.88C18.4319 12.332 18.3379 12.39 18.6019 12.122C18.8539 11.866 18.9239 11.495 18.7759 11.495H1.39586V11.639V11.64ZM7.14186 16.335H19.7519C20.1889 16.335 20.3559 15.291 19.7689 15.079C19.5319 14.994 17.4229 15.039 17.0739 15.039C15.8419 15.039 14.6939 15.01 13.4749 15.01H9.84786C8.63386 15.01 7.48086 14.981 6.24886 14.981H2.62286C2.01686 14.981 1.46286 14.956 0.836857 14.952C0.494857 14.95 0.353857 15.015 0.230857 15.249C0.126857 15.447 0.078857 15.775 0.185857 15.999C0.388857 16.423 1.11886 16.306 1.70186 16.306C2.30586 16.306 2.91086 16.308 3.51486 16.306C3.81886 16.306 4.05486 16.336 4.37986 16.336H7.14186V16.335Z" fill="#4A4849"/>
</g>
<defs>
<clipPath id="clip0_7401_8002">
<rect width="80" height="22" fill="white"/>
</clipPath>
</defs>
</svg>
